<?xml version="1.0" encoding="UTF-8" standalone="no"?>
<svg
   xmlns:dc="http://purl.org/dc/elements/1.1/"
   xmlns:cc="http://creativecommons.org/ns#"
   xmlns:rdf="http://www.w3.org/1999/02/22-rdf-syntax-ns#"
   xmlns:svg="http://www.w3.org/2000/svg"
   xmlns="http://www.w3.org/2000/svg"
   xmlns:sodipodi="http://sodipodi.sourceforge.net/DTD/sodipodi-0.dtd"
   xmlns:inkscape="http://www.inkscape.org/namespaces/inkscape"
   width="441.77899"
   height="470.38696"
   viewBox="0 0 441.77899 470.38696"
   version="1.1"
   id="svg3715"
   sodipodi:docname="hints.svg"
   inkscape:version="0.92.2 (5c3e80d, 2017-08-06)">
  <metadata
     id="metadata3721">
    <rdf:RDF>
      <cc:Work
         rdf:about="">
        <dc:format>image/svg+xml</dc:format>
        <dc:type
           rdf:resource="http://purl.org/dc/dcmitype/StillImage" />
        <dc:title></dc:title>
      </cc:Work>
    </rdf:RDF>
  </metadata>
  <defs
     id="defs3719" />
  <sodipodi:namedview
     pagecolor="#ffffff"
     bordercolor="#6666ce"
     borderopacity="1"
     objecttolerance="10"
     gridtolerance="10"
     guidetolerance="10"
     inkscape:pageopacity="0"
     inkscape:pageshadow="2"
     inkscape:window-width="3840"
     inkscape:window-height="2097"
     id="namedview3717"
     showgrid="false"
     inkscape:zoom="1.4316667"
     inkscape:cx="-26.053259"
     inkscape:cy="230.19044"
     inkscape:window-x="-8"
     inkscape:window-y="-8"
     inkscape:window-maximized="1"
     inkscape:current-layer="svg3715"
     fit-margin-top="0"
     fit-margin-left="0"
     fit-margin-right="0"
     fit-margin-bottom="0"
     inkscape:showpageshadow="false" />
  <path
     id="path3713"
     style="color:#000000;font-style:normal;font-variant:normal;font-weight:normal;font-stretch:normal;font-size:medium;line-height:normal;font-family:sans-serif;font-variant-ligatures:normal;font-variant-position:normal;font-variant-caps:normal;font-variant-numeric:normal;font-variant-alternates:normal;font-feature-settings:normal;text-indent:0;text-align:start;text-decoration:none;text-decoration-line:none;text-decoration-style:solid;text-decoration-color:#000000;letter-spacing:normal;word-spacing:normal;text-transform:none;writing-mode:lr-tb;direction:ltr;text-orientation:mixed;dominant-baseline:auto;baseline-shift:baseline;text-anchor:start;white-space:normal;shape-padding:0;clip-rule:nonzero;display:inline;overflow:visible;visibility:visible;opacity:1;isolation:auto;mix-blend-mode:normal;color-interpolation:sRGB;color-interpolation-filters:linearRGB;solid-color:#000000;solid-opacity:1;vector-effect:none;fill:#000000;fill-opacity:1;fill-rule:nonzero;stroke:none;stroke-width:10.52099991;stroke-linecap:round;stroke-linejoin:round;stroke-miterlimit:10;stroke-dasharray:none;stroke-dashoffset:0;stroke-opacity:1;color-rendering:auto;image-rendering:auto;shape-rendering:auto;text-rendering:auto;enable-background:accumulate"
     d="m 239.89824,0.00316047 a 5.261026,5.261026 0 0 0 -5.06641,4.91015603 l -3.06445,38.1386725 a 5.261026,5.261026 0 1 0 10.48633,0.8418 L 245.31816,5.7570665 A 5.261026,5.261026 0 0 0 239.89824,0.00316047 Z M 141.08379,1.7316755 a 5.261026,5.261026 0 0 0 -5.23829,6.650391 l 11.22266,43.3164025 a 5.261026,5.261026 0 1 0 10.18555,-2.63867 L 146.03105,5.7433945 a 5.261026,5.261026 0 0 0 -4.94726,-4.011719 z M 335.02324,28.928941 a 5.261026,5.261026 0 0 0 -4.21875,2.501953 l -22.98828,36.310545 a 5.261026,5.261026 0 1 0 8.88867,5.62891 L 339.69511,37.0598 a 5.261026,5.261026 0 0 0 -4.67187,-8.130859 z M 55.197073,64.137929 a 5.261026,5.261026 0 0 0 -3.66602,9.0332 l 26.48633,26.50195 a 5.261026,5.261026 0 1 0 7.44141,-7.4375 l -26.48633,-26.50195 a 5.261026,5.261026 0 0 0 -3.77539,-1.5957 z M 396.19707,105.14574 a 5.261026,5.261026 0 0 0 -2.86524,0.73437 l -31.02734,17.84375 a 5.261026,5.261026 0 1 0 5.24414,9.11914 l 31.0293,-17.84179 a 5.261026,5.261026 0 0 0 -2.38086,-9.85547 z M 5.4099634,147.59886 a 5.261026,5.261026 0 0 0 -1.18946,10.41602 l 37.4199296,8.11719 a 5.261026,5.261026 0 1 0 2.23047,-10.28125 L 6.4509734,147.73363 a 5.261026,5.261026 0 0 0 -1.04101,-0.13477 z M 172.87871,193.78441 c -1.59617,0.16004 -3.14546,0.49843 -4.61914,1.00195 -5.89474,2.0141 -10.54993,6.31716 -13.63086,11.46094 -3.08093,5.14378 -4.67466,11.24279 -3.92188,17.34961 0.75279,6.10682 4.15875,12.20147 10.29102,16.08789 a 5.261026,5.261026 0 0 0 0.002,0 c 7.51059,4.75663 10.25235,6.49204 16.28516,10.31055 -19.08201,30.16244 -51.25,80.98242 -51.25,80.98242 a 5.261026,5.261026 0 1 0 8.89062,5.62695 c 0,0 32.16415,-50.81699 51.24805,-80.98242 0.97391,0.61635 5.56641,3.52539 5.56641,3.52539 v -0.002 c 0,0 4.53618,2.86724 5.48046,3.46484 -19.02292,29.55499 -54.5996,77.4336 -54.5996,77.4336 a 5.261026,5.261026 0 1 0 8.4375,6.28515 c 0,0 35.57335,-47.8094 55.05664,-78.09765 6.03636,3.81786 8.80426,5.57482 16.36523,10.3457 7.6e-4,4.8e-4 0.001,10e-4 0.002,0.002 0.003,0.002 0.004,0.002 0.008,0.004 6.12738,3.88136 13.08827,4.35644 18.92578,2.42773 5.84066,-1.92975 10.6706,-5.97848 14.00195,-10.96289 3.33136,-4.98441 5.23084,-11.03089 4.53125,-17.2207 -0.6995,-6.18904 -4.31284,-12.34503 -10.75586,-16.42578 l -0.002,-0.002 c -9.25036,-5.86147 -18.93342,-7.00715 -27.17969,-2.46093 -6.85306,3.77813 -12.67098,10.60492 -18.96094,19.91015 -1.01166,-0.64023 -5.68359,-3.59179 -5.68359,-3.59179 0,0 -4.67741,-2.96056 -5.69336,-3.60352 5.72117,-9.66603 9.40049,-17.84474 9.88281,-25.6543 0.58048,-9.3988 -4.59713,-17.65987 -13.84765,-23.51171 l -0.002,-0.002 c -4.83305,-3.05921 -10.04037,-4.1812 -14.82812,-3.70117 z m 263.46094,0.49023 a 5.261026,5.261026 0 0 0 -0.88672,0.10547 l -43.95703,8.40625 a 5.261026,5.261026 0 1 0 1.97656,10.33399 l 43.95703,-8.40625 a 5.261026,5.261026 0 0 0 -1.08984,-10.43946 z m -262.33008,9.91407 c 2.40056,-0.29791 4.98964,0.23706 8.07031,2.1875 a 5.261026,5.261026 0 0 0 0.002,0.002 c 7.41195,4.68807 9.33359,8.15834 8.97461,13.9707 -0.29456,4.76943 -3.14505,11.73385 -8.30273,20.65625 -6.01412,-3.80669 -8.68784,-5.49813 -16.12305,-10.20703 h -0.002 c -3.59821,-2.28092 -5.06155,-5.1057 -5.47852,-8.48828 -0.41702,-3.38302 0.52009,-7.34415 2.50391,-10.65625 1.98382,-3.3121 4.92841,-5.85866 8.00586,-6.91015 0.76936,-0.26288 1.54942,-0.45539 2.34961,-0.55469 z M 36.628713,231.06175 a 5.261026,5.261026 0 0 0 -0.36719,0.0195 l -25.17187,1.96093 a 5.261026,5.261026 0 1 0 0.8164,10.48828 l 25.17188,-1.95898 a 5.261026,5.261026 0 0 0 -0.44922,-10.50977 z m 197.830077,10.3418 c 2.5537,0.29816 5.39754,1.53615 9.10351,3.88477 a 5.261026,5.261026 0 0 0 0.002,0 c 4.10647,2.60026 5.5644,5.48876 5.92968,8.7207 0.36529,3.23194 -0.67712,6.98377 -2.82226,10.19336 -2.14515,3.20959 -5.32418,5.75036 -8.55664,6.81836 -3.23247,1.068 -6.4048,0.95173 -10,-1.32813 a 5.261026,5.261026 0 0 0 -0.01,-0.008 c -7.44817,-4.69969 -10.11694,-6.391 -16.12891,-10.19336 5.85822,-8.47633 10.93077,-14.03292 15.11524,-16.33984 2.54977,-1.4057 4.81348,-2.04621 7.36719,-1.74805 z M 381.658,277.54808 a 5.261026,5.261026 0 0 0 -1.64648,10.20899 l 32.58398,12.26562 a 5.261026,5.261026 0 1 0 3.70508,-9.8457 L 383.7166,277.90941 a 5.261026,5.261026 0 0 0 -2.0586,-0.36133 z m -41.52734,63.89063 a 5.261026,5.261026 0 0 0 -4.27539,8.52539 l 23.33984,30.33203 a 5.261026,5.261026 0 1 0 8.33789,-6.41602 l -23.33984,-30.33203 a 5.261026,5.261026 0 0 0 -4.0625,-2.10937 z m -60.28516,40.22851 a 5.261026,5.261026 0 0 0 -4.875,7.28516 l 7.85352,19.60156 a 5.261026,5.261026 0 1 0 9.76563,-3.91406 l -7.85352,-19.59961 a 5.261026,5.261026 0 0 0 -4.89063,-3.37305 z M 210.82988,80.602769 c -45.58668,1.38279 -89.73718,24.618811 -115.910157,65.966801 -27.69828,43.75156 -28.52527,97.03725 -6.68359,140.17187 2.88812,5.7097 6.9692,10.49182 10.68359,15.52149 3.715247,5.03082 6.869337,10.18404 7.623047,12.56054 a 10.522052,10.522052 0 1 0 20.05664,-6.36133 c -2.34929,-7.40749 -6.7369,-13.25978 -10.75391,-18.69921 -4.017,-5.43943 -7.85821,-10.59192 -8.83398,-12.52149 a 10.522052,10.522052 0 0 0 -0.002,-0.004 C 88.411203,240.50805 89.025263,195.21781 112.69897,157.82337 148.49421,101.27415 223.05488,84.488799 279.60522,120.29994 a 10.522052,10.522052 0 0 0 0.002,0.002 c 56.55466,35.7946 73.30541,110.35304 37.50977,166.91211 h 0.002 c -23.6762,37.40336 -64.33497,57.33482 -105.49804,56.24023 a 10.522052,10.522052 0 0 0 -0.002,0 c -2.90637,-0.0768 -12.5834,-2.4285 -21.96484,-3.83008 -4.69072,-0.70078 -9.5083,-1.19972 -14.63867,-0.50195 -5.12966,0.69768 -11.47904,3.15717 -15.14844,8.9668 -5.1e-4,8.1e-4 -10e-4,0.001 -0.002,0.002 -9.17035,14.45932 -6.5431,10.33141 -9.18946,14.49024 L 99.693123,330.31175 a 10.522052,10.522052 0 0 0 -0.0215,-0.0137 c -11.10237,-6.99185 -25.89985,-3.30354 -32.875,7.67383 a 10.522052,10.522052 0 0 0 -0.01,0.0137 c -6.96665,11.00071 -3.93496,25.99641 7.13086,33.0293 a 10.522052,10.522052 0 0 0 0.0195,0.0117 l 54.749997,34.63281 7.71289,4.90625 a 10.522052,10.522052 0 0 0 0.0352,0.0215 c -0.4407,-0.27801 0.52996,0.71433 -0.91016,3.00196 -1.4572,2.29199 -2.79158,1.84922 -2.34765,2.13086 a 10.522052,10.522052 0 0 0 -0.002,-0.002 l -3.76367,-2.38671 a 10.522052,10.522052 0 0 0 -0.004,-0.002 L 79.040413,381.43472 a 10.522052,10.522052 0 0 0 -0.0273,-0.0156 c -5.59726,-3.52001 -12.31689,-3.31775 -17.51562,-1.26758 -5.19874,2.05017 -9.49744,5.79395 -12.61133,10.71094 a 10.522052,10.522052 0 0 0 -0.002,0.006 c -3.11655,4.92733 -4.65315,10.42215 -4.27539,15.99804 0.37762,5.57386 3.06856,11.73968 8.67187,15.2832 l 30.53321,19.31641 1.3496,0.85547 c -0.40959,0.86136 -0.84965,1.76669 -1.44921,2.71484 a 10.522052,10.522052 0 0 0 -0.01,0.0176 c -0.58501,0.92933 -1.20036,1.69568 -1.79102,2.42188 l -18.54882,-11.7461 a 10.522052,10.522052 0 1 0 -11.25782,17.7793 l 23.68946,15 a 10.522052,10.522052 0 0 0 0.0137,0.008 c 4.03002,2.54324 8.44213,2.02839 11.06055,1.15235 2.61842,-0.87604 4.38723,-2.0988 6.04492,-3.42578 3.31022,-2.64986 6.06736,-5.96644 8.583977,-9.96094 l 0.004,-0.006 c 2.51719,-3.9818 4.33512,-7.88664 5.32031,-12.00781 0.49285,-2.06166 0.84489,-4.17778 0.52539,-6.91797 -0.31949,-2.7402 -1.72469,-6.95212 -5.73437,-9.52149 a 10.522052,10.522052 0 0 0 -0.0508,-0.0312 L 95.067623,423.685 a 10.522052,10.522052 0 0 0 -0.002,0 l -29.41211,-18.60742 c 0.0363,-0.63205 0.24789,-1.74755 1.00976,-2.95508 l 0.002,-0.004 c 5.2e-4,-8.3e-4 0.001,-10e-4 0.002,-0.002 0.77286,-1.21739 1.69384,-1.88627 2.24609,-2.1875 l 49.234377,31.17578 3.75976,2.38477 c 11.05201,7.00975 24.83007,1.71029 31.39063,-8.63281 a 10.522052,10.522052 0 0 0 0.008,-0.0117 c 6.55377,-10.36425 5.40419,-25.0764 -5.63867,-32.04883 l -0.006,-0.006 -7.68945,-4.89258 a 10.522052,10.522052 0 0 0 -0.0234,-0.0156 L 85.204883,353.25511 c -1.22962,-0.78148 -1.68747,-2.34252 -0.64258,-4.00195 1.03524,-1.62227 2.71659,-1.89149 3.89649,-1.14844 l 59.839837,37.87305 a 10.522052,10.522052 0 0 0 14.50586,-3.24609 l 3.86133,-6.07422 0.004,-0.006 c 6.34205,-9.96347 1.31476,-2.07124 10.53711,-16.61524 0.0778,0.003 0.0685,0.0139 0.64453,-0.0644 1.65113,-0.22457 4.94804,-0.0969 8.69532,0.46289 7.49456,1.11968 15.99394,3.82948 24.51758,4.05469 48.33825,1.28472 96.13655,-22.26544 123.83398,-66.02149 41.87587,-66.16615 22.12832,-154.06732 -44.03516,-195.94531 l -0.002,-0.002 C 266.05033,86.809669 238.18105,79.773119 210.82988,80.602769 Z"
     inkscape:connector-curvature="0" />
</svg>
