<?xml version="1.0" encoding="UTF-8" standalone="no"?>
<!-- Generator: Adobe Illustrator 15.0.0, SVG Export Plug-In . SVG Version: 6.00 Build 0)  -->

<svg
   xmlns:dc="http://purl.org/dc/elements/1.1/"
   xmlns:cc="http://creativecommons.org/ns#"
   xmlns:rdf="http://www.w3.org/1999/02/22-rdf-syntax-ns#"
   xmlns:svg="http://www.w3.org/2000/svg"
   xmlns="http://www.w3.org/2000/svg"
   xmlns:sodipodi="http://sodipodi.sourceforge.net/DTD/sodipodi-0.dtd"
   xmlns:inkscape="http://www.inkscape.org/namespaces/inkscape"
   version="1.1"
   id="Layer_1"
   x="0px"
   y="0px"
   width="600px"
   height="600px"
   viewBox="0 0 600 600"
   enable-background="new 0 0 600 600"
   xml:space="preserve"
   sodipodi:docname="key.svg"
   inkscape:version="0.92.2 (5c3e80d, 2017-08-06)"><metadata
     id="metadata11"><rdf:RDF><cc:Work
         rdf:about=""><dc:format>image/svg+xml</dc:format><dc:type
           rdf:resource="http://purl.org/dc/dcmitype/StillImage" /><dc:title></dc:title></cc:Work></rdf:RDF></metadata><defs
     id="defs9" /><sodipodi:namedview
     pagecolor="#ffffff"
     bordercolor="#666666"
     borderopacity="1"
     objecttolerance="10"
     gridtolerance="10"
     guidetolerance="10"
     inkscape:pageopacity="0"
     inkscape:pageshadow="2"
     inkscape:window-width="3840"
     inkscape:window-height="2097"
     id="namedview7"
     showgrid="false"
     inkscape:zoom="1.1125147"
     inkscape:cx="864.48745"
     inkscape:cy="223.40379"
     inkscape:window-x="-8"
     inkscape:window-y="-8"
     inkscape:window-maximized="1"
     inkscape:current-layer="Layer_1" /><path
     id="path4"
     style="fill:#000000;fill-opacity:1;stroke:none"
     d="m 192.819,411.502 c 0.414,-14.377 -47.64,-88.963 -26.097,-100.199 5.317,-2.77 11.093,-0.174 16.574,5.607 12.942,13.635 34.071,65.773 34.071,65.773 0,0 -17.06,-52.51 -17.224,-74.326 -0.065,-8.202 2.983,-14.136 8.764,-15.543 5.126,-1.254 10.908,2.411 14.606,9.895 8.644,17.539 24.504,72.492 24.504,72.492 0,0.021 -8.529,-50.264 -8.323,-69.156 0.071,-7.024 3.284,-11.845 7.674,-12.805 4.761,-1.058 9.337,2.945 12.828,9.905 9.271,18.543 17.752,64.748 17.752,64.748 0,0 -1.685,-32.07 0.463,-44.352 0.856,-4.864 4.091,-8.006 7.974,-8.703 16.646,-3.033 26.167,54.494 26.167,54.494 0,0 39.857,71.25 20.66,102.031 -19.154,30.805 -87.044,49.828 -121.208,29.648 -14.818,-8.793 -23.163,-40.84 -39.808,-50.635 -15.925,-9.359 -41.744,-11.584 -38.253,-30.324 4.806,-25.872 58.876,-8.55 58.876,-8.55 z M 335.61523,33.914062 c -4.86839,-0.06202 -9.80358,0.971384 -14.11718,3.277344 -5.75147,3.074614 -10.05772,7.890608 -13.48438,13.416016 -3.96019,6.385721 -7.05812,14.145578 -9.94336,23.224609 -0.41523,-5.492305 -1.3725,-10.472496 -3.35937,-14.921875 C 289.96386,48.279595 279.3912,42.9884 270.67383,41.083984 a 11.836184,11.836184 0 0 0 -0.0195,-0.0039 c -5.32839,-1.154332 -11.24043,-0.959713 -16.46485,1.277344 -5.22441,2.237057 -9.26114,6.162856 -12.26172,10.509766 -6.00114,8.693818 -9.21489,19.555486 -12.74804,33.785156 a 11.836184,11.836184 0 0 0 0,0.002 c -1.40513,5.663529 -3.07179,13.048717 -4.58399,19.37695 -0.49818,-1.34648 -0.94906,-2.70487 -1.61914,-4.00586 -4.07073,-7.903541 -12.92946,-14.083041 -22.51172,-14.791012 a 11.836184,11.836184 0 0 0 -0.004,0 c -6.8545,-0.504066 -13.88424,1.714233 -18.81446,5.683594 -4.93022,3.96936 -7.92474,8.984888 -10.23828,14.074218 -4.62706,10.17864 -6.91753,21.58608 -10.10156,32.42969 a 11.836184,11.836184 0 0 0 -0.004,0.0117 c -13.06041,44.64058 -29.82627,111.59417 -30.16992,112.9668 -0.99606,2.39785 -17.91971,43.37361 -30.48437,91.89063 -6.471431,24.98867 -11.766595,51.82356 -12.896487,76.63476 -1.129892,24.8112 1.459575,48.03865 13.960937,65.40234 a 11.836184,11.836184 0 0 0 0.004,0.006 c 22.71896,31.51977 66.69405,51.63676 113.00976,59.75782 46.31571,8.12106 95.70448,4.17873 129.70313,-20.31641 18.00357,-12.97302 23.88514,-35.26195 32.53906,-56.27734 8.65392,-21.0154 18.70946,-40.91165 36.92578,-52.70899 a 11.836184,11.836184 0 0 0 0.01,-0.006 c 29.06311,-18.86191 56.84955,-21.87771 78.72461,-26.19336 10.93752,-2.15782 21.19454,-4.08916 29.30664,-12.375 4.05605,-4.14292 6.79483,-10.03938 7.49804,-16.10351 0.70307,-6.06286 -0.20107,-12.25518 -2.14648,-19.125 l -0.002,-0.004 c -4.78785,-16.91853 -20.02582,-26.47911 -36.02149,-30.94531 -15.99702,-4.46658 -34.23839,-5.08498 -51.82812,-4.31445 -35.17946,1.54105 -68.03125,9.17578 -68.03125,9.17578 a 11.836184,11.836184 0 1 0 5.31836,23.06445 c 0,0 31.36395,-7.1731 63.75,-8.5918 16.19302,-0.70934 32.57211,0.15515 44.42578,3.46485 11.85367,3.3097 17.69481,7.81846 19.61133,14.59375 a 11.836184,11.836184 0 0 0 0.002,0.004 c 1.41049,4.97996 1.60239,8.29342 1.41016,9.95118 -0.19224,1.65775 -0.34137,1.69853 -0.9004,2.26953 -1.11805,1.142 -6.99901,3.74484 -16.9746,5.71289 -19.9512,3.9361 -53.09646,7.53945 -87.02735,29.56054 -24.92706,16.14798 -36.88605,41.57115 -45.93945,63.55665 -9.05458,21.98835 -16.57386,40.38491 -24.48828,46.08789 -25.77035,18.56686 -69.78531,23.56801 -111.77735,16.20507 -41.98945,-7.36248 -81.22179,-27.15489 -97.89257,-50.27929 l -0.004,-0.004 c -7.16908,-9.96126 -10.52972,-28.30764 -9.51953,-50.49023 1.01032,-22.18568 5.94561,-47.76748 12.16406,-71.7793 12.43689,-48.02364 29.76172,-89.57617 29.76172,-89.57617 a 11.836184,11.836184 0 0 0 0.56055,-1.68555 c 0,0 17.20364,-68.67971 30.13281,-112.87305 l 0.004,-0.01 c 3.49537,-11.90532 6.06873,-22.98651 8.93555,-29.29297 1.43384,-3.15418 2.84508,-4.87958 3.5332,-5.43359 0.68813,-0.55402 0.48788,-0.64016 2.23438,-0.51172 2.6591,0.19627 2.19484,0.0525 3.20898,2.02148 1.01502,1.97071 2.06656,6.92475 1.65625,13.8086 a 11.836184,11.836184 0 0 0 0,0.0156 c -2.52457,43.2988 -14.46679,137.9707 -14.46679,137.9707 a 11.836184,11.836184 0 0 0 23.3164,3.94727 c 0,0 24.10853,-113.35476 39.71289,-176.249998 v -0.002 c 3.31069,-13.333156 6.76414,-22.431279 9.25586,-26.041016 1.24593,-1.804966 1.9122,-2.115901 2.09766,-2.195312 0.18478,-0.07912 0.40084,-0.276881 2.12891,0.0957 5.59714,1.222857 6.13869,1.384216 7.46289,4.349609 1.32567,2.968688 2.52317,11.921996 -0.22071,28.818359 a 11.836184,11.836184 0 0 0 -0.006,0.02539 C 262.69601,160.93597 262.93809,160.73868 246.90433,265.3766 a 11.836184,11.836184 0 0 0 23.12109,4.89258 C 297.15635,170.26194 297.13135,170.0021 314.80664,101.91406 a 11.836184,11.836184 0 0 0 0.0273,-0.10547 c 4.76388,-19.071196 9.32694,-32.325124 13.29688,-38.726559 1.98497,-3.200717 3.56895,-4.504332 4.52539,-5.015625 0.95644,-0.511292 1.62565,-0.751913 3.97852,-0.36914 a 11.836184,11.836184 0 0 0 0.008,0.002 c 2.34098,0.379395 3.00372,0.865785 3.92969,1.925781 0.92596,1.059996 2.12552,3.255517 2.88867,7.304688 1.5263,8.09834 0.74239,22.711272 -2.95703,41.986335 a 11.836184,11.836184 0 0 0 -0.002,0.008 c -13.43717,70.26674 -36.83593,169.96094 -36.83593,169.96094 l 0.17187,0.0195 c -0.22049,1.22263 -0.48437,2.68747 -0.48437,2.6875 a 11.836184,11.836184 0 0 0 22.93554,4.08398 c -1.7e-4,8.5e-4 -0.008,0.0369 -0.008,0.0371 0.003,-0.008 0.006,-0.0129 0.0117,-0.0273 0.0169,-0.0449 0.0439,-0.11684 0.0801,-0.21289 0.0724,-0.19211 0.18112,-0.48212 0.32422,-0.86133 0.28618,-0.75843 0.70997,-1.87897 1.25781,-3.33008 1.09566,-2.90223 2.68811,-7.12227 4.67773,-12.39063 3.97926,-10.5367 9.54476,-25.26954 15.88672,-42.05468 12.68392,-33.57028 28.47544,-75.35139 40.9082,-108.19532 a 11.836184,11.836184 0 0 0 0.004,-0.006 c 6.26055,-16.56851 11.4792,-27.342972 15.06445,-31.359382 1.79263,-2.008205 2.66657,-2.390396 3.76172,-2.650391 1.09515,-0.259995 3.06808,-0.339874 6.76172,0.769531 3.21173,0.967694 3.53971,1.592194 4.22852,2.958985 0.68944,1.36805 1.32672,4.401222 0.98242,9.021484 -0.6886,9.240523 -5.18741,23.443063 -9.86524,37.982423 a 11.836184,11.836184 0 0 0 -0.002,0.008 c -14.92053,46.47453 -33.08357,108.62278 -41.6914,149.94141 a 11.836184,11.836184 0 1 0 23.17187,4.82617 c 8.21216,-39.41937 26.30917,-101.59773 41.05664,-147.5332 l -0.004,0.008 c 4.61518,-14.34464 9.87456,-29.18438 10.93946,-43.474611 0.53245,-7.145113 0.0448,-14.498596 -3.44922,-21.43164 C 436.8926,70.768595 429.9763,65.17731 421.83581,62.727029 a 11.836184,11.836184 0 0 0 -0.008,-0.002 c -6.29286,-1.890095 -12.73325,-2.625474 -19.0371,-1.128906 -6.30385,1.496568 -11.81476,5.281924 -15.95313,9.917969 -8.27674,9.27209 -13.10238,21.693408 -19.54883,38.753908 -1.91031,5.0465 -4.23988,11.21535 -6.28515,16.62109 0.87304,-4.41348 1.93561,-9.27356 2.74609,-13.51172 l 0.002,-0.008 c 3.95542,-20.611052 5.55986,-37.074206 2.96875,-50.822265 -1.29572,-6.874955 -3.78138,-13.29598 -8.32226,-18.494141 -4.54088,-5.19816 -11.12719,-8.609645 -17.97071,-9.71875 -1.57997,-0.256648 -3.19231,-0.39928 -4.8125,-0.419922 z" /></svg>