<svg width="280" height="160" xmlns="http://www.w3.org/2000/svg" xmlns:svg="http://www.w3.org/2000/svg">
 <g>
  <title>Layer 1</title>
  <g id="Logo Text Blue" stroke="null">
   <path d="m69.827,141.601c1.217,-4.281 1.903,-7.733 0.886,-13.245c-1.016,-5.509 -3.465,-9.696 -7.968,-12.936c-4.505,-3.237 -9.471,-4.449 -14.902,-3.633c-5.618,0.804 -10.057,3.589 -13.319,8.352c-3.26,4.764 -4.371,9.956 -3.333,15.578c0.995,5.398 3.711,9.71 8.154,12.937c4.44,3.226 9.32,4.443 14.64,3.648c2.019,-0.312 5.27,-1.408 7.919,-3.019c4.96,5.179 12.278,3.254 12.278,3.254c0,0 -4.421,-3.105 -4.355,-10.936zm-6.619,-0.743c-2.42,3.686 -5.766,5.829 -10.036,6.431c-3.955,0.544 -7.6,-0.451 -10.934,-2.982c-3.334,-2.531 -5.33,-5.834 -5.988,-9.907c-0.713,-4.11 0.107,-7.874 2.461,-11.292c2.352,-3.416 5.581,-5.503 9.684,-6.26c3.921,-0.723 7.544,0.101 10.872,2.468c3.329,2.368 5.411,5.574 6.25,9.614c0.88,4.267 0.109,8.243 -2.309,11.928z" fill="rgb(84,137,155)" id="svg_1" stroke="null"/>
   <path d="m162.777,141.601c1.218,-4.281 1.901,-7.733 0.885,-13.245c-1.017,-5.509 -3.463,-9.696 -7.967,-12.936c-4.505,-3.237 -9.471,-4.449 -14.902,-3.633c-5.619,0.804 -10.058,3.589 -13.319,8.352c-3.26,4.764 -4.371,9.956 -3.334,15.578c0.997,5.398 3.713,9.71 8.154,12.937c4.442,3.226 9.321,4.443 14.64,3.648c2.021,-0.312 5.272,-1.408 7.919,-3.019c4.961,5.179 12.278,3.254 12.278,3.254c0,0 -4.421,-3.105 -4.354,-10.936zm-6.62,-0.743c-2.42,3.686 -5.765,5.829 -10.034,6.431c-3.957,0.544 -7.602,-0.451 -10.935,-2.982c-3.334,-2.531 -5.331,-5.834 -5.988,-9.907c-0.713,-4.11 0.108,-7.874 2.461,-11.292c2.353,-3.416 5.581,-5.503 9.683,-6.26c3.922,-0.723 7.545,0.101 10.873,2.468c3.328,2.368 5.412,5.574 6.249,9.614c0.881,4.267 0.111,8.243 -2.309,11.928z" fill="rgb(84,137,155)" id="svg_2"/>
   <path d="m27.77,117.548c1.345,0 2.435,-1.091 2.435,-2.435c0,-1.346 -1.09,-2.436 -2.435,-2.436l-9.056,0l0,-13.884c0,-1.439 -1.166,-2.607 -2.607,-2.607c-1.44,0 -2.607,1.168 -2.607,2.607l0,41.738c0,8.081 4.74,12.128 14.221,12.141c0.002,0 0.003,0 0.006,0c0.001,0 0.003,0 0.005,0c0.013,0 0.025,0 0.038,0l0,-0.003c1.111,-0.025 2.004,-0.978 2.004,-2.157c0,-1.177 -0.893,-2.132 -2.004,-2.158l0,-0.004c-6.037,0 -9.056,-2.903 -9.056,-8.711l0,-22.091l9.056,0z" fill="rgb(84,137,155)" id="svg_3" stroke="null"/>
   <path d="m189.418,111.786c-5.751,0.183 -10.544,2.493 -14.378,6.928l0,-19.758l-0.015,0c0.002,-0.054 0.008,-0.109 0.008,-0.163c0,-1.44 -1.168,-2.607 -2.607,-2.607c-1.439,0 -2.607,1.168 -2.607,2.607c0,0.054 0.005,0.108 0.01,0.163l-0.004,0l0,32.999l0,0.275c-0.135,5.625 1.877,10.497 6.038,14.613c4.162,4.116 9.057,6.082 14.683,5.9c5.442,-0.183 10.06,-2.265 13.858,-6.244c3.795,-3.978 5.694,-8.713 5.694,-14.201c0,-5.67 -2.044,-10.566 -6.129,-14.681c-4.087,-4.117 -8.937,-6.06 -14.551,-5.831zm11.329,30.998c-2.802,3.071 -6.225,4.698 -10.268,4.881c-4.272,0.184 -7.948,-1.316 -11.027,-4.502c-3.08,-3.186 -4.548,-6.957 -4.41,-11.311c0.091,-4.126 1.561,-7.655 4.41,-10.589c2.847,-2.933 6.27,-4.401 10.269,-4.401c4.18,0 7.729,1.478 10.647,4.434c2.917,2.957 4.423,6.499 4.515,10.623c0.045,4.173 -1.335,7.793 -4.136,10.865z" fill="rgb(84,137,155)" id="svg_4"/>
   <path d="m82.06,96.186c-1.44,0 -2.605,1.168 -2.605,2.607l0,51.27c0,1.44 1.166,2.607 2.605,2.607c1.44,0 2.607,-1.168 2.607,-2.607l0,-51.27c0,-1.439 -1.167,-2.607 -2.607,-2.607z" fill="rgb(84,137,155)" id="svg_5" stroke="null"/>
   <path d="m219.382,96.186c-1.44,0 -2.606,1.168 -2.606,2.607l0,51.27c0,1.44 1.167,2.607 2.606,2.607c1.44,0 2.607,-1.168 2.607,-2.607l0,-51.27c0,-1.439 -1.167,-2.607 -2.607,-2.607z" fill="rgb(84,137,155)" id="svg_6" stroke="null"/>
   <path d="m268.5,131.499c0,-5.129 -1.853,-9.468 -5.557,-13.402c-3.842,-3.98 -8.369,-6.129 -13.584,-6.45c-5.808,-0.319 -10.852,1.636 -15.127,5.866c-4.278,4.232 -6.347,9.274 -6.21,15.128c0.093,5.533 2.196,10.301 6.313,14.304c4.115,4.001 8.85,5.957 14.201,5.866c4.253,-0.046 8.118,-1.305 11.594,-3.774c3.425,-2.434 5.259,-4.707 6.596,-7.996c0.011,-0.025 0.02,-0.051 0.031,-0.078c0.009,-0.021 0.019,-0.043 0.028,-0.065l-0.004,-0.001c0.103,-0.278 0.162,-0.58 0.162,-0.893c0,-1.423 -1.153,-2.577 -2.577,-2.577c-1.076,0 -1.997,0.659 -2.382,1.594l-0.003,-0.001c-2.653,5.626 -7.065,8.486 -13.241,8.577c-3.978,0.046 -7.432,-1.213 -10.358,-3.774c-2.928,-2.56 -4.597,-5.807 -5.009,-9.742l32.548,-0.007c1.426,0.001 2.579,-1.152 2.579,-2.575zm-35.126,-2.22c0.731,-3.704 2.505,-6.698 5.318,-8.986c2.812,-2.286 6.093,-3.407 9.845,-3.362c3.748,0.046 6.973,1.201 9.673,3.464c2.699,2.264 4.413,5.226 5.146,8.884l-29.982,0z" fill="rgb(84,137,155)" id="svg_7"/>
   <path d="m122.292,148.505l-0.022,-0.026c-0.009,-0.011 -0.017,-0.02 -0.025,-0.031l-13.339,-15.98l11.658,-15.418l-0.001,-0.001c0.32,-0.429 0.51,-0.961 0.51,-1.538c0,-1.428 -1.156,-2.584 -2.584,-2.584c-0.823,0 -1.555,0.388 -2.029,0.988l-0.001,-0.001l-17.271,22.317l0,-37.275c0,-1.497 -1.213,-2.71 -2.709,-2.71c-1.497,0 -2.71,1.213 -2.71,2.71l0,50.286l0.07,0c-0.044,0.198 -0.07,0.404 -0.07,0.616c0,1.552 1.26,2.812 2.813,2.812c1.553,0 2.813,-1.26 2.813,-2.812c0,-0.212 -0.025,-0.418 -0.069,-0.616l0.069,0l0,-4.87l6.243,-7.89l12.544,15.161c0.058,0.079 0.119,0.154 0.187,0.225l0.026,0.032l0.002,-0.002c0.47,0.493 1.132,0.8 1.866,0.8c1.43,0 2.589,-1.159 2.589,-2.587c0,-0.608 -0.211,-1.165 -0.561,-1.605l0.001,-0.001z" fill="rgb(84,137,155)" id="svg_8"/>
  </g>
  <rect width="280" height="90.186" fill="rgb(84,137,155)" id="svg_9"/>
  <g id="Talkable Icon">
   <path d="m97,70.696c0,10.211 8.312,18.49 18.566,18.49l48.87,0c10.254,0 18.564,-8.279 18.564,-18.49l0,-48.811c0.001,-10.213 -8.31,-18.491 -18.563,-18.491l-48.871,0c-10.254,0 -18.566,8.278 -18.566,18.491l0,48.811z" fill="rgb(84,137,155)" id="svg_10"/>
   <path d="m155.891,15.916c-4.139,-2.18 -5.641,-2.894 -5.528,-4.061c0.138,-1.413 1.522,-2.232 1.522,-2.232c-14.59,-0.397 -27.37,6.386 -27.37,6.386c0,0 0.01,0 0.011,0.001c-9.106,4.607 -16.113,13.134 -18.357,23.872c-3.929,18.767 8.165,37.153 27.011,41.063c18.844,3.91 37.306,-8.133 41.232,-26.902c3.299,-15.764 -5.584,-31.311 -18.521,-38.127zm-37.271,41.278c-1.918,0 -3.474,-1.55 -3.474,-3.458c0,-1.912 1.556,-3.461 3.474,-3.461c1.919,0 3.475,1.549 3.475,3.461c0,1.908 -1.556,3.458 -3.475,3.458zm29.403,10.207c-1.972,5.493 -7.539,8.149 -7.539,8.149c0,0 -0.268,0.161 -0.472,0.161l-0.023,0c-0.202,0 -0.472,-0.161 -0.472,-0.161c0,0 -5.568,-2.655 -7.539,-8.149c-0.171,-0.478 -0.283,-0.985 -0.283,-1.522c0,-2.373 1.932,-4.297 4.313,-4.297c1.804,0 3.349,1.104 3.992,2.671c0.645,-1.566 2.189,-2.671 3.992,-2.671c2.383,0 4.315,1.924 4.315,4.297c0,0.537 -0.112,1.044 -0.284,1.522zm13.359,-10.207c-1.919,0 -3.474,-1.55 -3.474,-3.458c0,-1.912 1.555,-3.461 3.474,-3.461c1.918,0 3.474,1.549 3.474,3.461c0,1.908 -1.555,3.458 -3.474,3.458z" fill="rgb(255,255,255)" id="svg_11"/>
   <g id="null">
    <path d="m133.416,18.47c-0.893,1.16 -1.587,2.426 -1.848,3.712c-0.25,1.287 -0.101,2.538 0.44,3.634c0.526,1.098 1.325,2.081 2.306,2.901c0.986,0.813 2.083,1.527 3.265,2.113c1.178,0.593 2.443,1.032 3.719,1.427c1.279,0.393 2.598,0.683 3.933,0.881c0.667,0.099 1.339,0.174 2.014,0.228c0.673,0.065 1.349,0.112 2.027,0.135c0.677,0.026 1.356,0.026 2.036,0.013c0.339,-0.003 0.679,-0.013 1.019,-0.026l1.079,-0.054c3.264,-0.144 6.518,0.394 9.554,1.564c1.517,0.585 2.958,1.361 4.313,2.261c1.349,0.909 2.625,1.948 3.701,3.182c1.086,1.22 2.028,2.574 2.754,4.034c0.7,1.476 1.186,3.043 1.426,4.628c0.431,3.189 -0.171,6.385 -1.61,9.011l-0.013,0.024c-0.037,0.069 -0.124,0.094 -0.193,0.056c-0.06,-0.033 -0.087,-0.104 -0.068,-0.167c0.859,-2.765 1.037,-5.751 0.328,-8.548c-0.679,-2.802 -2.222,-5.359 -4.276,-7.375c-2.053,-2.027 -4.586,-3.542 -7.3,-4.515c-2.716,-0.978 -5.622,-1.399 -8.502,-1.307c-2.923,0.164 -5.893,0.018 -8.783,-0.54c-2.887,-0.558 -5.721,-1.506 -8.276,-2.999c-1.272,-0.749 -2.473,-1.637 -3.508,-2.705c-1.028,-1.065 -1.905,-2.323 -2.364,-3.759c-0.468,-1.426 -0.454,-3.018 0.075,-4.422c0.517,-1.412 1.467,-2.614 2.557,-3.598c0.058,-0.053 0.149,-0.049 0.201,0.01c0.047,0.052 0.049,0.129 0.008,0.183l-0.014,0.018z" fill="rgb(84,137,155)" id="svg_12"/>
   </g>
   <g id="null">
    <path d="m131.696,28.207c0.283,1.569 -0.08,3.252 -0.771,4.744c-0.715,1.49 -1.739,2.823 -2.924,3.959c-2.383,2.28 -5.305,3.866 -8.328,4.974c-3.034,1.106 -6.21,1.722 -9.385,1.942c-3.176,0.206 -6.363,0.044 -9.456,-0.611c3.134,-0.396 6.199,-0.764 9.206,-1.347c3.005,-0.57 5.951,-1.318 8.777,-2.341c2.817,-1.033 5.538,-2.329 7.903,-4.108c1.174,-0.893 2.279,-1.895 3.151,-3.092c0.896,-1.181 1.548,-2.562 1.827,-4.12z" fill="rgb(84,137,155)" id="svg_13"/>
   </g>
  </g>
 </g>
</svg>