<?xml version="1.0" standalone="no"?><!-- Generator: Gravit.io --><svg xmlns="http://www.w3.org/2000/svg" xmlns:xlink="http://www.w3.org/1999/xlink" style="isolation:isolate" viewBox="0 0 280 150" width="280" height="150"><g id="Logo Text Blue"><path d=" M 68.827 135.601 C 70.044 131.32 70.73 127.868 69.713 122.356 C 68.697 116.847 66.248 112.66 61.745 109.42 C 57.24 106.183 52.274 104.971 46.843 105.787 C 41.225 106.591 36.786 109.376 33.524 114.139 C 30.264 118.903 29.153 124.095 30.191 129.717 C 31.186 135.115 33.902 139.427 38.345 142.654 C 42.785 145.88 47.665 147.097 52.985 146.302 C 55.004 145.99 58.255 144.894 60.904 143.283 C 65.864 148.462 73.182 146.537 73.182 146.537 C 73.182 146.537 68.761 143.432 68.827 135.601 Z  M 62.208 134.858 C 59.788 138.544 56.442 140.687 52.172 141.289 C 48.217 141.833 44.572 140.838 41.238 138.307 C 37.904 135.776 35.908 132.473 35.25 128.4 C 34.537 124.29 35.357 120.526 37.711 117.108 C 40.063 113.692 43.292 111.605 47.395 110.848 C 51.316 110.125 54.939 110.949 58.267 113.316 C 61.596 115.684 63.678 118.89 64.517 122.93 C 65.397 127.197 64.626 131.173 62.208 134.858 Z " fill="rgb(84,137,155)"/><path d=" M 161.777 135.601 C 162.995 131.32 163.678 127.868 162.662 122.356 C 161.645 116.847 159.199 112.66 154.695 109.42 C 150.19 106.183 145.224 104.971 139.793 105.787 C 134.174 106.591 129.735 109.376 126.474 114.139 C 123.214 118.903 122.103 124.095 123.14 129.717 C 124.137 135.115 126.853 139.427 131.294 142.654 C 135.736 145.88 140.615 147.097 145.934 146.302 C 147.955 145.99 151.206 144.894 153.853 143.283 C 158.814 148.462 166.131 146.537 166.131 146.537 C 166.131 146.537 161.71 143.432 161.777 135.601 Z  M 155.157 134.858 C 152.737 138.544 149.392 140.687 145.123 141.289 C 141.166 141.833 137.521 140.838 134.188 138.307 C 130.854 135.776 128.857 132.473 128.2 128.4 C 127.487 124.29 128.308 120.526 130.661 117.108 C 133.014 113.692 136.242 111.605 140.344 110.848 C 144.266 110.125 147.889 110.949 151.217 113.316 C 154.545 115.684 156.629 118.89 157.466 122.93 C 158.347 127.197 157.577 131.173 155.157 134.858 Z " fill="rgb(84,137,155)"/><path d=" M 26.77 111.548 C 28.115 111.548 29.205 110.457 29.205 109.113 C 29.205 107.767 28.115 106.677 26.77 106.677 L 17.714 106.677 L 17.714 92.793 C 17.714 91.354 16.548 90.186 15.107 90.186 C 13.667 90.186 12.5 91.354 12.5 92.793 L 12.5 134.531 C 12.5 142.612 17.24 146.659 26.721 146.672 C 26.723 146.672 26.724 146.672 26.727 146.672 C 26.728 146.672 26.73 146.672 26.732 146.672 C 26.745 146.672 26.757 146.672 26.77 146.672 L 26.77 146.669 C 27.881 146.644 28.774 145.691 28.774 144.512 C 28.774 143.335 27.881 142.38 26.77 142.354 L 26.77 142.35 C 20.733 142.35 17.714 139.447 17.714 133.639 L 17.714 111.548 L 26.77 111.548 Z " fill="rgb(84,137,155)"/><path d=" M 188.418 105.786 C 182.667 105.969 177.874 108.279 174.04 112.714 L 174.04 92.956 L 174.025 92.956 C 174.027 92.902 174.033 92.847 174.033 92.793 C 174.033 91.353 172.865 90.186 171.426 90.186 C 169.987 90.186 168.819 91.354 168.819 92.793 C 168.819 92.847 168.824 92.901 168.829 92.956 L 168.825 92.956 L 168.825 125.955 L 168.825 126.23 C 168.69 131.855 170.702 136.727 174.863 140.843 C 179.025 144.959 183.92 146.925 189.546 146.743 C 194.988 146.56 199.606 144.478 203.404 140.499 C 207.199 136.521 209.098 131.786 209.098 126.298 C 209.098 120.628 207.054 115.732 202.969 111.617 C 198.882 107.5 194.032 105.557 188.418 105.786 Z  M 199.747 136.784 C 196.945 139.855 193.522 141.482 189.479 141.665 C 185.207 141.849 181.531 140.349 178.452 137.163 C 175.372 133.977 173.904 130.206 174.042 125.852 C 174.133 121.726 175.603 118.197 178.452 115.263 C 181.299 112.33 184.722 110.862 188.721 110.862 C 192.901 110.862 196.45 112.34 199.368 115.296 C 202.285 118.253 203.791 121.795 203.883 125.919 C 203.928 130.092 202.548 133.712 199.747 136.784 Z " fill="rgb(84,137,155)"/><path d=" M 81.06 90.186 C 79.62 90.186 78.455 91.354 78.455 92.793 L 78.455 144.063 C 78.455 145.503 79.621 146.67 81.06 146.67 C 82.5 146.67 83.667 145.502 83.667 144.063 L 83.667 92.793 C 83.667 91.354 82.5 90.186 81.06 90.186 Z " fill="rgb(84,137,155)"/><path d=" M 218.382 90.186 C 216.942 90.186 215.776 91.354 215.776 92.793 L 215.776 144.063 C 215.776 145.503 216.943 146.67 218.382 146.67 C 219.822 146.67 220.989 145.502 220.989 144.063 L 220.989 92.793 C 220.989 91.354 219.822 90.186 218.382 90.186 Z " fill="rgb(84,137,155)"/><path d=" M 267.5 125.499 C 267.5 120.37 265.647 116.031 261.943 112.097 C 258.101 108.117 253.574 105.968 248.359 105.647 C 242.551 105.328 237.507 107.283 233.232 111.513 C 228.954 115.745 226.885 120.787 227.022 126.641 C 227.115 132.174 229.218 136.942 233.335 140.945 C 237.45 144.946 242.185 146.902 247.536 146.811 C 251.789 146.765 255.654 145.506 259.13 143.037 C 262.555 140.603 264.389 138.33 265.726 135.041 C 265.737 135.016 265.746 134.99 265.757 134.963 C 265.766 134.942 265.776 134.92 265.785 134.898 L 265.781 134.897 C 265.884 134.619 265.943 134.317 265.943 134.004 C 265.943 132.581 264.79 131.427 263.366 131.427 C 262.29 131.427 261.369 132.086 260.984 133.021 L 260.981 133.02 C 258.328 138.646 253.916 141.506 247.74 141.597 C 243.762 141.643 240.308 140.384 237.382 137.823 C 234.454 135.263 232.785 132.016 232.373 128.081 L 264.921 128.074 C 266.347 128.075 267.5 126.922 267.5 125.499 Z  M 232.374 123.279 C 233.105 119.575 234.879 116.581 237.692 114.293 C 240.504 112.007 243.785 110.886 247.537 110.931 C 251.285 110.977 254.51 112.132 257.21 114.395 C 259.909 116.659 261.623 119.621 262.356 123.279 L 232.374 123.279 Z " fill="rgb(84,137,155)"/><path d=" M 121.292 142.505 L 121.27 142.479 C 121.261 142.468 121.253 142.459 121.245 142.448 L 107.906 126.468 L 119.564 111.05 L 119.563 111.049 C 119.883 110.62 120.073 110.088 120.073 109.511 C 120.073 108.083 118.917 106.927 117.489 106.927 C 116.666 106.927 115.934 107.315 115.46 107.915 L 115.459 107.914 L 98.188 130.231 L 98.188 92.956 C 98.188 91.459 96.975 90.246 95.479 90.246 C 93.982 90.246 92.769 91.459 92.769 92.956 L 92.769 143.242 L 92.839 143.242 C 92.795 143.44 92.769 143.646 92.769 143.858 C 92.769 145.41 94.029 146.67 95.582 146.67 C 97.135 146.67 98.395 145.41 98.395 143.858 C 98.395 143.646 98.37 143.44 98.326 143.242 L 98.395 143.242 L 98.395 138.372 L 104.638 130.482 L 117.182 145.643 C 117.24 145.722 117.301 145.797 117.369 145.868 L 117.395 145.9 L 117.397 145.898 C 117.867 146.391 118.529 146.698 119.263 146.698 C 120.693 146.698 121.852 145.539 121.852 144.111 C 121.852 143.503 121.641 142.946 121.291 142.506 L 121.292 142.505 Z " fill="rgb(84,137,155)"/></g><rect x="0" y="0" width="280" height="90.186" transform="matrix(1,0,0,1,0,0)" fill="rgb(84,137,155)"/><g id="Talkable Icon"><path d=" M 97 70.696 C 97 80.907 105.312 89.186 115.566 89.186 L 164.436 89.186 C 174.69 89.186 183 80.907 183 70.696 L 183 21.885 C 183.001 11.672 174.69 3.394 164.437 3.394 L 115.566 3.394 C 105.312 3.394 97 11.672 97 21.885 L 97 70.696 Z " fill="rgb(84,137,155)"/><path d=" M 155.891 15.916 C 151.752 13.736 150.25 13.022 150.363 11.855 C 150.501 10.442 151.885 9.623 151.885 9.623 C 137.295 9.226 124.515 16.009 124.515 16.009 C 124.515 16.009 124.525 16.009 124.526 16.01 C 115.42 20.617 108.413 29.144 106.169 39.882 C 102.24 58.649 114.334 77.035 133.18 80.945 C 152.024 84.855 170.486 72.812 174.412 54.043 C 177.711 38.279 168.828 22.732 155.891 15.916 Z  M 118.62 57.194 C 116.702 57.194 115.146 55.644 115.146 53.736 C 115.146 51.824 116.702 50.275 118.62 50.275 C 120.539 50.275 122.095 51.824 122.095 53.736 C 122.095 55.644 120.539 57.194 118.62 57.194 Z  M 148.023 67.401 C 146.051 72.894 140.484 75.55 140.484 75.55 C 140.484 75.55 140.216 75.711 140.012 75.711 L 139.989 75.711 C 139.787 75.711 139.517 75.55 139.517 75.55 C 139.517 75.55 133.949 72.895 131.978 67.401 C 131.807 66.923 131.695 66.416 131.695 65.879 C 131.695 63.506 133.627 61.582 136.008 61.582 C 137.812 61.582 139.357 62.686 140 64.253 C 140.645 62.687 142.189 61.582 143.992 61.582 C 146.375 61.582 148.307 63.506 148.307 65.879 C 148.307 66.416 148.195 66.923 148.023 67.401 Z  M 161.382 57.194 C 159.463 57.194 157.908 55.644 157.908 53.736 C 157.908 51.824 159.463 50.275 161.382 50.275 C 163.3 50.275 164.856 51.824 164.856 53.736 C 164.856 55.644 163.301 57.194 161.382 57.194 Z " fill="rgb(255,255,255)"/><g id="null"><path d=" M 133.416 18.47 C 132.523 19.63 131.829 20.896 131.568 22.182 C 131.318 23.469 131.467 24.72 132.008 25.816 C 132.534 26.914 133.333 27.897 134.314 28.717 C 135.3 29.53 136.397 30.244 137.579 30.83 C 138.757 31.423 140.022 31.862 141.298 32.257 C 142.577 32.65 143.896 32.94 145.231 33.138 C 145.898 33.237 146.57 33.312 147.245 33.366 C 147.918 33.431 148.594 33.478 149.272 33.501 C 149.949 33.527 150.628 33.527 151.308 33.514 C 151.647 33.511 151.987 33.501 152.327 33.488 L 153.406 33.434 C 156.67 33.29 159.924 33.828 162.96 34.998 C 164.477 35.583 165.918 36.359 167.273 37.259 C 168.622 38.168 169.898 39.207 170.974 40.441 C 172.06 41.661 173.002 43.015 173.728 44.475 C 174.428 45.951 174.914 47.518 175.154 49.103 C 175.585 52.292 174.983 55.488 173.544 58.114 L 173.531 58.138 C 173.494 58.207 173.407 58.232 173.338 58.194 C 173.278 58.161 173.251 58.09 173.27 58.027 C 174.129 55.262 174.307 52.276 173.598 49.479 C 172.919 46.677 171.376 44.12 169.322 42.104 C 167.269 40.077 164.736 38.562 162.022 37.589 C 159.306 36.611 156.4 36.19 153.52 36.282 C 150.597 36.446 147.627 36.3 144.737 35.742 C 141.85 35.184 139.016 34.236 136.461 32.743 C 135.189 31.994 133.988 31.106 132.953 30.038 C 131.925 28.973 131.048 27.715 130.589 26.279 C 130.121 24.853 130.135 23.261 130.664 21.857 C 131.181 20.445 132.131 19.243 133.221 18.259 C 133.279 18.206 133.37 18.21 133.422 18.269 C 133.469 18.321 133.471 18.398 133.43 18.452 L 133.416 18.47 Z " fill="rgb(84,137,155)"/></g><g id="null"><path d=" M 131.696 28.207 C 131.979 29.776 131.616 31.459 130.925 32.951 C 130.21 34.441 129.186 35.774 128.001 36.91 C 125.618 39.19 122.696 40.776 119.673 41.884 C 116.639 42.99 113.463 43.606 110.288 43.826 C 107.112 44.032 103.925 43.87 100.832 43.215 C 103.966 42.819 107.031 42.451 110.038 41.868 C 113.043 41.298 115.989 40.55 118.815 39.527 C 121.632 38.494 124.353 37.198 126.718 35.419 C 127.892 34.526 128.997 33.524 129.869 32.327 C 130.765 31.146 131.417 29.765 131.696 28.207 Z " fill="rgb(84,137,155)"/></g></g></svg>