<?xml version="1.0" encoding="UTF-8" standalone="no"?>
<svg
   xmlns:dc="http://purl.org/dc/elements/1.1/"
   xmlns:cc="http://creativecommons.org/ns#"
   xmlns:rdf="http://www.w3.org/1999/02/22-rdf-syntax-ns#"
   xmlns:svg="http://www.w3.org/2000/svg"
   xmlns="http://www.w3.org/2000/svg"
   xmlns:sodipodi="http://sodipodi.sourceforge.net/DTD/sodipodi-0.dtd"
   xmlns:inkscape="http://www.inkscape.org/namespaces/inkscape"
   width="328.80484"
   height="509.05505"
   viewBox="0 0 328.80484 509.05505"
   version="1.1"
   id="svg4580"
   sodipodi:docname="story_white.svg"
   inkscape:version="0.92.2 (5c3e80d, 2017-08-06)">
  <metadata
     id="metadata4586">
    <rdf:RDF>
      <cc:Work
         rdf:about="">
        <dc:format>image/svg+xml</dc:format>
        <dc:type
           rdf:resource="http://purl.org/dc/dcmitype/StillImage" />
        <dc:title></dc:title>
      </cc:Work>
    </rdf:RDF>
  </metadata>
  <defs
     id="defs4584" />
  <sodipodi:namedview
     pagecolor="#ffffff"
     bordercolor="#666666"
     borderopacity="1"
     objecttolerance="10"
     gridtolerance="10"
     guidetolerance="10"
     inkscape:pageopacity="0"
     inkscape:pageshadow="2"
     inkscape:window-width="1918"
     inkscape:window-height="1028"
     id="namedview4582"
     showgrid="false"
     inkscape:zoom="0.78666667"
     inkscape:cx="-42.446874"
     inkscape:cy="187.87287"
     inkscape:window-x="-7"
     inkscape:window-y="1060"
     inkscape:window-maximized="0"
     inkscape:current-layer="svg4580"
     fit-margin-top="0"
     fit-margin-left="0"
     fit-margin-right="0"
     fit-margin-bottom="0"
     inkscape:pagecheckerboard="true"
     inkscape:showpageshadow="false" />
  <path
     id="path4578"
     style="color:#000000;font-style:normal;font-variant:normal;font-weight:normal;font-stretch:normal;font-size:medium;line-height:normal;font-family:sans-serif;font-variant-ligatures:normal;font-variant-position:normal;font-variant-caps:normal;font-variant-numeric:normal;font-variant-alternates:normal;font-feature-settings:normal;text-indent:0;text-align:start;text-decoration:none;text-decoration-line:none;text-decoration-style:solid;text-decoration-color:#000000;letter-spacing:normal;word-spacing:normal;text-transform:none;writing-mode:lr-tb;direction:ltr;text-orientation:mixed;dominant-baseline:auto;baseline-shift:baseline;text-anchor:start;white-space:normal;shape-padding:0;clip-rule:nonzero;display:inline;overflow:visible;visibility:visible;opacity:1;isolation:auto;mix-blend-mode:normal;color-interpolation:sRGB;color-interpolation-filters:linearRGB;solid-color:#000000;solid-opacity:1;vector-effect:none;fill:#ffffff;fill-opacity:1;fill-rule:nonzero;stroke:none;stroke-width:11.5909996;stroke-linecap:round;stroke-linejoin:round;stroke-miterlimit:10;stroke-dasharray:none;stroke-dashoffset:0;stroke-opacity:1;color-rendering:auto;image-rendering:auto;shape-rendering:auto;text-rendering:auto;enable-background:accumulate"
     d="m 234.97484,269.22266 c -16.44777,0.24449 -28.68286,6.18255 -36.95312,12.94336 a 5.7960794,5.7960794 0 1 0 7.33594,8.97265 c 6.57707,-5.37665 15.98682,-10.12176 29.79101,-10.32617 a 5.7960794,5.7960794 0 0 0 0.004,0 c 19.47222,-0.30083 39.25981,6.10159 53.42383,12.2832 a 5.7960794,5.7960794 0 1 0 4.63476,-10.62304 c -15.06309,-6.574 -36.15006,-13.59028 -58.23242,-13.25 z m 0,27.71289 c -16.44777,0.24449 -28.68286,6.1806 -36.95312,12.9414 a 5.7960794,5.7960794 0 1 0 7.33594,8.97461 c 6.57707,-5.37664 15.98682,-10.12176 29.79101,-10.32617 a 5.7960794,5.7960794 0 0 0 0.004,0 c 19.47463,-0.29993 39.26372,6.09002 53.43359,12.24219 a 5.7960794,5.7960794 0 1 0 4.61524,-10.63086 c -15.05724,-6.53744 -36.14271,-13.54035 -58.22266,-13.20117 z m 0.002,25.85351 c -16.44936,0.24467 -28.68391,6.17986 -36.95508,12.94141 a 5.7960794,5.7960794 0 1 0 7.33594,8.97461 c 6.57549,-5.37536 15.98509,-10.11905 29.78515,-10.32617 6.70244,-0.0912 13.40982,0.5535 19.88282,1.75976 a 5.7960794,5.7960794 0 1 0 2.12304,-11.39453 c -7.157,-1.33373 -14.6145,-2.05784 -22.16406,-1.95508 a 5.7960794,5.7960794 0 0 0 -0.008,0 z M 285.11352,0 c -4.67663,0 -8.68946,3.965479 -8.68946,8.689453 0,4.751858 3.90848,8.703125 8.68946,8.703125 3.98437,0 7.2187,-2.792805 8.23437,-6.458985 a 5.7960794,5.7960794 0 0 0 0.45899,-2.24414 C 293.80688,3.961631 289.78771,0 285.11352,0 Z m 0,5.800781 c 1.59698,0 2.90039,1.320814 2.90039,2.888672 0,1.475974 -1.40777,2.902344 -2.90039,2.902344 -1.4902,0 -2.89844,-1.424523 -2.89844,-2.902344 l 2.88086,-2.88086 c 0.007,-4.9e-5 0.0107,-0.0078 0.0176,-0.0078 z m -81.13868,24.132812 c -7.37782,0 -13.50976,6.089556 -13.50976,13.488282 0,7.410097 6.12873,13.535772 13.50391,13.539062 7.09774,0.01064 12.96463,-5.629034 13.45117,-12.613281 a 5.7960794,5.7960794 0 0 0 0.0957,-0.925781 c 0,-0.002 0,-0.0039 0,-0.0059 0,-0.002 0,-0.0039 0,-0.0059 a 5.7960794,5.7960794 0 0 0 -0.0977,-0.939453 c -0.50823,-6.960692 -6.3844,-12.53711 -13.44336,-12.53711 z m 0,11.591797 c 1.16254,0 1.94922,0.796738 1.94922,1.896485 a 5.7960794,5.7960794 0 0 0 0,0.0098 c 0.002,1.140811 -0.79669,1.941669 -1.9375,1.939453 a 5.7960794,5.7960794 0 0 0 -0.0117,0 c -1.12617,0 -1.91796,-0.751306 -1.91796,-1.949218 0,-1.105275 0.79179,-1.896485 1.91796,-1.896485 z m 71.49219,9.634766 c -4.14529,0 -7.71576,3.458357 -7.73437,7.666015 -0.0274,4.225208 3.52081,7.791138 7.74804,7.777348 4.22781,-0.009 7.70313,-3.55651 7.70313,-7.746098 l -0.29492,1.824218 a 5.7960794,5.7960794 0 0 0 0.29687,-1.826171 c 0,-4.305117 -3.4797,-7.695312 -7.71875,-7.695312 z m -0.0176,3.861328 c 2.06727,-0.0011 3.86253,1.803282 3.85938,3.869141 -0.0205,2.132294 -1.87655,3.859374 -3.8418,3.859374 -2.14504,0 -3.87304,-1.65941 -3.87304,-3.894531 10e-4,-2.009077 1.72254,-3.824484 3.85546,-3.833984 z M 125.73852,72.441409 c -4.25516,0 -7.72266,3.35328 -7.72266,7.69726 0,4.23244 3.46959,7.75 7.72266,7.75 4.16709,0 7.74023,-3.6116 7.74023,-7.75 0,-4.24329 -3.56958,-7.69726 -7.74023,-7.69726 z m 0,3.85742 c 2.16907,0 3.86718,1.7854 3.86718,3.83984 0,2.27199 -1.69403,3.89258 -3.86718,3.89258 -2.00266,0 -3.85157,-1.72129 -3.85157,-3.89258 0,-1.95839 1.85248,-3.83984 3.85157,-3.83984 z m 127.42187,6.6582 a 5.7960794,5.7960794 0 0 0 -5.70898,5.87695 v 6.78907 h -5.80664 a 5.7960794,5.7960794 0 1 0 0,11.589841 h 5.80664 v 6.74805 a 5.7960794,5.7960794 0 1 0 11.59179,0 v -6.74805 h 3.83985 a 5.7960794,5.7960794 0 1 0 0,-11.589841 h -3.83985 v -6.78907 a 5.7960794,5.7960794 0 0 0 -5.88281,-5.87695 z m -82.98633,41.648441 c -4.15912,0 -7.69335,3.45926 -7.71289,7.66406 -0.0285,4.20946 3.49569,7.77152 7.70899,7.77344 a 5.7960794,5.7960794 0 0 0 0.002,0 c 3.33972,0 6.20503,-2.36034 7.23828,-5.42383 a 5.7960794,5.7960794 0 0 0 0.48828,-2.3164 c 0,-4.2206 -3.56728,-7.69727 -7.72461,-7.69727 z m -0.002,3.8457 h 0.004 c 2.07409,9.5e-4 3.86914,1.81722 3.86328,3.88867 -0.0223,2.10904 -1.83318,3.85547 -3.86524,3.85547 -2.01732,0 -3.86523,-1.76598 -3.86523,-3.89257 l 0.99219,-2.39844 c 0.72879,-0.84934 1.75704,-1.45313 2.87109,-1.45313 z m 30.82227,17.31055 a 5.7960794,5.7960794 0 0 0 -5.70899,5.87695 v 6.24414 h -6.74609 a 5.7960794,5.7960794 0 1 0 0,11.5918 h 6.74609 v 6.29687 a 5.7960794,5.7960794 0 1 0 11.5918,0 v -6.29687 h 5.79492 a 5.7960794,5.7960794 0 1 0 0,-11.5918 h -5.79492 v -6.24414 a 5.7960794,5.7960794 0 0 0 -5.88281,-5.87695 z m -47.40625,23.89844 a 5.7960794,5.7960794 0 0 0 -5.70703,5.8789 v 6.24219 l -3.97461,0.0547 a 5.7960794,5.7960794 0 1 0 0.1582,11.58984 l 3.81641,-0.0527 v 5.84961 a 5.7960794,5.7960794 0 1 0 11.58984,0 v -6.00782 l 3.92383,-0.0547 a 5.7960794,5.7960794 0 1 0 -0.15821,-11.58985 l -3.76562,0.0508 v -6.08203 a 5.7960794,5.7960794 0 0 0 -5.88281,-5.8789 z M 262.883,179.89063 c -4.19845,0 -7.71875,3.54157 -7.71875,7.74023 0,4.28333 3.52399,7.69531 7.71875,7.69531 4.11536,0 7.73828,-3.49686 7.73828,-7.69531 0,-4.12246 -3.61404,-7.74023 -7.73828,-7.74023 z m -169.029298,1.94726 c -4.19979,0.003 -7.72783,3.3684 -7.73242,7.6875 -0.005,4.21102 3.53529,7.75033 7.74609,7.74414 4.16624,-0.004 7.738278,-3.50082 7.738278,-7.73633 a 5.7960794,5.7960794 0 0 0 -0.46289,-2.26757 c -0.99221,-3.16648 -3.860058,-5.43145 -7.289058,-5.42774 z M 262.883,183.73438 c 2.10076,0 3.87305,1.70715 3.87305,3.89648 0,2.01866 -1.7686,3.85156 -3.87305,3.85156 -1.94825,0 -3.85156,-1.9071 -3.85156,-3.85156 0,-2.10445 1.9142,-3.89648 3.85156,-3.89648 z m -169.029298,1.94921 c 2.06112,-5.1e-4 3.85606,1.79419 3.85547,3.85547 -0.003,2.23369 -1.74693,3.85735 -3.80664,3.88086 l -3.88672,-3.88672 c 0,-2.05488 1.79636,-3.8448 3.83789,-3.84961 z M 240.08026,450.06641 c -31.53197,0.48761 -46.06158,21.3156 -50.4414,29.01367 h -32.2461 c -5.15232,-4.74157 -32.42156,-27.52227 -79.851558,-20.20703 -40.44727,6.21713 -72.3164103,40.3457 -72.3164103,40.3457 a 5.7960794,5.7960794 0 1 0 8.3847703,8.00391 c 0,0 30.79548,-31.53089 65.69531,-36.89453 a 5.7960794,5.7960794 0 0 0 0.002,0 c 47.822778,-7.37582 71.820308,18.54492 71.820308,18.54492 a 5.7960794,5.7960794 0 0 0 4.19726,1.79883 h 37.66993 a 5.7960794,5.7960794 0 0 0 5.34375,-3.55469 c 0,0 9.77801,-24.96183 41.91797,-25.46094 36.6931,-0.55026 73.83593,22.75977 73.83593,22.75977 a 5.7960794,5.7960794 0 1 0 6.24805,-9.76368 c 0,0 -38.66491,-25.20967 -80.25781,-24.58593 a 5.7960794,5.7960794 0 0 0 -0.002,0 z M 232.48852,206.4668 c -34.39744,0.004 -58.79896,19.17909 -70.8125,31.17578 -12.5931,-10.29308 -37.29261,-25.90154 -72.564458,-26.10352 h -0.01 c -53.7139,-0.34487 -79.4537803,31.91565 -87.1191403,44.00391 a 11.592159,11.592159 0 0 0 -1.80273998,6.19727 L 1.7243138e-6,465.04102 A 11.592159,11.592159 0 0 0 19.173822,473.81641 c 0,0 34.37384,-27.7079 61.74024,-29.06836 27.666858,-1.35549 44.686988,3.48887 77.013668,20.46679 A 11.592159,11.592159 0 0 0 174.9082,454.95313 V 288.7793 a 11.592159,11.592159 0 1 0 -23.1836,0 V 436.41406 C 126.27433,424.86043 105.5197,420.33264 79.779292,421.59375 a 11.592159,11.592159 0 0 0 -0.006,0 c -22.06923,1.0942 -42.43706,11.33307 -56.57226,20.42383 l 0.15625,-176.7461 c 7.10811,-10.47521 24.4916,-30.81785 65.60351,-30.55078 a 11.592159,11.592159 0 0 0 0.01,0 c 42.541548,0.24004 64.640618,26.77539 64.640618,26.77539 a 11.592159,11.592159 0 0 0 18.16407,-0.59961 c 0,0 23.65547,-31.24804 60.72265,-31.24804 a 11.592159,11.592159 0 0 0 0.0117,0 c 36.53138,-0.033 63.93092,19.30489 72.3457,25.93945 l 0.68946,175.11719 c -13.74698,-6.50555 -34.51431,-14.08252 -61.2793,-16.75781 -30.29919,-3.07098 -55.01758,17.11132 -55.01758,17.11132 a 11.592159,11.592159 0 1 0 14.02735,18.45508 c 0,0 20.68554,-14.32493 38.65234,-12.5039 a 11.592159,11.592159 0 0 0 0.0176,0.002 c 44.33807,4.4276 68.29883,22.71484 68.29883,22.71484 a 11.592159,11.592159 0 0 0 18.56054,-9.30664 l -0.78906,-200.48828 a 11.592159,11.592159 0 0 0 -3.79297,-8.53125 c 0,0 -37.89214,-34.97785 -91.72461,-34.93359 z"
     inkscape:connector-curvature="0" />
</svg>
