<!-- Generated by IcoMoon.io -->
<svg version="1.1" xmlns="http://www.w3.org/2000/svg" width="1024" height="1024" viewBox="0 0 1024 1024">
<title></title>
<g id="icomoon-ignore">
</g>
<path d="M381.244 789.737c-26.275-1.745-53.195-10.9-75.474-25.67-65.371-43.34-88.408-128.358-53.754-198.382 8.19-16.55 15.949-27.383 29.354-40.985 12.56-12.745 25.117-21.829 41.334-29.904 58.624-29.19 129.292-18.3 176.735 27.238 13.496 12.953 23.060 26.045 31.704 43.395 21.517 43.192 21.678 93.262 0.439 137.101-12.774 26.369-33.152 48.735-59.017 64.772-26.228 16.262-59.855 24.524-91.322 22.436zM348.701 721.4c5.015-1.024 11.775-4.399 63.726-31.82 65.656-34.654 64.949-34.204 70.162-44.751 2.534-5.126 2.743-6.029 2.726-11.777-0.014-5.177-0.341-6.92-1.937-10.356-2.18-4.689-6.713-9.923-11.369-13.126-4.754-3.273-111.261-59.518-115.88-61.197-2.202-0.802-6.502-1.613-9.555-1.805-9.779-0.619-16.236 2.786-20.061 10.578l-2.048 4.173-0.213 69.658c-0.213 73.921-0.171 75.496 3.204 82.565 2.624 5.531 7.451 8.704 13.586 8.931 1.118 0.041 4.557-0.439 7.643-1.071zM53.074 412.154c-0.174-0.004-0.378-0.007-0.583-0.007-7.602 0-14.428 3.323-19.104 8.596l-0.023 0.027c-20.751 22.818-33.359 53.314-33.359 86.402v260.23c0 70.623 57.796 128.417 128.408 128.417h517.028c70.623 0 128.507-57.769 128.507-128.417v-150.074c0-21.533 7.547-21.665 11.385-21.665 2.24-0.001 4.412-0.291 6.481-0.833l-0.178 0.040 174.709-44.512c2.261 1.161 6.608 5.322 6.608 14.749v190.129c0 8.71-3.785 13.017-6.151 14.548l-139.637-43.877c-2.365-0.799-5.090-1.26-7.922-1.26-14.097 0-25.525 11.428-25.525 25.525 0 11.464 7.558 21.163 17.962 24.386l0.181 0.048 145.676 45.773c2.287 0.744 4.918 1.173 7.65 1.173v0c35.275 0 58.813-32.479 58.813-66.316v-190.129c0-33.835-23.539-66.316-58.813-66.316-2.239 0.001-4.409 0.291-6.477 0.833l0.178-0.040-179.473 45.724c-30.38 3.499-56.509 33.002-56.509 72.019v150.074c0 43.013-34.421 77.37-77.464 77.37h-517.028c-43.026 0-77.365-34.332-77.365-77.37v-260.23c0-20.221 7.548-38.275 20.082-52.058 4.267-4.551 6.888-10.69 6.888-17.441 0-13.893-11.099-25.193-24.913-25.518l-0.030-0.001zM182.753 64.181c-100.638 0-182.753 82.159-182.753 182.797 0 100.66 82.127 182.775 182.753 182.775h359.703c100.632 0 182.752-82.117 182.752-182.775 0-99.367-75.732-182.301-176.262-182.301-100.625 0-176.87 82.835-176.87 182.301 0 48.475 24.679 99.153 75.433 115.945 2.491 0.892 5.365 1.407 8.359 1.407 14.097 0 25.525-11.428 25.525-25.525 0-11.356-7.416-20.981-17.67-24.294l-0.181-0.050c-26.434-8.746-40.423-35.325-40.423-67.483 0-74.228 52.576-131.258 125.827-131.258 73.119 0 125.214 56.936 125.214 131.258 0 73.086-58.653 131.732-131.705 131.732h-359.703c-73.045 0-131.71-58.647-131.71-131.732 0-73.056 58.672-131.75 131.71-131.75 75.070 0 121.224 46.267 121.224 121.376 0 15.579-4.113 33.892-11.077 47.862-6.962 13.97-16.099 22.552-24.094 25.213-10.454 3.352-17.889 12.986-17.889 24.356 0 14.097 11.428 25.525 25.525 25.525 3.040 0 5.956-0.531 8.66-1.506l-0.178 0.056c25.502-8.489 42.684-28.841 53.664-50.873s16.436-46.793 16.436-70.633c0-98.585-73.666-172.423-172.271-172.423zM699.848 387.559c-0.147-0.003-0.32-0.005-0.494-0.005-14.097 0-25.525 11.428-25.525 25.525 0 10.584 6.442 19.664 15.62 23.532l0.168 0.063c11.465 4.921 16.643 9.954 21.795 20.529s8.993 27.741 10.875 52.318c0.855 13.402 11.934 23.948 25.476 23.948 14.097 0 25.525-11.428 25.525-25.525 0-0.818-0.038-1.626-0.114-2.424l0.008 0.102c-2.116-27.645-6.105-50.703-15.881-70.771s-26.624-36.097-47.554-45.080c-2.908-1.331-6.301-2.137-9.874-2.21h-0.026z"></path>
</svg>