<?xml version="1.0" encoding="utf-8"?>
<!-- Generator: Adobe Illustrator 15.0.0, SVG Export Plug-In . SVG Version: 6.00 Build 0)  -->
<!DOCTYPE svg PUBLIC "-//W3C//DTD SVG 1.1//EN" "http://www.w3.org/Graphics/SVG/1.1/DTD/svg11.dtd">
<svg version="1.1" id="Layer_1" xmlns="http://www.w3.org/2000/svg" xmlns:xlink="http://www.w3.org/1999/xlink" x="0px" y="0px"
	 width="600px" height="600px" viewBox="0 0 600 600" enable-background="new 0 0 600 600" xml:space="preserve">
<path fill="none" stroke="#000000" stroke-width="11.7655" stroke-linecap="round" stroke-linejoin="round" stroke-miterlimit="10" d="
	M229.907,417.447c-1.61,0.044-3.215,0.044-4.825,0.044c-68.11,0-126.206-42.876-148.771-103.136l-2.847-7.905
	c-22.658,0.412-28.541-7.352-28.541-20.592c0-14.704,8.09-17.643,27.207-19.118c180.896-18.38,219.181-122.622,219.181-122.622
	s6.571,61.083,92.605,122.123c3.991-104.654-71.092-166.42-158.834-166.42c-82.224,0-154.421,64.705-158.559,147.942"/>
<path d="M340.433,283.657c0,9.607-7.764,17.415-17.415,17.415c-9.607,0-17.415-7.808-17.415-17.415
	c0-9.608,7.808-17.416,17.415-17.416C332.669,266.242,340.433,274.049,340.433,283.657z"/>
<path d="M186.429,289.534c0,9.607-7.764,17.426-17.416,17.426c-9.607,0-17.377-7.818-17.377-17.426
	c0-9.597,7.77-17.415,17.377-17.415C178.665,272.119,186.429,279.938,186.429,289.534z"/>
<path d="M253.119,352.276c-3.313,4.175-3.676,13.284-2.532,24.496c0.922,8.816,3.356,21.915,7.45,35.611
	c13.235,44.123,64.981,121.245,167.152,121.245c85.069,0,129.931-52.896,129.931-121.332c0-71.146-46.336-121.288-122.807-121.147
	c-84.246,0.184-96.977,71.558-96.977,71.558s-5.877-1.29-59.516-12.459C275.451,350.205,258.725,345.195,253.119,352.276z"/>
<g>
	<path fill="#FFFFFF" d="M394.901,346.432c-0.683,3.86-4.37,6.441-8.23,5.747c-3.817-0.683-6.387-4.359-5.692-8.22
		c0.639-3.816,4.315-6.397,8.176-5.703C393.015,338.896,395.541,342.625,394.901,346.432z"/>
	<path fill="#FFFFFF" d="M387.777,386.792c-0.694,3.86-4.359,6.431-8.22,5.737c-3.86-0.641-6.441-4.359-5.747-8.177
		c0.683-3.86,4.359-6.431,8.219-5.747C385.847,379.299,388.428,382.976,387.777,386.792z"/>
	<path fill="#FFFFFF" d="M380.609,427.186c-0.64,3.816-4.327,6.387-8.188,5.747c-3.86-0.694-6.43-4.37-5.747-8.23
		c0.694-3.817,4.381-6.387,8.188-5.747C378.723,419.649,381.293,423.325,380.609,427.186z"/>
	<path fill="#FFFFFF" d="M373.484,467.535c-0.65,3.86-4.315,6.441-8.176,5.747c-3.86-0.683-6.441-4.315-5.747-8.176
		s4.359-6.441,8.176-5.747C371.598,460.042,374.179,463.675,373.484,467.535z"/>
</g>
<line fill="none" stroke="#FFFFFF" stroke-width="11.7655" stroke-linecap="round" stroke-linejoin="round" stroke-miterlimit="10" x1="421.241" y1="351.084" x2="503.047" y2="365.561"/>
<line fill="none" stroke="#FFFFFF" stroke-width="11.7655" stroke-linecap="round" stroke-linejoin="round" stroke-miterlimit="10" x1="414.105" y1="391.477" x2="495.922" y2="405.91"/>
<line fill="none" stroke="#FFFFFF" stroke-width="11.7655" stroke-linecap="round" stroke-linejoin="round" stroke-miterlimit="10" x1="406.949" y1="431.826" x2="488.798" y2="446.26"/>
<line fill="none" stroke="#FFFFFF" stroke-width="11.7655" stroke-linecap="round" stroke-linejoin="round" stroke-miterlimit="10" x1="399.813" y1="472.23" x2="481.674" y2="486.653"/>
</svg>
