<!-- Generated by IcoMoon.io -->
<svg version="1.1" xmlns="http://www.w3.org/2000/svg" width="660" height="1024" viewBox="0 0 660 1024">
<title></title>
<g id="icomoon-ignore">
</g>
<path d="M472.668 541.56c-33.086 0.492-57.698 12.437-74.334 26.036-2.727 2.154-4.461 5.46-4.461 9.172 0 6.439 5.22 11.659 11.659 11.659 2.892 0 5.537-1.053 7.575-2.795l-0.016 0.013c13.23-10.816 32.159-20.361 59.927-20.772 0.001 0 0.003 0 0.004 0s0.003 0 0.004 0v0c39.17-0.605 78.974 12.274 107.466 24.709 1.427 0.671 3.1 1.063 4.864 1.063 6.439 0 11.659-5.22 11.659-11.659 0-4.83-2.937-8.975-7.123-10.744l-0.077-0.029c-30.3-13.224-72.718-27.338-117.139-26.653zM472.668 597.307c-33.086 0.492-57.698 12.433-74.334 26.033-2.684 2.155-4.387 5.435-4.387 9.113 0 6.439 5.22 11.659 11.659 11.659 2.857 0 5.474-1.028 7.502-2.734l-0.018 0.015c13.23-10.815 32.159-20.361 59.927-20.772 0.001 0 0.003 0 0.004 0s0.003 0 0.004 0v0c39.175-0.603 78.982 12.251 107.485 24.626 1.43 0.674 3.105 1.067 4.873 1.067 6.439 0 11.659-5.22 11.659-11.659 0-4.849-2.96-9.006-7.171-10.764l-0.077-0.029c-30.289-13.151-72.704-27.237-117.119-26.555zM472.672 649.313c-33.089 0.492-57.7 12.431-74.338 26.033-2.684 2.155-4.387 5.435-4.387 9.113 0 6.439 5.22 11.659 11.659 11.659 2.857 0 5.474-1.028 7.502-2.734l-0.018 0.015c13.227-10.813 32.155-20.355 59.915-20.772 13.482-0.183 26.975 1.113 39.996 3.54 0.698 0.148 1.5 0.233 2.322 0.233 6.439 0 11.659-5.22 11.659-11.659 0-5.751-4.163-10.529-9.641-11.485l-0.070-0.010c-14.397-2.683-29.398-4.139-44.585-3.933-0.002 0-0.005 0-0.008 0s-0.006 0-0.008 0v0zM573.526 0c-9.407 0-17.479 7.977-17.479 17.479 0 9.559 7.862 17.507 17.479 17.507 8.015 0 14.521-5.618 16.564-12.993 0.579-1.332 0.919-2.883 0.923-4.512v-0.002c0-9.51-8.085-17.479-17.487-17.479zM573.526 11.669c3.212 0 5.834 2.657 5.834 5.811 0 2.969-2.832 5.838-5.834 5.838-2.998 0-5.83-2.866-5.83-5.838l5.795-5.795c0.014 0 0.022-0.016 0.035-0.016zM410.31 60.214c-14.841 0-27.176 12.25-27.176 27.133 0 14.906 12.328 27.228 27.164 27.235 14.278 0.021 26.079-11.323 27.058-25.373 0.108-0.551 0.177-1.193 0.192-1.849v-0.014c0-0.004 0-0.008 0-0.012s0-0.008 0-0.012c-0.015-0.678-0.086-1.33-0.208-1.963l0.012 0.073c-1.022-14.002-12.843-25.219-27.042-25.219zM410.31 83.531c2.339 0 3.921 1.603 3.921 3.815 0 0.003 0 0.006 0 0.010s0 0.007 0 0.010v-0.001c0.004 2.295-1.603 3.906-3.897 3.901-0.003 0-0.008 0-0.012 0s-0.008 0-0.012 0h0.001c-2.265 0-3.858-1.511-3.858-3.921 0-2.223 1.593-3.815 3.858-3.815zM554.121 102.912c-8.339 0-15.521 6.957-15.558 15.421-0.055 8.499 7.082 15.672 15.586 15.645 8.505-0.018 15.495-7.154 15.495-15.582l-0.593 3.67c0.378-1.096 0.596-2.359 0.597-3.673v-0.001c0-8.66-7-15.48-15.527-15.48zM554.086 110.68c4.158-0.002 7.77 3.627 7.763 7.783-0.041 4.289-3.775 7.763-7.728 7.763-4.315 0-7.791-3.338-7.791-7.834 0.002-4.041 3.465-7.693 7.756-7.712zM252.932 145.721c-8.56 0-15.535 6.745-15.535 15.484 0 8.514 6.979 15.59 15.535 15.59 8.382 0 15.57-7.265 15.57-15.59 0-8.536-7.18-15.484-15.57-15.484zM252.932 153.48c4.363 0 7.779 3.591 7.779 7.724 0 4.57-3.408 7.83-7.779 7.83-4.028 0-7.748-3.462-7.748-7.83 0-3.939 3.726-7.724 7.748-7.724zM509.25 166.874c-6.364 0.098-11.485 5.28-11.485 11.658 0 0.058 0 0.115 0.001 0.173v-0.009 13.657h-11.68c-0.069-0.001-0.151-0.002-0.233-0.002-6.439 0-11.659 5.22-11.659 11.659s5.22 11.659 11.659 11.659c0.082 0 0.164-0.001 0.245-0.003h11.668v13.574c0 0.028 0 0.060 0 0.093 0 6.439 5.22 11.659 11.659 11.659s11.659-5.22 11.659-11.659c0-0.033 0-0.065 0-0.098v0.005-13.574h7.724c0.069 0.001 0.151 0.002 0.233 0.002 6.439 0 11.659-5.22 11.659-11.659s-5.22-11.659-11.659-11.659c-0.082 0-0.164 0.001-0.245 0.003h-7.712v-13.657c0.001-0.049 0.001-0.106 0.001-0.164 0-6.439-5.22-11.659-11.659-11.659-0.062 0-0.123 0-0.185 0.001h0.009zM342.317 250.653c-8.366 0-15.476 6.959-15.515 15.417-0.057 8.468 7.032 15.633 15.507 15.637 0.001 0 0.001 0 0.002 0s0.001 0 0.002 0v0c6.718 0 12.482-4.748 14.56-10.91 0.617-1.372 0.979-2.973 0.982-4.658v-0.001c0-8.49-7.176-15.484-15.539-15.484zM342.313 258.389h0.008c4.172 0.002 7.783 3.655 7.771 7.822-0.045 4.242-3.688 7.756-7.775 7.756-4.058 0-7.775-3.552-7.775-7.83l1.996-4.825c1.466-1.709 3.534-2.923 5.775-2.923zM404.314 293.21c-6.364 0.098-11.485 5.28-11.485 11.658 0 0.058 0 0.115 0.001 0.173v-0.009 12.561h-13.57c-0.027 0-0.059 0-0.092 0-6.439 0-11.659 5.22-11.659 11.659s5.22 11.659 11.659 11.659c0.032 0 0.064 0 0.097 0h13.565v12.667c0 0.027 0 0.059 0 0.092 0 6.439 5.22 11.659 11.659 11.659s11.659-5.22 11.659-11.659c0-0.032 0-0.064 0-0.097v0.005-12.667h11.657c0.027 0 0.059 0 0.092 0 6.439 0 11.659-5.22 11.659-11.659s-5.22-11.659-11.659-11.659c-0.032 0-0.064 0-0.097 0h-11.652v-12.561c0.001-0.049 0.001-0.106 0.001-0.164 0-6.439-5.22-11.659-11.659-11.659-0.062 0-0.123 0-0.185 0.001h0.009zM308.953 341.283c-6.362 0.1-11.481 5.281-11.481 11.658 0 0.059 0 0.118 0.001 0.177v-0.009 12.557l-7.995 0.11c-0.003 0-0.007 0-0.011 0-6.439 0-11.659 5.22-11.659 11.659s5.22 11.659 11.659 11.659c0.116 0 0.231-0.002 0.346-0.005h-0.017l7.677-0.106v11.767c-0.001 0.069-0.002 0.151-0.002 0.233 0 6.439 5.22 11.659 11.659 11.659s11.659-5.22 11.659-11.659c0-0.082-0.001-0.164-0.003-0.245v0.012-12.085l7.893-0.11c0.003 0 0.007 0 0.011 0 6.439 0 11.659-5.22 11.659-11.659s-5.22-11.659-11.659-11.659c-0.116 0-0.231 0.002-0.346 0.005h0.017l-7.575 0.102v-12.234c0.001-0.050 0.001-0.109 0.001-0.168 0-6.439-5.22-11.659-11.659-11.659-0.062 0-0.123 0-0.185 0.001h0.009zM528.808 361.863c-8.445 0-15.527 7.124-15.527 15.57 0 8.616 7.089 15.48 15.527 15.48 8.278 0 15.566-7.034 15.566-15.48 0-8.293-7.27-15.57-15.566-15.57zM188.793 365.78c-8.448 0.006-15.545 6.776-15.554 15.464-0.010 8.471 7.111 15.59 15.582 15.578 8.381-0.008 15.566-7.042 15.566-15.562-0.001-1.648-0.343-3.216-0.96-4.637l0.029 0.075c-1.996-6.37-7.765-10.926-14.662-10.918zM528.808 369.595c4.226 0 7.791 3.434 7.791 7.838 0 4.061-3.558 7.748-7.791 7.748-3.919 0-7.748-3.836-7.748-7.748 0-4.233 3.851-7.838 7.748-7.838zM188.793 373.516c4.146-0.001 7.757 3.609 7.756 7.756-0.006 4.493-3.514 7.759-7.657 7.807l-7.818-7.818c0-4.134 3.614-7.734 7.72-7.744zM482.938 905.34c-63.429 0.981-92.656 42.878-101.466 58.363h-64.865c-10.364-9.538-65.218-55.363-160.627-40.648-81.363 12.506-145.47 81.158-145.47 81.158-2.041 2.098-3.299 4.965-3.299 8.127 0 6.439 5.22 11.659 11.659 11.659 3.352 0 6.374-1.415 8.501-3.68l0.006-0.006c0 0 61.947-63.427 132.151-74.216 0.001 0 0.001 0 0.002 0s0.001 0 0.002 0v0c96.199-14.837 144.472 37.304 144.472 37.304 2.128 2.231 5.123 3.618 8.443 3.618 0 0 0 0 0 0h75.776c4.81-0.001 8.94-2.915 10.72-7.075l0.029-0.076c0 0 19.669-50.212 84.321-51.216 73.811-1.107 148.526 45.783 148.526 45.783 1.797 1.188 4.001 1.895 6.371 1.895 6.439 0 11.659-5.22 11.659-11.659 0-4.142-2.16-7.779-5.415-9.848l-0.047-0.028c0 0-77.777-50.711-161.444-49.456-0.001 0-0.001 0-0.002 0s-0.001 0-0.002 0v0zM467.667 415.322c-69.193 0.008-118.278 38.58-142.444 62.712-25.332-20.705-75.017-52.103-145.969-52.509h-0.020c-108.049-0.694-159.827 64.201-175.246 88.517-2.271 3.531-3.622 7.84-3.626 12.465v0.001l-0.361 408.954c0 0.004 0 0.008 0 0.013 0 12.878 10.44 23.318 23.318 23.318 5.845 0 11.187-2.15 15.28-5.703l-0.029 0.024c0 0 69.145-55.736 124.195-58.473 55.654-2.727 89.891 7.018 154.918 41.17 3.143 1.683 6.875 2.672 10.839 2.672 12.877 0 23.316-10.438 23.318-23.314v0-334.27c0-0.055 0.001-0.119 0.001-0.184 0-12.878-10.44-23.318-23.318-23.318s-23.318 10.44-23.318 23.318c0 0.065 0 0.129 0.001 0.193v-0.010 296.978c-51.195-23.241-92.944-32.349-144.723-29.812-0.002 0-0.004 0-0.006 0s-0.004 0-0.006 0v0c-44.394 2.201-85.365 22.797-113.799 41.084l0.314-355.537c14.298-21.072 49.267-61.992 131.966-61.455 0.003 0 0.007 0 0.010 0s0.007 0 0.011 0h-0.001c85.575 0.483 130.029 53.861 130.029 53.861 4.305 5.058 10.676 8.245 17.791 8.245 7.657 0 14.452-3.69 18.703-9.389l0.044-0.062c0 0 47.585-62.858 122.148-62.858 0.003 0 0.008 0 0.012 0s0.008 0 0.012 0h-0.001c73.485-0.066 128.602 38.833 145.528 52.179l1.387 352.261c-27.653-13.086-69.428-28.328-123.268-33.71-60.949-6.177-110.672 34.421-110.672 34.421-5.804 4.292-9.526 11.113-9.526 18.802 0 12.878 10.44 23.318 23.318 23.318 5.468 0 10.497-1.882 14.473-5.034l-0.048 0.037c0 0 41.61-28.816 77.752-25.152-0.098-0.009-0.085-0.008-0.073-0.006l0.109 0.010c89.189 8.906 137.388 45.692 137.388 45.692 3.854 2.924 8.73 4.684 14.018 4.684 12.878 0 23.318-10.44 23.318-23.318 0-0.030 0-0.061 0-0.091v0.005l-1.587-403.296c-0.027-6.795-2.956-12.9-7.611-17.145l-0.018-0.017c0 0-76.223-70.36-184.51-70.271z"></path>
</svg>
