<svg width="1024" height="1024" xmlns="http://www.w3.org/2000/svg">
 <title/>

 <g>
  <title>background</title>
  <rect fill="none" id="canvas_background" height="402" width="582" y="-1" x="-1"/>
 </g>
 <g>
  <title>Layer 1</title>
  <g id="icomoon-ignore"/>
  <path stroke="null" id="svg_1" d="m911.586002,310.398646l-791.942005,0l0,-98.992316l791.942005,0l0,98.992316zm-98.992316,-296.978107l-593.956213,0l0,98.992316l593.956213,0l0,-98.992316zm197.985791,494.963898l0,395.970422c0,54.4456 -44.546716,98.992316 -98.992316,98.992316l-791.942005,0c-54.4456,0 -98.992316,-44.546716 -98.992316,-98.992316l0,-395.970422c0,-54.4456 44.546716,-98.992316 98.992316,-98.992316l791.942005,0c54.4456,0 98.992316,44.546716 98.992316,98.992316zm-296.978107,197.985791l-296.978107,-161.853068l0,323.210786l296.978107,-161.357718z"/>
 </g>
</svg>