<?xml version="1.0" encoding="utf-8"?>
<!-- Generator: Adobe Illustrator 15.0.0, SVG Export Plug-In . SVG Version: 6.00 Build 0)  -->
<!DOCTYPE svg PUBLIC "-//W3C//DTD SVG 1.1//EN" "http://www.w3.org/Graphics/SVG/1.1/DTD/svg11.dtd">
<svg version="1.1" id="Layer_1" xmlns="http://www.w3.org/2000/svg" xmlns:xlink="http://www.w3.org/1999/xlink" x="0px" y="0px"
	 width="600px" height="600px" viewBox="0 0 600 600" enable-background="new 0 0 600 600" xml:space="preserve">
<path fill="none" stroke="#000000" stroke-width="23.1822" stroke-linecap="round" stroke-linejoin="round" stroke-miterlimit="10" d="
	M299.545,328.46v166.175c-33.117-17.393-53.517-23.226-82.97-21.783c-33.844,1.678-68.756,31.879-68.756,31.879L148,301.432
	c6.747-10.641,28.005-38.939,77.265-38.619c47.497,0.267,73.419,30.874,73.419,30.874s26.585-35.948,70.044-35.948
	c48.768-0.043,83.926,31.921,83.926,31.921l0.791,200.488c0,0-26.943-20.276-74.119-24.987
	c-24.133-2.447-46.835,14.807-46.835,14.807"/>
<path fill="none" stroke="#000000" stroke-width="11.5911" stroke-linecap="round" stroke-linejoin="round" stroke-miterlimit="10" d="
	M453.445,519.216c0,0-37.904-24.261-77.047-23.673c-35.243,0.545-47.176,29.015-47.176,29.015h-37.669
	c0,0-26.691-28.021-76.901-20.276c-37.674,5.79-69.007,38.619-69.007,38.619"/>
<g>
	
		<line fill="none" stroke="#000000" stroke-width="11.5911" stroke-linecap="round" stroke-linejoin="round" stroke-miterlimit="10" x1="348.9" y1="203.361" x2="324.768" y2="203.361"/>
	
		<line fill="none" stroke="#000000" stroke-width="11.5911" stroke-linecap="round" stroke-linejoin="round" stroke-miterlimit="10" x1="337.31" y1="191.321" x2="337.31" y2="215.454"/>
</g>
<g>
	
		<line fill="none" stroke="#000000" stroke-width="11.5911" stroke-linecap="round" stroke-linejoin="round" stroke-miterlimit="10" x1="280.214" y1="227.312" x2="299.545" y2="227.046"/>
	
		<line fill="none" stroke="#000000" stroke-width="11.5911" stroke-linecap="round" stroke-linejoin="round" stroke-miterlimit="10" x1="289.903" y1="215.22" x2="289.903" y2="238.904"/>
</g>
<g>
	
		<line fill="none" stroke="#000000" stroke-width="11.5911" stroke-linecap="round" stroke-linejoin="round" stroke-miterlimit="10" x1="377.873" y1="141.101" x2="399.111" y2="141.101"/>
	
		<line fill="none" stroke="#000000" stroke-width="11.5911" stroke-linecap="round" stroke-linejoin="round" stroke-miterlimit="10" x1="389.475" y1="128.516" x2="389.475" y2="153.643"/>
</g>
<path fill="none" stroke="#000000" stroke-width="11.5911" stroke-linecap="round" stroke-linejoin="round" stroke-miterlimit="10" d="
	M424.237,48.372c0,1.592-1.304,2.906-2.896,2.906s-2.895-1.314-2.895-2.906c0-1.624,1.303-2.895,2.895-2.895
	S424.237,46.748,424.237,48.372z"/>
<path fill="none" stroke="#000000" stroke-width="11.5911" stroke-linecap="round" stroke-linejoin="round" stroke-miterlimit="10" d="
	M401.055,227.312c0,1.047-0.854,1.901-1.943,1.901c-1.047,0-1.924-0.854-1.924-1.901c0-1.09,0.877-1.944,1.924-1.944
	C400.2,225.368,401.055,226.223,401.055,227.312z"/>
<path fill="none" stroke="#000000" stroke-width="11.5911" stroke-linecap="round" stroke-linejoin="round" stroke-miterlimit="10" d="
	M232.039,229.214c0,1.09-0.887,1.944-1.95,1.944c-1.062,0-1.944-0.854-1.944-1.944c0-1.036,0.882-1.901,1.944-1.901
	C231.152,227.312,232.039,228.178,232.039,229.214z"/>
<path fill="none" stroke="#000000" stroke-width="11.5911" stroke-linecap="round" stroke-linejoin="round" stroke-miterlimit="10" d="
	M413.618,98.539c0,1.09-0.876,1.955-1.923,1.955c-1.09,0-1.944-0.865-1.944-1.955c0-1.036,0.854-1.901,1.944-1.901
	C412.742,96.638,413.618,97.503,413.618,98.539z"/>
<path fill="none" stroke="#000000" stroke-width="11.5911" stroke-linecap="round" stroke-linejoin="round" stroke-miterlimit="10" d="
	M308.332,171.985c0,1.089-0.86,1.944-1.929,1.944c-1.063,0-1.923-0.855-1.923-1.944c0-1.047,0.859-1.902,1.923-1.902
	C307.472,170.083,308.332,170.938,308.332,171.985z"/>
<path fill="none" stroke="#000000" stroke-width="11.5911" stroke-linecap="round" stroke-linejoin="round" stroke-miterlimit="10" d="
	M263.912,119.82c0,1.089-0.86,1.955-1.944,1.955c-1.042,0-1.928-0.866-1.928-1.955c0-1.036,0.887-1.902,1.928-1.902
	C263.052,117.918,263.912,118.784,263.912,119.82z"/>
<path fill="none" stroke="#000000" stroke-width="11.5911" stroke-linecap="round" stroke-linejoin="round" stroke-miterlimit="10" d="
	M347.949,83.103c0,4.305-3.472,7.745-7.744,7.745c-4.252,0-7.714-3.44-7.714-7.745c0-4.252,3.462-7.692,7.714-7.692
	C344.478,75.41,347.949,78.851,347.949,83.103z"/>
<path fill="none" stroke="#1D1D1B" stroke-width="11.5911" stroke-linecap="round" stroke-linejoin="round" stroke-miterlimit="10" d="
	M427.122,327.466c-14.614-6.378-35.052-13.087-55.83-12.766c-15.127,0.224-25.949,5.565-33.374,11.634"/>
<path fill="none" stroke="#1D1D1B" stroke-width="11.5911" stroke-linecap="round" stroke-linejoin="round" stroke-miterlimit="10" d="
	M427.122,355.135c-14.614-6.346-35.052-13.043-55.83-12.723c-15.127,0.224-25.949,5.565-33.374,11.634"/>
<path fill="none" stroke="#1D1D1B" stroke-width="11.5911" stroke-linecap="round" stroke-linejoin="round" stroke-miterlimit="10" d="
	M392.316,370.123c-6.815-1.271-13.898-1.955-21.024-1.858c-15.127,0.225-25.949,5.565-33.374,11.634"/>
</svg>
