<svg width="1024" height="1024" xmlns="http://www.w3.org/2000/svg">
 <title/>

 <g>
  <title>background</title>
  <rect fill="none" id="canvas_background" height="402" width="582" y="-1" x="-1"/>
 </g>
 <g>
  <title>Layer 1</title>
  <g id="icomoon-ignore"/>
  <path stroke="null" id="svg_1" d="m660.871581,715.093378l0.003996,0c0.997026,-0.029971 2.011036,0.063938 3.028043,0.225779l0.003996,0c0.033967,0 0.097904,0.004995 0.161842,0.015984c8.66254,1.532503 14.512826,9.764464 12.955348,18.444986c-0.004995,0.033967 -0.010989,0.066935 -0.02098,0.097904c0.03097,-0.095906 0.025975,-0.084917 0.02098,-0.063938l-0.02098,0.127875c-0.031969,0.063938 -0.042958,0.127875 -0.063938,0.191813c-1.619418,8.496702 -9.822407,14.178153 -18.375055,12.631664c-8.667535,-1.533502 -14.51982,-9.767461 -12.959344,-18.452978c1.34169,-7.472702 7.677502,-12.791508 14.920428,-13.13717c0.097904,-0.037963 0.225779,-0.059941 0.323684,-0.063938l0.021979,-0.017982zm51.904309,95.822418c0.841178,-0.010989 1.681358,0.063938 2.509549,0.225779l161.786995,28.505161c6.937225,1.118907 11.639632,7.724456 10.419824,14.646696c-1.220808,6.927235 -7.90528,11.527742 -14.812534,10.196042l-161.771011,-28.502164c-0.003996,0 -0.003996,-0.003996 -0.010989,-0.003996l-0.003996,0c-7.477697,-1.220808 -10.985272,-7.498677 -10.5467,-13.387925c0.438572,-5.893245 4.842271,-11.583687 12.426864,-11.677595l0.001998,-0.001998zm-65.929612,-15.008343l0.003996,0c0.997026,-0.029971 2.011036,0.063938 3.028043,0.225779l0.003996,0c0.033967,0 0.097904,0.004995 0.161842,0.015984c8.66254,1.532503 14.512826,9.764464 12.955348,18.444986c-0.004995,0.033967 -0.00999,0.066935 -0.02098,0.097904c0.03097,-0.095906 0.025975,-0.084917 0.02098,-0.063938l-0.02098,0.127875c-0.031969,0.063938 -0.042958,0.127875 -0.063938,0.191813c-1.619418,8.496702 -9.823406,14.178153 -18.376054,12.631664c-8.667535,-1.533502 -14.51982,-9.767461 -12.959344,-18.452978c1.340691,-7.472702 7.677502,-12.791508 14.920428,-13.13717c0.097904,-0.037963 0.225779,-0.059941 0.323684,-0.063938l0.022978,-0.017982zm80.057814,-64.875641c0,0 0.006993,0 0.010989,0c0,0 0.005994,0 0.010989,0c0.029971,0 0.095906,0.010989 0.127875,0.015984c0.786232,0.033967 1.569467,0.063938 2.343711,0.225779l161.764018,28.529138c6.937225,1.118907 11.636635,7.724456 10.415828,14.646696c-1.221807,6.927235 -7.90528,11.528741 -14.812534,10.195043l-161.748033,-28.525142c-0.006993,0 -0.006993,-0.003996 -0.010989,-0.003996l-0.003996,0c-7.476698,-1.222806 -10.984273,-7.497678 -10.542704,-13.387925c0.432578,-5.79534 4.733377,-11.318946 12.087195,-11.608663c0.114888,-0.037963 0.212792,-0.059941 0.340667,-0.063938l0.016983,-0.022978zm14.126204,-79.730134c0.000999,0 0.001998,0 0.003996,0c0.841178,-0.00999 1.678361,0.063938 2.506552,0.225779l161.702078,28.521146c6.937225,1.118907 11.635636,7.724456 10.414829,14.646696c-1.220808,6.927235 -7.90528,11.527742 -14.812534,10.195043l-161.687093,-28.51715c-7.503672,-1.205822 -11.018239,-7.494681 -10.57767,-13.395917s4.850263,-11.600671 12.449841,-11.677595l0,0.001998zm-66.009534,-14.967383c0.005994,0 0.015984,0 0.031969,0c1.062962,0 2.142907,0.063938 3.226849,0.25575c0.004995,0 0.008991,0 0.010989,0c8.517681,1.548488 14.300034,9.699527 12.982321,18.217209c0,0.033967 -0.004995,0.097904 -0.015984,0.161842l0,-0.097904c0,0.033967 -0.004995,0.097904 -0.015984,0.161842c-1.558478,8.670532 -9.852378,14.486852 -18.529903,12.936366c-8.698505,-1.45358 -14.523816,-9.846384 -12.967336,-18.456975c1.319711,-7.477697 7.688491,-12.783515 14.982368,-13.13717c0.097904,-0.032968 0.191813,-0.052948 0.289717,-0.063938l0.004995,0.022978zm80.119753,-64.869647c0.841178,-0.00999 1.681358,0.067934 2.509549,0.225779l161.675105,28.610059c6.878283,1.182845 11.500768,7.758423 10.283956,14.630711c-1.214814,6.871289 -7.81237,11.461806 -14.677665,10.215024l-161.679101,-28.610059c-0.003996,0 -0.003996,-0.003996 -0.010989,-0.003996l-0.010989,0c-7.479695,-1.227801 -10.983274,-7.508667 -10.538708,-13.399913c0.444566,-5.896242 4.852261,-11.583687 12.441849,-11.666606l0.006993,-0.000999zm-66.002541,-14.905443c1.025998,-0.025975 2.071976,0.05095 3.123949,0.229776c0.03097,0.001998 0.063938,0.004995 0.097904,0.00999c0.003996,0 0.003996,0.003996 0.010989,0.003996c8.700503,1.457576 14.402934,9.867363 12.96334,18.430001c-0.004995,0.03097 -0.010989,0.059941 -0.02098,0.089912l-0.031969,0.225779c-0.031969,0.2048 -0.127875,0.392617 -0.289717,0.536476l-0.010989,0.010989c-1.934111,8.173018 -9.849381,13.629689 -18.229197,12.125158c-8.598602,-1.540496 -14.401935,-9.851379 -12.843457,-18.530902c1.246782,-7.417756 7.598579,-12.720577 14.889459,-13.063242c0.097904,-0.041959 0.225779,-0.063938 0.332675,-0.067934l0.007992,0zm88.145915,-93.881314c-0.025975,0.000999 -0.063938,0.003996 -0.097904,0.007992c-0.031969,0.001998 -0.097904,0.000999 -0.127875,0.007992c-83.944018,0.251754 -132.864242,36.135709 -160.38936,71.996687c-24.791788,32.299456 -31.976771,62.784683 -33.249528,68.897713c-0.521491,-0.127875 -11.436831,-2.509549 -114.782901,-24.03153c-0.025975,-0.004995 -0.001998,-0.000999 -0.025975,-0.010989l-0.003996,0c-0.00999,-0.001998 -0.02098,-0.001998 -0.03097,-0.003996l-0.003996,0c-0.000999,0 -0.001998,0 -0.003996,0c-0.00999,-0.001998 -0.02098,-0.004995 -0.03097,-0.010989c-0.004995,-0.001998 -0.00999,-0.001998 -0.015984,-0.003996c-0.001998,-0.000999 -0.025975,-0.004995 -0.03097,-0.004995l-0.003996,0c-0.034966,-0.00999 -0.127875,-0.031969 -0.259746,-0.063938c-0.298708,-0.063938 -0.701315,-0.161842 -1.199828,-0.289717c-1.01401,-0.25575 -2.445612,-0.610404 -4.180917,-0.982041c-3.465615,-0.741276 -8.135055,-1.56647 -13.191117,-1.950095c-10.099137,-0.763255 -22.243277,0.031969 -28.860814,8.3968l-1.26976,1.601436c0,0.000999 0,0.001998 0,0.003996c-0.382626,0.485526 -0.500511,1.11591 -0.35865,1.694345c0.079922,-0.127875 0.15385,-0.289717 0.236769,-0.428581l0.03097,1.048976c-0.127875,-0.191813 -0.213791,-0.404605 -0.26574,-0.620394c-2.577483,4.539567 -4.1979,10.221018 -4.806306,17.279125c-0.740277,8.595605 -0.338669,18.785654 0.803216,29.975725l0,0.003996c0,0.001998 0,0.004995 0,0.00999c1.847196,17.659753 6.691465,43.667354 14.839507,70.923734c13.248062,44.168864 45.580485,104.455986 100.12022,153.880717s131.380691,87.886168 233.101348,87.886168c84.685295,0 149.752748,-26.391226 193.553971,-70.051586c43.80422,-43.657363 66.225323,-104.447994 66.225323,-172.729309c0,-70.955703 -23.149392,-131.71936 -65.54199,-174.650433s-103.935494,-67.910677 -180.159053,-67.769815c0.003996,0 0.001998,0 -0.02098,0c-0.003996,0 -0.010989,0 -0.010989,0l0.012987,-0.012987zm-492.128377,19.390063c-1.170857,1.687352 -2.459598,3.287789 -3.907184,4.736374c1.446587,-1.449584 2.735329,-3.049022 3.907184,-4.736374zm2.26279,-3.991102c-0.630384,1.230798 -1.203824,2.497561 -1.973073,3.636449c0.76825,-1.138888 1.342689,-2.40665 1.973073,-3.636449zm2.470587,-6.311836c-0.389619,1.380652 -0.719298,2.787278 -1.26976,4.092004c0.550462,-1.304726 0.881139,-2.711352 1.26976,-4.092004zm1.427606,-9.230985c-0.004995,2.351703 -0.242763,4.651457 -0.699317,6.871289c0.454556,-2.220831 0.692324,-4.519586 0.699317,-6.871289zm-0.02098,-0.336671c0.036964,0.168835 0.11289,0.316691 0.218786,0.437573l-0.000999,-0.000999l-0.188816,-0.187817c0,0.013986 -0.003996,0.024976 -0.003996,0.037963l0,-0.037963c0,-0.084917 -0.02098,-0.165838 -0.02098,-0.251754l-0.003996,0.002997zm-17.062337,-29.330355c0.595419,0.349659 1.250778,0.607407 1.82222,0.992031c-0.572441,-0.383625 -1.226802,-0.642373 -1.82222,-0.992031zm-17.338067,-2.860207c18.01141,0 32.447311,14.541798 32.447311,32.443315l0,0.037963c-0.02098,17.906512 -14.448889,32.431327 -32.447311,32.431327c-17.916502,0 -32.369387,-14.544795 -32.369387,-32.470289c0,-17.902516 14.452885,-32.443315 32.369387,-32.443315l0,0.000999zm10.477767,-0.18382c0.95207,0.3067 1.952094,0.503508 2.864203,0.888133c-0.913108,-0.383625 -1.912133,-0.582431 -2.864203,-0.888133zm-10.299941,-1.774267c2.311742,0.011988 4.569537,0.234771 6.748409,0.679337c-2.178872,-0.444566 -4.437666,-0.667348 -6.748409,-0.679337zm-0.178825,-1.996051c0,0 -0.000999,0 -0.000999,0c-0.069932,0 -0.137865,0.006993 -0.203801,0.02098l0.005994,-0.000999c-0.000999,0 -0.001998,0 -0.003996,0c-19.9665,0.110892 -36.121723,16.408975 -36.121723,36.376474c0,20.057412 16.261119,36.423428 36.322527,36.423428c20.146325,0 36.403448,-16.369014 36.403448,-36.423428l0,-0.4096c0,-0.000999 0,-0.001998 0,-0.001998c0,-0.148855 -0.032968,-0.290716 -0.09191,-0.417592l0.002997,0.005994c-0.448562,-19.646813 -16.452932,-35.573258 -36.315533,-35.573258l0.002997,0zm110.825765,-350.203983c-168.619323,0 -316.512887,132.543555 -325.013585,303.46463c-0.015984,0.230775 -0.025975,0.50151 -0.025975,0.773245c0,6.421728 5.205916,11.628643 11.628643,11.628643c6.287859,0 11.409857,-4.991126 11.62165,-11.228034l0.000999,-0.018981c7.86432,-158.121575 145.370029,-281.364214 301.789266,-281.364214c83.984978,0 161.411362,29.518172 216.844225,83.59436c51.096098,49.84532 83.478473,120.795029 85.292701,210.312604c-71.537135,-54.547728 -111.436169,-107.754764 -133.258857,-148.067394c-23.677876,-43.739283 -26.4172,-71.155508 -26.4172,-71.155508c-0.654361,-5.859278 -5.58055,-10.37287 -11.559711,-10.37287c-4.979137,0 -9.226989,3.128944 -10.885369,7.528647l-0.026974,0.079922c0,0 -17.482926,48.37076 -79.301552,102.841563s-167.523393,114.01565 -344.180866,131.96512l0.281725,-0.026974c-19.357095,1.493541 -34.232568,3.263812 -46.324758,10.820433s-18.182243,21.897614 -18.182243,38.562339c0,14.80654 3.795293,29.680014 15.646719,39.44248c10.336905,8.514684 24.907675,12.107176 44.135896,12.650645l2.946123,8.173018c0.043957,0.125877 0.06094,0.170833 0.077924,0.215789l-0.026974,-0.078923c46.26182,123.54834 165.43743,211.401541 304.93919,211.401541c3.181892,0 6.462688,0.003996 9.855375,-0.097904c6.288858,-0.170833 11.320944,-5.309814 11.320944,-11.623648c0,-6.421728 -5.205916,-11.628643 -11.628643,-11.628643c-0.115887,0 -0.231774,0.001998 -0.346661,0.004995l0.016983,0c-2.971098,0.097904 -6.036105,0.097904 -9.218997,0.097904c-129.732301,0 -240.208407,-81.626282 -283.151468,-196.276312c-0.002997,-0.00999 -0.00999,-0.017982 -0.00999,-0.026974l-5.578552,-15.489872c-1.663376,-4.519586 -5.931207,-7.684495 -10.939316,-7.684495c-0.073928,0 -0.147856,0.000999 -0.220784,0.001998l0.010989,0c-21.046446,0.383625 -32.237516,-3.332745 -37.396478,-7.581596s-7.176991,-10.132105 -7.176991,-21.495008c0,-12.398891 1.905139,-15.496865 7.253916,-18.838602s17.360046,-5.936203 35.786051,-7.357814c0.134868,-0.008991 0.231774,-0.016983 0.328679,-0.026974l-0.046954,0.003996c180.891338,-18.38005 291.798024,-80.02085 357.202149,-137.651567c37.092774,-32.68408 58.584785,-63.145331 71.201463,-84.48549c4.349752,13.330981 10.568678,29.609083 21.166329,49.185964c25.329263,46.789305 72.380312,108.575962 158.783928,169.878093c1.871173,1.34169 4.205892,2.144905 6.729428,2.144905c6.264882,0 11.372893,-4.955161 11.618653,-11.160101l0.000999,-0.021979c4.052043,-106.287198 -32.327428,-192.125366 -92.480681,-250.805058s-143.640717,-90.202906 -233.081368,-90.202906l0,-0.004995zm193.573952,342.536472c18.007414,0.003996 32.445313,14.524815 32.447311,32.447311l0,0.003996c-0.001998,17.922497 -14.4379,32.443315 -32.447311,32.443315c-17.9185,0 -32.443315,-14.528811 -32.443315,-32.447311c0,-17.920498 14.524815,-32.447311 32.443315,-32.447311zm0,-3.95214c-0.069932,0 -0.136866,0.006993 -0.202802,0.02098l0.005994,-0.000999c-0.000999,0 -0.001998,0 -0.003996,0c-19.965501,0.110892 -36.195651,16.386996 -36.195651,36.38047c0,20.060409 16.336046,36.400451 36.396454,36.400451c20.14133,0 36.397453,-16.344038 36.400451,-36.396454l0,-0.003996c-0.001998,-20.052416 -16.261119,-36.395455 -36.400451,-36.400451z"/>
  <ellipse ry="38.999763" rx="38.999763" id="svg_2" cy="463.000299" cx="258.001545" fill-opacity="null" stroke-opacity="null" stroke-width="null" stroke="null" fill="null"/>
  <ellipse ry="38.999763" rx="38.999763" id="svg_4" cy="449.000383" cx="557.999714" fill-opacity="null" stroke-opacity="null" stroke-width="null" stroke="null" fill="null"/>
 </g>
</svg>