<?xml version="1.0" encoding="UTF-8" standalone="no"?>
<!-- Generator: Adobe Illustrator 15.0.0, SVG Export Plug-In . SVG Version: 6.00 Build 0)  -->

<svg
   xmlns:dc="http://purl.org/dc/elements/1.1/"
   xmlns:cc="http://creativecommons.org/ns#"
   xmlns:rdf="http://www.w3.org/1999/02/22-rdf-syntax-ns#"
   xmlns:svg="http://www.w3.org/2000/svg"
   xmlns="http://www.w3.org/2000/svg"
   xmlns:sodipodi="http://sodipodi.sourceforge.net/DTD/sodipodi-0.dtd"
   xmlns:inkscape="http://www.inkscape.org/namespaces/inkscape"
   version="1.1"
   id="Layer_1"
   x="0px"
   y="0px"
   width="600px"
   height="600px"
   viewBox="0 0 600 600"
   enable-background="new 0 0 600 600"
   xml:space="preserve"
   sodipodi:docname="talkable-storytime.svg"
   inkscape:version="0.92.2 (5c3e80d, 2017-08-06)"><metadata
     id="metadata4823"><rdf:RDF><cc:Work
         rdf:about=""><dc:format>image/svg+xml</dc:format><dc:type
           rdf:resource="http://purl.org/dc/dcmitype/StillImage" /><dc:title></dc:title></cc:Work></rdf:RDF></metadata><defs
     id="defs4821" /><sodipodi:namedview
     pagecolor="#ffffff"
     bordercolor="#666666"
     borderopacity="1"
     objecttolerance="10"
     gridtolerance="10"
     guidetolerance="10"
     inkscape:pageopacity="0"
     inkscape:pageshadow="2"
     inkscape:window-width="1920"
     inkscape:window-height="1027"
     id="namedview4819"
     showgrid="false"
     inkscape:zoom="1.1125147"
     inkscape:cx="392.75387"
     inkscape:cy="311.5877"
     inkscape:window-x="-8"
     inkscape:window-y="-8"
     inkscape:window-maximized="1"
     inkscape:current-layer="Layer_1" /><path
     style="color:#000000;font-style:normal;font-variant:normal;font-weight:normal;font-stretch:normal;font-size:medium;line-height:normal;font-family:sans-serif;font-variant-ligatures:normal;font-variant-position:normal;font-variant-caps:normal;font-variant-numeric:normal;font-variant-alternates:normal;font-feature-settings:normal;text-indent:0;text-align:start;text-decoration:none;text-decoration-line:none;text-decoration-style:solid;text-decoration-color:#000000;letter-spacing:normal;word-spacing:normal;text-transform:none;writing-mode:lr-tb;direction:ltr;text-orientation:mixed;dominant-baseline:auto;baseline-shift:baseline;text-anchor:start;white-space:normal;shape-padding:0;clip-rule:nonzero;display:inline;overflow:visible;visibility:visible;opacity:1;isolation:auto;mix-blend-mode:normal;color-interpolation:sRGB;color-interpolation-filters:linearRGB;solid-color:#000000;solid-opacity:1;vector-effect:none;fill:#000000;fill-opacity:1;fill-rule:nonzero;stroke:none;stroke-width:26.84226418;stroke-linecap:round;stroke-linejoin:round;stroke-miterlimit:10;stroke-dasharray:none;stroke-dashoffset:0;stroke-opacity:1;color-rendering:auto;image-rendering:auto;shape-rendering:auto;text-rendering:auto;enable-background:accumulate"
     d="m 379.46849,243.95073 c -39.82876,0.005 -68.08445,22.20722 -81.99481,36.09789 -14.58129,-11.9182 -43.18086,-29.98954 -84.02113,-30.22254 h -0.0116 c -62.19406,-0.39932 -91.9973,36.94965 -100.87373,50.9491 a 13.422474,13.422474 0 0 0 -2.08735,7.17571 l -0.20806,235.39615 a 13.422474,13.422474 0 0 0 22.20103,10.16314 c 0,0 39.80068,-32.08249 71.48795,-33.65774 32.03495,-1.56951 51.74229,4.0397 89.17279,23.69813 a 13.422474,13.422474 0 0 0 19.66138,-11.88186 V 339.25894 a 13.422474,13.422474 0 1 0 -26.84388,0 v 170.94371 c -29.46845,-13.37775 -53.49985,-18.6204 -83.30423,-17.16018 a 13.422474,13.422474 0 0 0 -0.007,0 c -25.55263,1.26691 -49.13491,13.12071 -65.50178,23.64614 l 0.18092,-204.64896 c 8.22973,-12.12862 28.35585,-35.68119 75.9589,-35.37195 a 13.422474,13.422474 0 0 0 0.0116,0 c 49.25796,0.27689 74.84624,31.00049 74.84624,31.00049 a 13.422474,13.422474 0 0 0 21.03185,-0.69201 c 0,0 27.39259,-36.18383 70.31198,-36.18383 a 13.422474,13.422474 0 0 0 0.0116,0 c 42.29683,-0.0373 74.02247,22.35146 83.76783,30.03483 l 0.80057,202.76514 c -15.91765,-7.5327 -39.96315,-16.30587 -70.95423,-19.40357 -35.08322,-3.55732 -63.70616,19.81289 -63.70616,19.81289 a 13.422474,13.422474 0 1 0 16.24202,21.37109 c 0,0 23.95174,-16.58741 44.75488,-14.47806 a 13.422474,13.422474 0 0 0 0.0203,0.002 c 51.33827,5.12665 79.08429,26.30113 79.08429,26.30113 a 13.422474,13.422474 0 0 0 21.49094,-10.77827 l -0.91592,-232.13962 a 13.422474,13.422474 0 0 0 -4.39181,-9.87819 c 0,0 -43.87247,-40.50123 -106.20405,-40.45125 z"
     id="path4776"
     inkscape:connector-curvature="0" /><path
     style="color:#000000;font-style:normal;font-variant:normal;font-weight:normal;font-stretch:normal;font-size:medium;line-height:normal;font-family:sans-serif;font-variant-ligatures:normal;font-variant-position:normal;font-variant-caps:normal;font-variant-numeric:normal;font-variant-alternates:normal;font-feature-settings:normal;text-indent:0;text-align:start;text-decoration:none;text-decoration-line:none;text-decoration-style:solid;text-decoration-color:#000000;letter-spacing:normal;word-spacing:normal;text-transform:none;writing-mode:lr-tb;direction:ltr;text-orientation:mixed;dominant-baseline:auto;baseline-shift:baseline;text-anchor:start;white-space:normal;shape-padding:0;clip-rule:nonzero;display:inline;overflow:visible;visibility:visible;opacity:1;isolation:auto;mix-blend-mode:normal;color-interpolation:sRGB;color-interpolation-filters:linearRGB;solid-color:#000000;solid-opacity:1;vector-effect:none;fill:#000000;fill-opacity:1;fill-rule:nonzero;stroke:none;stroke-width:13.42113209;stroke-linecap:round;stroke-linejoin:round;stroke-miterlimit:10;stroke-dasharray:none;stroke-dashoffset:0;stroke-opacity:1;color-rendering:auto;image-rendering:auto;shape-rendering:auto;text-rendering:auto;enable-background:accumulate"
     d="m 388.25664,526.01047 c -36.51035,0.56459 -53.33389,24.68096 -58.40522,33.59442 h -37.33493 c -5.96394,-5.48875 -37.54244,-31.86902 -92.46326,-23.39737 l 0.005,-0.002 c -46.83414,7.1978 -83.73617,46.71785 -83.73617,46.71785 a 6.7112371,6.7112371 0 1 0 9.70858,9.26532 c 0,0 35.65747,-36.50679 76.06745,-42.71727 a 6.7112371,6.7112371 0 0 0 0.002,0 c 55.37301,-8.5414 83.16174,21.47285 83.16174,21.47285 a 6.7112371,6.7112371 0 0 0 4.85768,2.08283 h 43.61735 a 6.7112371,6.7112371 0 0 0 6.18744,-4.11591 c 0,0 11.32182,-28.90287 48.53608,-29.48078 42.48605,-0.63822 85.49334,26.35314 85.49334,26.35314 a 6.7112371,6.7112371 0 1 0 7.23451,-11.3052 c 0,0 -44.76918,-29.19107 -92.92912,-28.46762 a 6.7112371,6.7112371 0 0 0 -0.002,0 z"
     id="path4778"
     inkscape:connector-curvature="0" /><g
     id="g4784"
     transform="matrix(1.1578825,0,0,1.1578825,-47.464517,-41.060255)"><path
       style="color:#000000;font-style:normal;font-variant:normal;font-weight:normal;font-stretch:normal;font-size:medium;line-height:normal;font-family:sans-serif;font-variant-ligatures:normal;font-variant-position:normal;font-variant-caps:normal;font-variant-numeric:normal;font-variant-alternates:normal;font-feature-settings:normal;text-indent:0;text-align:start;text-decoration:none;text-decoration-line:none;text-decoration-style:solid;text-decoration-color:#000000;letter-spacing:normal;word-spacing:normal;text-transform:none;writing-mode:lr-tb;direction:ltr;text-orientation:mixed;dominant-baseline:auto;baseline-shift:baseline;text-anchor:start;white-space:normal;shape-padding:0;clip-rule:nonzero;display:inline;overflow:visible;visibility:visible;opacity:1;isolation:auto;mix-blend-mode:normal;color-interpolation:sRGB;color-interpolation-filters:linearRGB;solid-color:#000000;solid-opacity:1;vector-effect:none;fill:#000000;fill-opacity:1;fill-rule:nonzero;stroke:none;stroke-width:11.59109974;stroke-linecap:round;stroke-linejoin:round;stroke-miterlimit:10;stroke-dasharray:none;stroke-dashoffset:0;stroke-opacity:1;color-rendering:auto;image-rendering:auto;shape-rendering:auto;text-rendering:auto;enable-background:accumulate"
       d="m 324.76758,197.56641 a 5.7961294,5.7961294 0 1 0 0,11.58984 h 24.13281 a 5.7961294,5.7961294 0 1 0 0,-11.58984 z"
       id="line4780"
       inkscape:connector-curvature="0" /><path
       style="color:#000000;font-style:normal;font-variant:normal;font-weight:normal;font-stretch:normal;font-size:medium;line-height:normal;font-family:sans-serif;font-variant-ligatures:normal;font-variant-position:normal;font-variant-caps:normal;font-variant-numeric:normal;font-variant-alternates:normal;font-feature-settings:normal;text-indent:0;text-align:start;text-decoration:none;text-decoration-line:none;text-decoration-style:solid;text-decoration-color:#000000;letter-spacing:normal;word-spacing:normal;text-transform:none;writing-mode:lr-tb;direction:ltr;text-orientation:mixed;dominant-baseline:auto;baseline-shift:baseline;text-anchor:start;white-space:normal;shape-padding:0;clip-rule:nonzero;display:inline;overflow:visible;visibility:visible;opacity:1;isolation:auto;mix-blend-mode:normal;color-interpolation:sRGB;color-interpolation-filters:linearRGB;solid-color:#000000;solid-opacity:1;vector-effect:none;fill:#000000;fill-opacity:1;fill-rule:nonzero;stroke:none;stroke-width:11.59109974;stroke-linecap:round;stroke-linejoin:round;stroke-miterlimit:10;stroke-dasharray:none;stroke-dashoffset:0;stroke-opacity:1;color-rendering:auto;image-rendering:auto;shape-rendering:auto;text-rendering:auto;enable-background:accumulate"
       d="m 337.22266,185.44336 a 5.7961294,5.7961294 0 0 0 -5.70899,5.87695 v 24.13281 a 5.7961294,5.7961294 0 1 0 11.5918,0 v -24.13281 a 5.7961294,5.7961294 0 0 0 -5.88281,-5.87695 z"
       id="line4782"
       inkscape:connector-curvature="0" /></g><g
     id="g4790"
     transform="matrix(1.1578825,0,0,1.1578825,-47.464517,-41.060255)"><path
       style="color:#000000;font-style:normal;font-variant:normal;font-weight:normal;font-stretch:normal;font-size:medium;line-height:normal;font-family:sans-serif;font-variant-ligatures:normal;font-variant-position:normal;font-variant-caps:normal;font-variant-numeric:normal;font-variant-alternates:normal;font-feature-settings:normal;text-indent:0;text-align:start;text-decoration:none;text-decoration-line:none;text-decoration-style:solid;text-decoration-color:#000000;letter-spacing:normal;word-spacing:normal;text-transform:none;writing-mode:lr-tb;direction:ltr;text-orientation:mixed;dominant-baseline:auto;baseline-shift:baseline;text-anchor:start;white-space:normal;shape-padding:0;clip-rule:nonzero;display:inline;overflow:visible;visibility:visible;opacity:1;isolation:auto;mix-blend-mode:normal;color-interpolation:sRGB;color-interpolation-filters:linearRGB;solid-color:#000000;solid-opacity:1;vector-effect:none;fill:#000000;fill-opacity:1;fill-rule:nonzero;stroke:none;stroke-width:11.59109974;stroke-linecap:round;stroke-linejoin:round;stroke-miterlimit:10;stroke-dasharray:none;stroke-dashoffset:0;stroke-opacity:1;color-rendering:auto;image-rendering:auto;shape-rendering:auto;text-rendering:auto;enable-background:accumulate"
       d="m 299.46484,221.25195 -19.33007,0.26563 a 5.7961294,5.7961294 0 1 0 0.1582,11.58984 L 299.625,232.8418 a 5.7961294,5.7961294 0 1 0 -0.16016,-11.58985 z"
       id="line4786"
       inkscape:connector-curvature="0" /><path
       style="color:#000000;font-style:normal;font-variant:normal;font-weight:normal;font-stretch:normal;font-size:medium;line-height:normal;font-family:sans-serif;font-variant-ligatures:normal;font-variant-position:normal;font-variant-caps:normal;font-variant-numeric:normal;font-variant-alternates:normal;font-feature-settings:normal;text-indent:0;text-align:start;text-decoration:none;text-decoration-line:none;text-decoration-style:solid;text-decoration-color:#000000;letter-spacing:normal;word-spacing:normal;text-transform:none;writing-mode:lr-tb;direction:ltr;text-orientation:mixed;dominant-baseline:auto;baseline-shift:baseline;text-anchor:start;white-space:normal;shape-padding:0;clip-rule:nonzero;display:inline;overflow:visible;visibility:visible;opacity:1;isolation:auto;mix-blend-mode:normal;color-interpolation:sRGB;color-interpolation-filters:linearRGB;solid-color:#000000;solid-opacity:1;vector-effect:none;fill:#000000;fill-opacity:1;fill-rule:nonzero;stroke:none;stroke-width:11.59109974;stroke-linecap:round;stroke-linejoin:round;stroke-miterlimit:10;stroke-dasharray:none;stroke-dashoffset:0;stroke-opacity:1;color-rendering:auto;image-rendering:auto;shape-rendering:auto;text-rendering:auto;enable-background:accumulate"
       d="m 289.81641,209.3418 a 5.7961294,5.7961294 0 0 0 -5.70899,5.8789 v 23.6836 a 5.7961294,5.7961294 0 1 0 11.5918,0 v -23.6836 a 5.7961294,5.7961294 0 0 0 -5.88281,-5.8789 z"
       id="line4788"
       inkscape:connector-curvature="0" /></g><g
     id="g4796"
     transform="matrix(1.1578825,0,0,1.1578825,-47.464517,-41.060255)"><path
       style="color:#000000;font-style:normal;font-variant:normal;font-weight:normal;font-stretch:normal;font-size:medium;line-height:normal;font-family:sans-serif;font-variant-ligatures:normal;font-variant-position:normal;font-variant-caps:normal;font-variant-numeric:normal;font-variant-alternates:normal;font-feature-settings:normal;text-indent:0;text-align:start;text-decoration:none;text-decoration-line:none;text-decoration-style:solid;text-decoration-color:#000000;letter-spacing:normal;word-spacing:normal;text-transform:none;writing-mode:lr-tb;direction:ltr;text-orientation:mixed;dominant-baseline:auto;baseline-shift:baseline;text-anchor:start;white-space:normal;shape-padding:0;clip-rule:nonzero;display:inline;overflow:visible;visibility:visible;opacity:1;isolation:auto;mix-blend-mode:normal;color-interpolation:sRGB;color-interpolation-filters:linearRGB;solid-color:#000000;solid-opacity:1;vector-effect:none;fill:#000000;fill-opacity:1;fill-rule:nonzero;stroke:none;stroke-width:11.59109974;stroke-linecap:round;stroke-linejoin:round;stroke-miterlimit:10;stroke-dasharray:none;stroke-dashoffset:0;stroke-opacity:1;color-rendering:auto;image-rendering:auto;shape-rendering:auto;text-rendering:auto;enable-background:accumulate"
       d="m 377.87305,135.30469 a 5.7961294,5.7961294 0 1 0 0,11.59179 h 21.23828 a 5.7961294,5.7961294 0 1 0 0,-11.59179 z"
       id="line4792"
       inkscape:connector-curvature="0" /><path
       style="color:#000000;font-style:normal;font-variant:normal;font-weight:normal;font-stretch:normal;font-size:medium;line-height:normal;font-family:sans-serif;font-variant-ligatures:normal;font-variant-position:normal;font-variant-caps:normal;font-variant-numeric:normal;font-variant-alternates:normal;font-feature-settings:normal;text-indent:0;text-align:start;text-decoration:none;text-decoration-line:none;text-decoration-style:solid;text-decoration-color:#000000;letter-spacing:normal;word-spacing:normal;text-transform:none;writing-mode:lr-tb;direction:ltr;text-orientation:mixed;dominant-baseline:auto;baseline-shift:baseline;text-anchor:start;white-space:normal;shape-padding:0;clip-rule:nonzero;display:inline;overflow:visible;visibility:visible;opacity:1;isolation:auto;mix-blend-mode:normal;color-interpolation:sRGB;color-interpolation-filters:linearRGB;solid-color:#000000;solid-opacity:1;vector-effect:none;fill:#000000;fill-opacity:1;fill-rule:nonzero;stroke:none;stroke-width:11.59109974;stroke-linecap:round;stroke-linejoin:round;stroke-miterlimit:10;stroke-dasharray:none;stroke-dashoffset:0;stroke-opacity:1;color-rendering:auto;image-rendering:auto;shape-rendering:auto;text-rendering:auto;enable-background:accumulate"
       d="m 389.38867,122.63867 a 5.7961294,5.7961294 0 0 0 -5.70898,5.87695 v 25.12696 a 5.7961294,5.7961294 0 1 0 11.59179,0 v -25.12696 a 5.7961294,5.7961294 0 0 0 -5.88281,-5.87695 z"
       id="line4794"
       inkscape:connector-curvature="0" /></g><path
     style="color:#000000;font-style:normal;font-variant:normal;font-weight:normal;font-stretch:normal;font-size:medium;line-height:normal;font-family:sans-serif;font-variant-ligatures:normal;font-variant-position:normal;font-variant-caps:normal;font-variant-numeric:normal;font-variant-alternates:normal;font-feature-settings:normal;text-indent:0;text-align:start;text-decoration:none;text-decoration-line:none;text-decoration-style:solid;text-decoration-color:#000000;letter-spacing:normal;word-spacing:normal;text-transform:none;writing-mode:lr-tb;direction:ltr;text-orientation:mixed;dominant-baseline:auto;baseline-shift:baseline;text-anchor:start;white-space:normal;shape-padding:0;clip-rule:nonzero;display:inline;overflow:visible;visibility:visible;opacity:1;isolation:auto;mix-blend-mode:normal;color-interpolation:sRGB;color-interpolation-filters:linearRGB;solid-color:#000000;solid-opacity:1;vector-effect:none;fill:#000000;fill-opacity:1;fill-rule:nonzero;stroke:none;stroke-width:13.42113209;stroke-linecap:round;stroke-linejoin:round;stroke-miterlimit:10;stroke-dasharray:none;stroke-dashoffset:0;stroke-opacity:1;color-rendering:auto;image-rendering:auto;shape-rendering:auto;text-rendering:auto;enable-background:accumulate"
     d="m 440.3998,4.8864247 c -5.41501,0 -10.06363,4.5915281 -10.06363,10.0613663 0,5.504934 4.52778,10.077197 10.06363,10.077197 5.53585,0 10.06363,-4.569452 10.06363,-10.077197 0,-5.4725932 -4.64861,-10.0613663 -10.06363,-10.0613663 z m 0,6.7166233 c 1.84915,0 3.35832,1.526506 3.35832,3.344743 0,1.709035 -1.63,3.360573 -3.35832,3.360573 -1.72831,0 -3.35831,-1.648784 -3.35831,-3.360573 0,-1.821047 1.50916,-3.344743 3.35831,-3.344743 z"
     id="path4798"
     inkscape:connector-curvature="0" /><path
     style="color:#000000;font-style:normal;font-variant:normal;font-weight:normal;font-stretch:normal;font-size:medium;line-height:normal;font-family:sans-serif;font-variant-ligatures:normal;font-variant-position:normal;font-variant-caps:normal;font-variant-numeric:normal;font-variant-alternates:normal;font-feature-settings:normal;text-indent:0;text-align:start;text-decoration:none;text-decoration-line:none;text-decoration-style:solid;text-decoration-color:#000000;letter-spacing:normal;word-spacing:normal;text-transform:none;writing-mode:lr-tb;direction:ltr;text-orientation:mixed;dominant-baseline:auto;baseline-shift:baseline;text-anchor:start;white-space:normal;shape-padding:0;clip-rule:nonzero;display:inline;overflow:visible;visibility:visible;opacity:1;isolation:auto;mix-blend-mode:normal;color-interpolation:sRGB;color-interpolation-filters:linearRGB;solid-color:#000000;solid-opacity:1;vector-effect:none;fill:#000000;fill-opacity:1;fill-rule:nonzero;stroke:none;stroke-width:13.42113209;stroke-linecap:round;stroke-linejoin:round;stroke-miterlimit:10;stroke-dasharray:none;stroke-dashoffset:0;stroke-opacity:1;color-rendering:auto;image-rendering:auto;shape-rendering:auto;text-rendering:auto;enable-background:accumulate"
     d="m 414.65952,213.17865 c -4.86134,0 -8.9374,4.1007 -8.9374,8.96227 0,4.95963 4.07606,8.91027 8.9374,8.91027 4.76924,0 8.96002,-4.04892 8.96002,-8.91027 0,-4.77334 -4.18459,-8.96227 -8.96002,-8.96227 z m 0,4.45286 c 2.43675,0 4.48453,1.97439 4.48455,4.50941 0,2.3374 -2.0478,4.45966 -4.48455,4.45966 -2.25586,0 -4.45965,-2.20817 -4.45965,-4.45966 0,-2.43674 2.21228,-4.50941 4.45965,-4.50941 z"
     id="path4800"
     inkscape:connector-curvature="0" /><path
     style="color:#000000;font-style:normal;font-variant:normal;font-weight:normal;font-stretch:normal;font-size:medium;line-height:normal;font-family:sans-serif;font-variant-ligatures:normal;font-variant-position:normal;font-variant-caps:normal;font-variant-numeric:normal;font-variant-alternates:normal;font-feature-settings:normal;text-indent:0;text-align:start;text-decoration:none;text-decoration-line:none;text-decoration-style:solid;text-decoration-color:#000000;letter-spacing:normal;word-spacing:normal;text-transform:none;writing-mode:lr-tb;direction:ltr;text-orientation:mixed;dominant-baseline:auto;baseline-shift:baseline;text-anchor:start;white-space:normal;shape-padding:0;clip-rule:nonzero;display:inline;overflow:visible;visibility:visible;opacity:1;isolation:auto;mix-blend-mode:normal;color-interpolation:sRGB;color-interpolation-filters:linearRGB;solid-color:#000000;solid-opacity:1;vector-effect:none;fill:#000000;fill-opacity:1;fill-rule:nonzero;stroke:none;stroke-width:13.42113209;stroke-linecap:round;stroke-linejoin:round;stroke-miterlimit:10;stroke-dasharray:none;stroke-dashoffset:0;stroke-opacity:1;color-rendering:auto;image-rendering:auto;shape-rendering:auto;text-rendering:auto;enable-background:accumulate"
     d="m 218.94571,215.43108 c -4.87047,0.004 -8.9555,3.90663 -8.9555,8.91253 0,4.88211 4.13512,8.96004 8.96228,8.96002 4.82496,2e-5 8.96681,-4.05739 8.96681,-8.96002 0,-5.02748 -4.09088,-8.91344 -8.96681,-8.91253 z m 0.007,4.45288 c 2.36783,0 4.45967,2.10174 4.45967,4.45965 0,2.60748 -2.04297,4.507 -4.45514,4.50942 -2.4173,0.002 -4.45739,-1.87868 -4.45739,-4.50942 0,-2.37844 2.08957,-4.45965 4.45286,-4.45965 z"
     id="path4802"
     inkscape:connector-curvature="0" /><path
     style="color:#000000;font-style:normal;font-variant:normal;font-weight:normal;font-stretch:normal;font-size:medium;line-height:normal;font-family:sans-serif;font-variant-ligatures:normal;font-variant-position:normal;font-variant-caps:normal;font-variant-numeric:normal;font-variant-alternates:normal;font-feature-settings:normal;text-indent:0;text-align:start;text-decoration:none;text-decoration-line:none;text-decoration-style:solid;text-decoration-color:#000000;letter-spacing:normal;word-spacing:normal;text-transform:none;writing-mode:lr-tb;direction:ltr;text-orientation:mixed;dominant-baseline:auto;baseline-shift:baseline;text-anchor:start;white-space:normal;shape-padding:0;clip-rule:nonzero;display:inline;overflow:visible;visibility:visible;opacity:1;isolation:auto;mix-blend-mode:normal;color-interpolation:sRGB;color-interpolation-filters:linearRGB;solid-color:#000000;solid-opacity:1;vector-effect:none;fill:#000000;fill-opacity:1;fill-rule:nonzero;stroke:none;stroke-width:13.42113209;stroke-linecap:round;stroke-linejoin:round;stroke-miterlimit:10;stroke-dasharray:none;stroke-dashoffset:0;stroke-opacity:1;color-rendering:auto;image-rendering:auto;shape-rendering:auto;text-rendering:auto;enable-background:accumulate"
     d="m 429.2303,64.123878 c -4.81233,0 -8.96227,4.025174 -8.96227,8.912528 0,4.767186 4.14994,8.973588 8.96227,8.973588 4.90836,0 8.9374,-4.11611 8.9374,-8.973588 0,-4.982356 -4.02904,-8.912528 -8.9374,-8.912528 z m 0,4.466441 c 2.28815,0 4.45965,2.20309 4.45966,4.446087 0,2.488218 -2.17151,4.509406 -4.45966,4.509406 -2.48374,0 -4.48452,-1.926183 -4.48452,-4.509406 0,-2.333293 2.00078,-4.446087 4.48452,-4.446087 z"
     id="path4804"
     inkscape:connector-curvature="0" /><path
     style="color:#000000;font-style:normal;font-variant:normal;font-weight:normal;font-stretch:normal;font-size:medium;line-height:normal;font-family:sans-serif;font-variant-ligatures:normal;font-variant-position:normal;font-variant-caps:normal;font-variant-numeric:normal;font-variant-alternates:normal;font-feature-settings:normal;text-indent:0;text-align:start;text-decoration:none;text-decoration-line:none;text-decoration-style:solid;text-decoration-color:#000000;letter-spacing:normal;word-spacing:normal;text-transform:none;writing-mode:lr-tb;direction:ltr;text-orientation:mixed;dominant-baseline:auto;baseline-shift:baseline;text-anchor:start;white-space:normal;shape-padding:0;clip-rule:nonzero;display:inline;overflow:visible;visibility:visible;opacity:1;isolation:auto;mix-blend-mode:normal;color-interpolation:sRGB;color-interpolation-filters:linearRGB;solid-color:#000000;solid-opacity:1;vector-effect:none;fill:#000000;fill-opacity:1;fill-rule:nonzero;stroke:none;stroke-width:13.42113209;stroke-linecap:round;stroke-linejoin:round;stroke-miterlimit:10;stroke-dasharray:none;stroke-dashoffset:0;stroke-opacity:1;color-rendering:auto;image-rendering:auto;shape-rendering:auto;text-rendering:auto;enable-background:accumulate"
     d="m 307.3134,149.16492 c -4.82692,0 -8.9374,4.02982 -8.9374,8.91254 0,4.79389 4.10825,8.96227 8.9374,8.96227 4.81592,0 8.9442,-4.16838 8.9442,-8.96227 0,-4.887 -4.12828,-8.91254 -8.9442,-8.91254 z m 0,4.45288 c 2.36751,0 4.48455,2.18763 4.48455,4.45966 0,2.45811 -2.12158,4.50941 -4.48455,4.50941 -2.34034,0 -4.47548,-2.04703 -4.47548,-4.50941 0,-2.27203 2.13514,-4.45966 4.47548,-4.45966 z"
     id="path4806"
     inkscape:connector-curvature="0" /><path
     style="color:#000000;font-style:normal;font-variant:normal;font-weight:normal;font-stretch:normal;font-size:medium;line-height:normal;font-family:sans-serif;font-variant-ligatures:normal;font-variant-position:normal;font-variant-caps:normal;font-variant-numeric:normal;font-variant-alternates:normal;font-feature-settings:normal;text-indent:0;text-align:start;text-decoration:none;text-decoration-line:none;text-decoration-style:solid;text-decoration-color:#000000;letter-spacing:normal;word-spacing:normal;text-transform:none;writing-mode:lr-tb;direction:ltr;text-orientation:mixed;dominant-baseline:auto;baseline-shift:baseline;text-anchor:start;white-space:normal;shape-padding:0;clip-rule:nonzero;display:inline;overflow:visible;visibility:visible;opacity:1;isolation:auto;mix-blend-mode:normal;color-interpolation:sRGB;color-interpolation-filters:linearRGB;solid-color:#000000;solid-opacity:1;vector-effect:none;fill:#000000;fill-opacity:1;fill-rule:nonzero;stroke:none;stroke-width:13.42113209;stroke-linecap:round;stroke-linejoin:round;stroke-miterlimit:10;stroke-dasharray:none;stroke-dashoffset:0;stroke-opacity:1;color-rendering:auto;image-rendering:auto;shape-rendering:auto;text-rendering:auto;enable-background:accumulate"
     d="m 255.86453,88.765069 c -4.927,0 -8.94419,3.88267 -8.94419,8.912523 0,4.900698 4.0196,8.973588 8.94419,8.973588 4.82916,0 8.96002,-4.17969 8.96002,-8.973588 0,-4.913266 -4.13086,-8.912523 -8.96002,-8.912523 z m 0,4.464181 c 2.51156,0 4.47775,2.069507 4.47775,4.448342 0,2.630728 -1.96146,4.507148 -4.47775,4.507148 -2.31887,0 -4.45965,-1.99302 -4.45965,-4.507148 0,-2.27202 2.14078,-4.448342 4.45965,-4.448342 z"
     id="path4808"
     inkscape:connector-curvature="0" /><path
     style="color:#000000;font-style:normal;font-variant:normal;font-weight:normal;font-stretch:normal;font-size:medium;line-height:normal;font-family:sans-serif;font-variant-ligatures:normal;font-variant-position:normal;font-variant-caps:normal;font-variant-numeric:normal;font-variant-alternates:normal;font-feature-settings:normal;text-indent:0;text-align:start;text-decoration:none;text-decoration-line:none;text-decoration-style:solid;text-decoration-color:#000000;letter-spacing:normal;word-spacing:normal;text-transform:none;writing-mode:lr-tb;direction:ltr;text-orientation:mixed;dominant-baseline:auto;baseline-shift:baseline;text-anchor:start;white-space:normal;shape-padding:0;clip-rule:nonzero;display:inline;overflow:visible;visibility:visible;opacity:1;isolation:auto;mix-blend-mode:normal;color-interpolation:sRGB;color-interpolation-filters:linearRGB;solid-color:#000000;solid-opacity:1;vector-effect:none;fill:#000000;fill-opacity:1;fill-rule:nonzero;stroke:none;stroke-width:13.42113209;stroke-linecap:round;stroke-linejoin:round;stroke-miterlimit:10;stroke-dasharray:none;stroke-dashoffset:0;stroke-opacity:1;color-rendering:auto;image-rendering:auto;shape-rendering:auto;text-rendering:auto;enable-background:accumulate"
     d="m 346.45074,39.546011 c -8.54165,0.0013 -15.64046,7.052778 -15.64046,15.617846 0,8.582357 7.10004,15.676644 15.64273,15.676644 8.5489,0 15.67664,-7.083895 15.67664,-15.676644 0,-8.574539 -7.12655,-15.618587 -15.67664,-15.617846 z m 0.002,13.421939 a 6.7112371,6.7112371 0 0 0 0.002,0 c 1.34415,-3.14e-4 2.25471,0.924577 2.25471,2.195907 0,1.376618 -0.91292,2.256965 -2.25696,2.256965 -1.30395,0 -2.22079,-0.869955 -2.22079,-2.256965 0,-1.280798 0.91684,-2.195907 2.22079,-2.195907 z"
     id="path4810"
     inkscape:connector-curvature="0" /><path
     style="color:#000000;font-style:normal;font-variant:normal;font-weight:normal;font-stretch:normal;font-size:medium;line-height:normal;font-family:sans-serif;font-variant-ligatures:normal;font-variant-position:normal;font-variant-caps:normal;font-variant-numeric:normal;font-variant-alternates:normal;font-feature-settings:normal;text-indent:0;text-align:start;text-decoration:none;text-decoration-line:none;text-decoration-style:solid;text-decoration-color:#000000;letter-spacing:normal;word-spacing:normal;text-transform:none;writing-mode:lr-tb;direction:ltr;text-orientation:mixed;dominant-baseline:auto;baseline-shift:baseline;text-anchor:start;white-space:normal;shape-padding:0;clip-rule:nonzero;display:inline;overflow:visible;visibility:visible;opacity:1;isolation:auto;mix-blend-mode:normal;color-interpolation:sRGB;color-interpolation-filters:linearRGB;solid-color:#000000;solid-opacity:1;vector-effect:none;fill:#1d1d1b;fill-opacity:1;fill-rule:nonzero;stroke:none;stroke-width:13.42113209;stroke-linecap:round;stroke-linejoin:round;stroke-miterlimit:10;stroke-dasharray:none;stroke-dashoffset:0;stroke-opacity:1;color-rendering:auto;image-rendering:auto;shape-rendering:auto;text-rendering:auto;enable-background:accumulate"
     d="m 382.3451,316.61465 c -19.04461,0.28309 -33.21076,7.15921 -42.78738,14.98689 a 6.7112371,6.7112371 0 1 0 8.49416,10.38928 c 7.61715,-6.22607 18.51088,-11.71981 34.4945,-11.9565 a 6.7112371,6.7112371 0 0 0 0.005,0 c 22.54652,-0.34832 45.45825,7.06492 61.85852,14.22251 a 6.7112371,6.7112371 0 1 0 5.3665,-12.30024 c -17.44128,-7.61192 -41.85751,-15.73595 -67.4263,-15.34194 z"
     id="path4812"
     inkscape:connector-curvature="0" /><path
     style="color:#000000;font-style:normal;font-variant:normal;font-weight:normal;font-stretch:normal;font-size:medium;line-height:normal;font-family:sans-serif;font-variant-ligatures:normal;font-variant-position:normal;font-variant-caps:normal;font-variant-numeric:normal;font-variant-alternates:normal;font-feature-settings:normal;text-indent:0;text-align:start;text-decoration:none;text-decoration-line:none;text-decoration-style:solid;text-decoration-color:#000000;letter-spacing:normal;word-spacing:normal;text-transform:none;writing-mode:lr-tb;direction:ltr;text-orientation:mixed;dominant-baseline:auto;baseline-shift:baseline;text-anchor:start;white-space:normal;shape-padding:0;clip-rule:nonzero;display:inline;overflow:visible;visibility:visible;opacity:1;isolation:auto;mix-blend-mode:normal;color-interpolation:sRGB;color-interpolation-filters:linearRGB;solid-color:#000000;solid-opacity:1;vector-effect:none;fill:#1d1d1b;fill-opacity:1;fill-rule:nonzero;stroke:none;stroke-width:13.42113209;stroke-linecap:round;stroke-linejoin:round;stroke-miterlimit:10;stroke-dasharray:none;stroke-dashoffset:0;stroke-opacity:1;color-rendering:auto;image-rendering:auto;shape-rendering:auto;text-rendering:auto;enable-background:accumulate"
     d="m 382.3451,348.70292 c -19.04461,0.28309 -33.21076,7.15695 -42.78738,14.98462 a 6.7112371,6.7112371 0 1 0 8.49416,10.39155 c 7.61715,-6.22607 18.51088,-11.71981 34.4945,-11.9565 a 6.7112371,6.7112371 0 0 0 0.005,0 c 22.54932,-0.34728 45.46307,7.0528 61.86982,14.17728 a 6.7112371,6.7112371 0 1 0 5.3439,-12.31155 c -17.43481,-7.5709 -41.84899,-15.67813 -67.415,-15.2854 z"
     id="path4814"
     inkscape:connector-curvature="0" /><path
     style="color:#000000;font-style:normal;font-variant:normal;font-weight:normal;font-stretch:normal;font-size:medium;line-height:normal;font-family:sans-serif;font-variant-ligatures:normal;font-variant-position:normal;font-variant-caps:normal;font-variant-numeric:normal;font-variant-alternates:normal;font-feature-settings:normal;text-indent:0;text-align:start;text-decoration:none;text-decoration-line:none;text-decoration-style:solid;text-decoration-color:#000000;letter-spacing:normal;word-spacing:normal;text-transform:none;writing-mode:lr-tb;direction:ltr;text-orientation:mixed;dominant-baseline:auto;baseline-shift:baseline;text-anchor:start;white-space:normal;shape-padding:0;clip-rule:nonzero;display:inline;overflow:visible;visibility:visible;opacity:1;isolation:auto;mix-blend-mode:normal;color-interpolation:sRGB;color-interpolation-filters:linearRGB;solid-color:#000000;solid-opacity:1;vector-effect:none;fill:#1d1d1b;fill-opacity:1;fill-rule:nonzero;stroke:none;stroke-width:13.42113209;stroke-linecap:round;stroke-linejoin:round;stroke-miterlimit:10;stroke-dasharray:none;stroke-dashoffset:0;stroke-opacity:1;color-rendering:auto;image-rendering:auto;shape-rendering:auto;text-rendering:auto;enable-background:accumulate"
     d="m 382.34737,378.63825 c -19.04645,0.28329 -33.21197,7.15609 -42.78965,14.98463 a 6.7112371,6.7112371 0 1 0 8.49416,10.39154 c 7.61534,-6.22458 18.50887,-11.71667 34.48771,-11.95649 7.76126,-0.1056 15.52823,0.64003 23.02197,2.0376 a 6.7112371,6.7112371 0 1 0 2.4605,-13.19353 c -8.28822,-1.54575 -16.92477,-2.38274 -25.66565,-2.26375 a 6.7112371,6.7112371 0 0 0 -0.01,0 z"
     id="path4816"
     inkscape:connector-curvature="0" /></svg>