<?xml version="1.0" encoding="utf-8"?>
<!-- Generator: Adobe Illustrator 15.0.0, SVG Export Plug-In . SVG Version: 6.00 Build 0)  -->
<!DOCTYPE svg PUBLIC "-//W3C//DTD SVG 1.1//EN" "http://www.w3.org/Graphics/SVG/1.1/DTD/svg11.dtd">
<svg version="1.1" id="Layer_1" xmlns="http://www.w3.org/2000/svg" xmlns:xlink="http://www.w3.org/1999/xlink" x="0px" y="0px"
	 width="600px" height="600px" viewBox="0 0 600 600" enable-background="new 0 0 600 600" xml:space="preserve">
<path fill="none" stroke="#1D1D1B" stroke-width="21.0423" stroke-linecap="round" stroke-linejoin="round" stroke-miterlimit="10" d="
	M215.616,371.446c-3.103-9.784-15.084-22.012-18.948-29.653c-20.219-39.932-19.501-89.221,6.186-129.793
	c38.836-61.353,120.068-79.641,181.425-40.785c61.361,38.836,79.611,120.067,40.775,181.429
	c-25.687,40.582-69.915,62.322-114.666,61.13c-11.429-0.301-36.354-10.123-42.58-0.262c-10.972,17.299-4.354,6.903-10.972,17.299
	l-3.864,6.081l-59.859-37.887c-6.143-3.868-14.386-1.891-18.39,4.413l0,0c-4.01,6.332-2.265,14.612,3.884,18.521l54.763,34.638
	l7.724,4.916c5.304,3.346,6.371,11.2,2.366,17.532l0,0c-4.01,6.322-11.568,8.747-16.872,5.382l-3.763-2.386l-50.366-31.894
	c-4.64-2.918-11.626-0.164-15.636,6.168l0,0c-4.005,6.332-3.491,13.847,1.129,16.766l30.536,19.316l6.497,4.112
	c2.177,1.396,0.674,7.641-3.331,13.973l0,0c-3.985,6.332-8.999,10.337-11.181,8.96l-23.689-15.001"/>
<path fill="none" stroke="#1D1D1B" stroke-width="10.5212" stroke-linecap="round" stroke-linejoin="round" stroke-miterlimit="10" d="
	M245.884,402.99c0,0,38.017-51.044,56.776-80.678c15.477-24.456,26.1-32.224,42.763-21.664
	c21.102,13.362-1.629,45.624-21.081,33.291c-14.2-8.961-30.743-19.434-30.743-19.434s-16.563-10.482-30.74-19.461
	c-19.462-12.334-0.024-46.671,21.081-33.309c16.664,10.541,14.201,23.466-1.294,47.922c-18.74,29.624-53.12,83.938-53.12,83.938"/>
<line fill="none" stroke="#1D1D1B" stroke-width="10.5212" stroke-linecap="round" stroke-linejoin="round" stroke-miterlimit="10" x1="135.717" y1="296.13" x2="110.544" y2="298.089"/>
<line fill="none" stroke="#1D1D1B" stroke-width="10.5212" stroke-linecap="round" stroke-linejoin="round" stroke-miterlimit="10" x1="141.802" y1="220.795" x2="104.382" y2="212.678"/>
<line fill="none" stroke="#1D1D1B" stroke-width="10.5212" stroke-linecap="round" stroke-linejoin="round" stroke-miterlimit="10" x1="180.784" y1="155.757" x2="154.297" y2="129.256"/>
<line fill="none" stroke="#1D1D1B" stroke-width="10.5212" stroke-linecap="round" stroke-linejoin="round" stroke-miterlimit="10" x1="251.208" y1="110.182" x2="239.984" y2="66.866"/>
<line fill="none" stroke="#1D1D1B" stroke-width="10.5212" stroke-linecap="round" stroke-linejoin="round" stroke-miterlimit="10" x1="336.057" y1="103.277" x2="339.121" y2="65.139"/>
<line fill="none" stroke="#1D1D1B" stroke-width="10.5212" stroke-linecap="round" stroke-linejoin="round" stroke-miterlimit="10" x1="411.305" y1="130.361" x2="434.296" y2="94.051"/>
<line fill="none" stroke="#1D1D1B" stroke-width="10.5212" stroke-linecap="round" stroke-linejoin="round" stroke-miterlimit="10" x1="378.897" y1="446.801" x2="386.751" y2="466.399"/>
<line fill="none" stroke="#1D1D1B" stroke-width="10.5212" stroke-linecap="round" stroke-linejoin="round" stroke-miterlimit="10" x1="439.067" y1="406.559" x2="462.407" y2="436.892"/>
<line fill="none" stroke="#1D1D1B" stroke-width="10.5212" stroke-linecap="round" stroke-linejoin="round" stroke-miterlimit="10" x1="480.908" y1="342.637" x2="513.491" y2="354.903"/>
<line fill="none" stroke="#1D1D1B" stroke-width="10.5212" stroke-linecap="round" stroke-linejoin="round" stroke-miterlimit="10" x1="491.527" y1="267.757" x2="535.483" y2="259.35"/>
<line fill="none" stroke="#1D1D1B" stroke-width="10.5212" stroke-linecap="round" stroke-linejoin="round" stroke-miterlimit="10" x1="463.969" y1="188.087" x2="494.999" y2="170.244"/>
</svg>
