<?xml version="1.0" encoding="UTF-8" standalone="no"?>
<!-- Generated by IcoMoon.io -->

<svg
   xmlns:dc="http://purl.org/dc/elements/1.1/"
   xmlns:cc="http://creativecommons.org/ns#"
   xmlns:rdf="http://www.w3.org/1999/02/22-rdf-syntax-ns#"
   xmlns:svg="http://www.w3.org/2000/svg"
   xmlns="http://www.w3.org/2000/svg"
   xmlns:sodipodi="http://sodipodi.sourceforge.net/DTD/sodipodi-0.dtd"
   xmlns:inkscape="http://www.inkscape.org/namespaces/inkscape"
   version="1.1"
   width="1024"
   height="1024"
   viewBox="0 0 1024 1024"
   id="svg4646"
   sodipodi:docname="talkable-cloud-play.svg"
   inkscape:version="0.92.2 (5c3e80d, 2017-08-06)">
  <metadata
     id="metadata4652">
    <rdf:RDF>
      <cc:Work
         rdf:about="">
        <dc:format>image/svg+xml</dc:format>
        <dc:type
           rdf:resource="http://purl.org/dc/dcmitype/StillImage" />
        <dc:title></dc:title>
      </cc:Work>
    </rdf:RDF>
  </metadata>
  <defs
     id="defs4650" />
  <sodipodi:namedview
     pagecolor="#ffffff"
     bordercolor="#666666"
     borderopacity="1"
     objecttolerance="10"
     gridtolerance="10"
     guidetolerance="10"
     inkscape:pageopacity="0"
     inkscape:pageshadow="2"
     inkscape:window-width="640"
     inkscape:window-height="480"
     id="namedview4648"
     showgrid="false"
     inkscape:zoom="0.23046875"
     inkscape:cx="809.00966"
     inkscape:cy="512"
     inkscape:window-x="0"
     inkscape:window-y="0"
     inkscape:window-maximized="0"
     inkscape:current-layer="svg4646" />
  <path
     style="color:#000000;font-style:normal;font-variant:normal;font-weight:normal;font-stretch:normal;font-size:medium;line-height:normal;font-family:sans-serif;font-variant-ligatures:normal;font-variant-position:normal;font-variant-caps:normal;font-variant-numeric:normal;font-variant-alternates:normal;font-feature-settings:normal;text-indent:0;text-align:start;text-decoration:none;text-decoration-line:none;text-decoration-style:solid;text-decoration-color:#000000;letter-spacing:normal;word-spacing:normal;text-transform:none;writing-mode:lr-tb;direction:ltr;text-orientation:mixed;dominant-baseline:auto;baseline-shift:baseline;text-anchor:start;white-space:normal;shape-padding:0;clip-rule:nonzero;display:inline;overflow:visible;visibility:visible;opacity:1;isolation:auto;mix-blend-mode:normal;color-interpolation:sRGB;color-interpolation-filters:linearRGB;solid-color:#000000;solid-opacity:1;vector-effect:none;fill:#000000;fill-opacity:1;fill-rule:nonzero;stroke:none;stroke-width:37.7490387;stroke-linecap:round;stroke-linejoin:miter;stroke-miterlimit:4;stroke-dasharray:none;stroke-dashoffset:0;stroke-opacity:1;paint-order:stroke fill markers;color-rendering:auto;image-rendering:auto;shape-rendering:auto;text-rendering:auto;enable-background:accumulate"
     d="m 622.24905,177.58051 c -88.50558,0 -165.50804,48.77413 -209.6165,121.08954 -6.53628,-0.84126 -13.25744,-1.47115 -20.35248,-1.47115 -78.41374,0 -145.42337,49.45279 -175.0208,119.75348 -104.5408,1.43965 -189.337729,90.39343 -189.337729,199.47956 0,109.97943 86.162849,199.61468 191.881809,199.61468 h 574.92237 c 105.71893,0 191.88172,-89.63525 191.88172,-199.61468 0,-81.57454 -47.5311,-151.32783 -115.11771,-182.12526 C 870.07772,292.5267 758.8622,177.58051 622.24905,177.58051 Z m 0,40.37412 c 116.51223,0 210.56388,97.84014 210.56388,219.04972 0,0.01 -0.79813,3.41841 -1.00012,9.98404 v 0.007 l -0.45254,14.82455 13.46425,4.88065 c 59.85496,21.68895 102.97279,80.03589 102.97279,149.73472 0,88.14347 -68.34284,159.24054 -153.07159,159.24054 H 219.80335 c -84.72889,0 -153.07174,-71.09707 -153.07174,-159.24054 0,-88.14343 68.34285,-159.2405 153.07174,-159.2405 0.57939,0 3.5188,0.63329 9.00419,1.00754 l 0.0386,0.007 14.72399,0.94181 4.83196,-14.44856 0.004,-0.0134 c 20.85499,-62.27141 76.87764,-107.11194 143.87447,-107.11194 8.77824,0 17.66643,1.14621 26.87575,2.84375 l 13.53091,2.51515 6.76545,-12.48825 v -0.007 C 475.62082,263.54844 543.32311,217.9591 622.24905,217.9591 Z"
     id="path38"
     inkscape:connector-curvature="0" />
  <g
     id="g4626"
     transform="matrix(1.2624156,0,0,1.2374935,239.57539,235.77165)">
    <g
       id="g4612" />
    <path
       id="path4614"
       d="M 152.443,136.417 359.557,255.99 152.443,375.583 Z"
       inkscape:connector-curvature="0"
       style="fill:#000000" />
  </g>
</svg>
