<?xml version="1.0" encoding="UTF-8" standalone="no"?>
<!-- Generator: Adobe Illustrator 15.0.0, SVG Export Plug-In . SVG Version: 6.00 Build 0)  -->

<svg
   xmlns:dc="http://purl.org/dc/elements/1.1/"
   xmlns:cc="http://creativecommons.org/ns#"
   xmlns:rdf="http://www.w3.org/1999/02/22-rdf-syntax-ns#"
   xmlns:svg="http://www.w3.org/2000/svg"
   xmlns="http://www.w3.org/2000/svg"
   xmlns:sodipodi="http://sodipodi.sourceforge.net/DTD/sodipodi-0.dtd"
   xmlns:inkscape="http://www.inkscape.org/namespaces/inkscape"
   version="1.1"
   id="Layer_1"
   x="0px"
   y="0px"
   width="600px"
   height="600px"
   viewBox="0 0 600 600"
   enable-background="new 0 0 600 600"
   xml:space="preserve"
   sodipodi:docname="talkable-hints-tips.svg"
   inkscape:version="0.92.2 (5c3e80d, 2017-08-06)"><metadata
     id="metadata5065"><rdf:RDF><cc:Work
         rdf:about=""><dc:format>image/svg+xml</dc:format><dc:type
           rdf:resource="http://purl.org/dc/dcmitype/StillImage" /><dc:title></dc:title></cc:Work></rdf:RDF></metadata><defs
     id="defs5063" /><sodipodi:namedview
     pagecolor="#ffffff"
     bordercolor="#666666"
     borderopacity="1"
     objecttolerance="10"
     gridtolerance="10"
     guidetolerance="10"
     inkscape:pageopacity="0"
     inkscape:pageshadow="2"
     inkscape:window-width="1920"
     inkscape:window-height="1027"
     id="namedview5061"
     showgrid="false"
     inkscape:zoom="1.1125147"
     inkscape:cx="317.17253"
     inkscape:cy="243.87616"
     inkscape:window-x="-8"
     inkscape:window-y="-8"
     inkscape:window-maximized="1"
     inkscape:current-layer="Layer_1" /><path
     style="color:#000000;font-style:normal;font-variant:normal;font-weight:normal;font-stretch:normal;font-size:medium;line-height:normal;font-family:sans-serif;font-variant-ligatures:normal;font-variant-position:normal;font-variant-caps:normal;font-variant-numeric:normal;font-variant-alternates:normal;font-feature-settings:normal;text-indent:0;text-align:start;text-decoration:none;text-decoration-line:none;text-decoration-style:solid;text-decoration-color:#000000;letter-spacing:normal;word-spacing:normal;text-transform:none;writing-mode:lr-tb;direction:ltr;text-orientation:mixed;dominant-baseline:auto;baseline-shift:baseline;text-anchor:start;white-space:normal;shape-padding:0;clip-rule:nonzero;display:inline;overflow:visible;visibility:visible;opacity:1;isolation:auto;mix-blend-mode:normal;color-interpolation:sRGB;color-interpolation-filters:linearRGB;solid-color:#000000;solid-opacity:1;vector-effect:none;fill:#1d1d1b;fill-opacity:1;fill-rule:nonzero;stroke:none;stroke-width:26.43042946;stroke-linecap:round;stroke-linejoin:round;stroke-miterlimit:10;stroke-dasharray:none;stroke-dashoffset:0;stroke-opacity:1;color-rendering:auto;image-rendering:auto;shape-rendering:auto;text-rendering:auto;enable-background:accumulate"
     d="m 299.21203,107.11368 c -57.25978,1.73693 -112.71788,30.92272 -145.59278,82.85838 -34.79138,54.95361 -35.82772,121.88563 -8.395,176.06453 3.62768,7.17177 8.75376,13.17837 13.41926,19.49595 4.66658,6.31901 8.62832,12.79184 9.57501,15.77682 a 13.216536,13.216536 0 1 0 25.19238,-7.99023 c -2.95086,-9.30432 -8.46196,-16.6551 -13.50757,-23.48736 -5.0456,-6.83227 -9.87041,-13.30414 -11.09603,-15.72776 a 13.216536,13.216536 0 0 0 -0.002,-0.005 c -23.3596,-46.13463 -22.59009,-103.02106 7.14631,-149.98899 a 13.216536,13.216536 0 0 0 0,-0.002 c 44.96102,-71.02929 138.61399,-92.11381 209.64456,-47.13176 a 13.216536,13.216536 0 0 0 0.002,0.002 c 71.03732,44.96024 92.07841,138.61167 47.11704,209.65193 -29.73882,46.98332 -80.80668,72.01593 -132.50961,70.63875 a 13.216536,13.216536 0 0 0 -0.005,0 c -3.64877,-0.096 -15.80301,-3.05054 -27.58676,-4.81081 -5.89187,-0.88014 -11.94296,-1.50451 -18.38707,-0.62804 -6.4432,0.87635 -14.41825,3.9654 -19.02737,11.26286 -6.5e-4,0.001 -0.001,0.001 -0.002,0.002 -11.51837,18.16053 -8.21885,12.97542 -11.54251,18.19817 L 159.61743,420.7636 a 13.216536,13.216536 0 0 0 -0.027,-0.0172 c -13.94485,-8.7805 -32.53565,-4.15044 -41.29548,9.64126 a 13.216536,13.216536 0 0 0 -0.0102,0.0147 c -8.75005,13.81682 -4.94404,32.65146 8.95435,41.48685 a 13.216536,13.216536 0 0 0 0.0245,0.0147 l 68.76938,43.49851 9.68787,6.165 a 13.216536,13.216536 0 0 0 0.0442,0.027 c -0.55347,-0.34914 0.67211,0.89547 -1.14322,3.77309 -1.82915,2.8737 -3.50375,2.32042 -2.94634,2.67405 a 13.216536,13.216536 0 0 0 -0.002,-0.002 l -4.72741,-2.99786 a 13.216536,13.216536 0 0 0 -0.007,-0.002 l -63.26184,-40.06149 a 13.216536,13.216536 0 0 0 -0.0343,-0.0221 c -7.03021,-4.42115 -15.47088,-4.16503 -22.00071,-1.5897 -6.52982,2.57533 -11.929623,7.27794 -15.840602,13.4536 a 13.216536,13.216536 0 0 0 -0.002,0.007 c -3.914332,6.18864 -5.844073,13.08841 -5.370159,20.09208 0.473914,7.00366 3.853546,14.75118 10.897321,19.20156 l 38.34913,24.25769 1.6952,1.07206 c -0.51477,1.08255 -1.0689,2.22059 -1.82277,3.41246 a 13.216536,13.216536 0 0 0 -0.0147,0.0245 c -0.73384,1.16604 -1.5061,2.12811 -2.24717,3.03957 l -23.29847,-14.75381 a 13.216536,13.216536 0 1 0 -14.140507,22.33189 l 29.755417,18.84093 a 13.216536,13.216536 0 0 0 0.0172,0.0126 c 5.06202,3.19451 10.60375,2.54537 13.89273,1.44496 3.28897,-1.1004 5.51062,-2.63363 7.5928,-4.30052 4.15705,-3.32795 7.61952,-7.49507 10.77955,-12.51156 l 0.002,-0.005 c 3.16364,-5.00261 5.44954,-9.90954 6.68754,-15.08746 0.61922,-2.58979 1.0611,-5.24765 0.65993,-8.6894 -0.40117,-3.44174 -2.16611,-8.72896 -7.20028,-11.95712 a 13.216536,13.216536 0 0 0 -0.0662,-0.0417 l -8.15951,-5.16655 a 13.216536,13.216536 0 0 0 -0.002,0 l -36.94344,-23.36716 c 0.0454,-0.7949 0.31117,-2.20052 1.27323,-3.72158 0.97045,-1.5294 2.1249,-2.37117 2.81879,-2.75008 l 61.84142,39.16116 4.7225,2.99541 c 13.8821,8.80475 31.18806,2.14829 39.42856,-10.84334 a 13.216536,13.216536 0 0 0 0.0102,-0.0147 c 8.23453,-13.01901 6.78746,-31.49784 -7.08252,-40.25531 l -0.007,-0.007 -9.65598,-6.14539 a 13.216536,13.216536 0 0 0 -0.0319,-0.0196 l -68.75957,-43.49114 c -1.54606,-0.98285 -2.12206,-2.94558 -0.80711,-5.03161 1.2992,-2.03674 3.41174,-2.37506 4.89668,-1.44006 l 75.16008,47.57089 a 13.216536,13.216536 0 0 0 18.22026,-4.0773 l 4.84762,-7.62959 0.007,-0.0102 c 7.96073,-12.50526 1.65293,-2.60255 13.23526,-20.86731 0.0986,0.002 0.0876,0.0172 0.80957,-0.0809 2.07406,-0.2821 6.21246,-0.12171 10.91939,0.58142 9.41388,1.40627 20.09129,4.80851 30.79806,5.0905 60.71544,1.61554 120.75151,-27.96243 155.54068,-82.92462 52.59884,-83.1077 27.79588,-193.5181 -55.31089,-246.11943 l -0.002,-0.002 C 368.57118,114.91034 333.56821,106.07252 299.2134,107.11463 Z"
     id="path5034"
     inkscape:connector-curvature="0" /><path
     style="color:#000000;font-style:normal;font-variant:normal;font-weight:normal;font-stretch:normal;font-size:medium;line-height:normal;font-family:sans-serif;font-variant-ligatures:normal;font-variant-position:normal;font-variant-caps:normal;font-variant-numeric:normal;font-variant-alternates:normal;font-feature-settings:normal;text-indent:0;text-align:start;text-decoration:none;text-decoration-line:none;text-decoration-style:solid;text-decoration-color:#000000;letter-spacing:normal;word-spacing:normal;text-transform:none;writing-mode:lr-tb;direction:ltr;text-orientation:mixed;dominant-baseline:auto;baseline-shift:baseline;text-anchor:start;white-space:normal;shape-padding:0;clip-rule:nonzero;display:inline;overflow:visible;visibility:visible;opacity:1;isolation:auto;mix-blend-mode:normal;color-interpolation:sRGB;color-interpolation-filters:linearRGB;solid-color:#000000;solid-opacity:1;vector-effect:none;fill:#1d1d1b;fill-opacity:1;fill-rule:nonzero;stroke:none;stroke-width:13.21527767;stroke-linecap:round;stroke-linejoin:round;stroke-miterlimit:10;stroke-dasharray:none;stroke-dashoffset:0;stroke-opacity:1;color-rendering:auto;image-rendering:auto;shape-rendering:auto;text-rendering:auto;enable-background:accumulate"
     d="m 251.54057,249.27682 c -2.0049,0.20101 -3.95088,0.62606 -5.80193,1.25851 -7.4042,2.5298 -13.25127,7.93484 -17.1212,14.39565 -3.86994,6.4608 -5.869,14.12175 -4.92367,21.79218 0.94533,7.67043 5.22137,15.32605 12.9237,20.20738 a 6.6082996,6.6082996 0 0 0 0.002,0 c 9.4344,5.97528 12.87777,8.15427 20.45516,12.95069 -23.96827,37.88604 -64.37317,101.71893 -64.37317,101.71893 a 6.6082996,6.6082996 0 1 0 11.16717,7.06779 c 0,0 40.39993,-63.82647 64.37072,-101.71647 1.22286,0.77396 6.99175,4.42566 6.99175,4.42566 v -0.002 c 0,0 5.69786,3.60145 6.8838,4.35205 -23.89395,37.12288 -68.58293,97.26139 -68.58293,97.26139 a 6.6085921,6.6085921 0 1 0 10.60048,7.89453 c 0,0 44.68209,-60.04901 69.15454,-98.09303 7.58163,4.79557 11.05903,7.00187 20.55574,12.99485 9.6e-4,6.1e-4 10e-4,0.001 0.002,0.002 0.004,0.002 0.005,0.002 0.0102,0.005 7.69699,4.87474 16.4395,5.4697 23.77195,3.04694 7.3364,-2.42406 13.40537,-7.50922 17.58976,-13.77007 4.18441,-6.26085 6.56792,-13.85544 5.68908,-21.63027 -0.87872,-7.77387 -5.4172,-15.50612 -13.51002,-20.6318 l -0.002,-0.002 c -11.61903,-7.36238 -23.78151,-8.80142 -34.13937,-3.09108 -8.60789,4.74558 -15.91553,13.32042 -23.8161,25.00838 -1.27057,-0.80414 -7.13894,-4.51151 -7.13894,-4.51151 0,0 -5.87339,-3.71905 -7.14878,-4.52624 7.18655,-12.14111 11.80776,-22.41408 12.41345,-32.22339 0.72892,-11.80549 -5.77694,-22.18131 -17.39598,-29.53216 l -0.002,-0.002 c -6.07064,-3.84257 -12.61131,-5.25183 -18.62504,-4.6489 z m 1.42043,13.06844 c 3.01525,-0.37419 6.26977,0.29777 10.13926,2.74764 a 6.6082996,6.6082996 0 0 0 0,0.002 c 9.31006,5.8892 11.72342,10.25018 11.27266,17.55053 -0.36988,5.99046 -3.94998,14.73597 -10.42874,25.94307 -7.554,-4.78162 -10.91155,-6.90763 -20.25155,-12.82311 h -0.002 c -4.51912,-2.8646 -6.35776,-6.41086 -6.88136,-10.65936 -0.52367,-4.24904 0.6532,-9.22477 3.14506,-13.38491 2.49187,-4.16013 6.19284,-7.35885 10.0583,-8.67957 0.96639,-0.33019 1.94372,-0.572 2.94881,-0.69673 z m 75.92795,46.74414 c 3.20758,0.3745 6.77966,1.9295 11.43457,4.87951 a 6.6082996,6.6082996 0 0 0 0.002,0 c 5.15797,3.26608 6.98918,6.89423 7.44804,10.95374 0.45888,4.0595 -0.85051,8.77201 -3.54493,12.80349 -2.69443,4.03148 -6.68721,7.22263 -10.74767,8.56429 -4.06048,1.34163 -8.04666,1.19529 -12.56308,-1.66823 a 6.6082996,6.6082996 0 0 0 -0.0102,-0.007 c -9.35567,-5.90395 -12.70776,-8.02974 -20.25891,-12.80594 7.35828,-10.64679 13.72975,-17.62623 18.98567,-20.52384 3.20264,-1.76565 6.04606,-2.57018 9.25365,-2.19567 z"
     id="path5036"
     inkscape:connector-curvature="0" /><path
     style="color:#000000;font-style:normal;font-variant:normal;font-weight:normal;font-stretch:normal;font-size:medium;line-height:normal;font-family:sans-serif;font-variant-ligatures:normal;font-variant-position:normal;font-variant-caps:normal;font-variant-numeric:normal;font-variant-alternates:normal;font-feature-settings:normal;text-indent:0;text-align:start;text-decoration:none;text-decoration-line:none;text-decoration-style:solid;text-decoration-color:#000000;letter-spacing:normal;word-spacing:normal;text-transform:none;writing-mode:lr-tb;direction:ltr;text-orientation:mixed;dominant-baseline:auto;baseline-shift:baseline;text-anchor:start;white-space:normal;shape-padding:0;clip-rule:nonzero;display:inline;overflow:visible;visibility:visible;opacity:1;isolation:auto;mix-blend-mode:normal;color-interpolation:sRGB;color-interpolation-filters:linearRGB;solid-color:#000000;solid-opacity:1;vector-effect:none;fill:#1d1d1b;fill-opacity:1;fill-rule:nonzero;stroke:none;stroke-width:13.21527767;stroke-linecap:round;stroke-linejoin:round;stroke-miterlimit:10;stroke-dasharray:none;stroke-dashoffset:0;stroke-opacity:1;color-rendering:auto;image-rendering:auto;shape-rendering:auto;text-rendering:auto;enable-background:accumulate"
     d="m 80.404594,296.09945 a 6.6082996,6.6082996 0 0 0 -0.461213,0.0245 l -31.617425,2.4606 a 6.6082996,6.6082996 0 1 0 1.025449,13.17637 l 31.617437,-2.46057 a 6.6082996,6.6082996 0 0 0 -0.564248,-13.20093 z"
     id="line5038"
     inkscape:connector-curvature="0" /><path
     style="color:#000000;font-style:normal;font-variant:normal;font-weight:normal;font-stretch:normal;font-size:medium;line-height:normal;font-family:sans-serif;font-variant-ligatures:normal;font-variant-position:normal;font-variant-caps:normal;font-variant-numeric:normal;font-variant-alternates:normal;font-feature-settings:normal;text-indent:0;text-align:start;text-decoration:none;text-decoration-line:none;text-decoration-style:solid;text-decoration-color:#000000;letter-spacing:normal;word-spacing:normal;text-transform:none;writing-mode:lr-tb;direction:ltr;text-orientation:mixed;dominant-baseline:auto;baseline-shift:baseline;text-anchor:start;white-space:normal;shape-padding:0;clip-rule:nonzero;display:inline;overflow:visible;visibility:visible;opacity:1;isolation:auto;mix-blend-mode:normal;color-interpolation:sRGB;color-interpolation-filters:linearRGB;solid-color:#000000;solid-opacity:1;vector-effect:none;fill:#1d1d1b;fill-opacity:1;fill-rule:nonzero;stroke:none;stroke-width:13.21527767;stroke-linecap:round;stroke-linejoin:round;stroke-miterlimit:10;stroke-dasharray:none;stroke-dashoffset:0;stroke-opacity:1;color-rendering:auto;image-rendering:auto;shape-rendering:auto;text-rendering:auto;enable-background:accumulate"
     d="m 41.189465,191.26491 a 6.6082996,6.6082996 0 0 0 -1.491573,13.08316 l 47.001732,10.1957 a 6.6082996,6.6082996 0 1 0 2.801608,-12.91389 L 42.4995,191.43419 a 6.6082996,6.6082996 0 0 0 -1.310035,-0.16928 z"
     id="line5040"
     inkscape:connector-curvature="0" /><path
     style="color:#000000;font-style:normal;font-variant:normal;font-weight:normal;font-stretch:normal;font-size:medium;line-height:normal;font-family:sans-serif;font-variant-ligatures:normal;font-variant-position:normal;font-variant-caps:normal;font-variant-numeric:normal;font-variant-alternates:normal;font-feature-settings:normal;text-indent:0;text-align:start;text-decoration:none;text-decoration-line:none;text-decoration-style:solid;text-decoration-color:#000000;letter-spacing:normal;word-spacing:normal;text-transform:none;writing-mode:lr-tb;direction:ltr;text-orientation:mixed;dominant-baseline:auto;baseline-shift:baseline;text-anchor:start;white-space:normal;shape-padding:0;clip-rule:nonzero;display:inline;overflow:visible;visibility:visible;opacity:1;isolation:auto;mix-blend-mode:normal;color-interpolation:sRGB;color-interpolation-filters:linearRGB;solid-color:#000000;solid-opacity:1;vector-effect:none;fill:#1d1d1b;fill-opacity:1;fill-rule:nonzero;stroke:none;stroke-width:13.21527767;stroke-linecap:round;stroke-linejoin:round;stroke-miterlimit:10;stroke-dasharray:none;stroke-dashoffset:0;stroke-opacity:1;color-rendering:auto;image-rendering:auto;shape-rendering:auto;text-rendering:auto;enable-background:accumulate"
     d="m 103.7276,86.432827 a 6.6082996,6.6082996 0 0 0 -4.607189,11.346258 l 33.268459,33.288085 a 6.6082996,6.6082996 0 1 0 9.34687,-9.34196 L 108.46728,88.437125 a 6.6082996,6.6082996 0 0 0 -4.73968,-2.004298 z"
     id="line5042"
     inkscape:connector-curvature="0" /><path
     style="color:#000000;font-style:normal;font-variant:normal;font-weight:normal;font-stretch:normal;font-size:medium;line-height:normal;font-family:sans-serif;font-variant-ligatures:normal;font-variant-position:normal;font-variant-caps:normal;font-variant-numeric:normal;font-variant-alternates:normal;font-feature-settings:normal;text-indent:0;text-align:start;text-decoration:none;text-decoration-line:none;text-decoration-style:solid;text-decoration-color:#000000;letter-spacing:normal;word-spacing:normal;text-transform:none;writing-mode:lr-tb;direction:ltr;text-orientation:mixed;dominant-baseline:auto;baseline-shift:baseline;text-anchor:start;white-space:normal;shape-padding:0;clip-rule:nonzero;display:inline;overflow:visible;visibility:visible;opacity:1;isolation:auto;mix-blend-mode:normal;color-interpolation:sRGB;color-interpolation-filters:linearRGB;solid-color:#000000;solid-opacity:1;vector-effect:none;fill:#1d1d1b;fill-opacity:1;fill-rule:nonzero;stroke:none;stroke-width:13.21527767;stroke-linecap:round;stroke-linejoin:round;stroke-miterlimit:10;stroke-dasharray:none;stroke-dashoffset:0;stroke-opacity:1;color-rendering:auto;image-rendering:auto;shape-rendering:auto;text-rendering:auto;enable-background:accumulate"
     d="m 211.60663,8.0467148 a 6.6082996,6.6082996 0 0 0 -6.58206,8.3533032 l 14.0988,54.408078 a 6.6082996,6.6082996 0 1 0 12.79368,-3.314332 l -14.0988,-54.408082 a 6.6082996,6.6082996 0 0 0 -6.21162,-5.0389672 z"
     id="line5044"
     inkscape:connector-curvature="0" /><path
     style="color:#000000;font-style:normal;font-variant:normal;font-weight:normal;font-stretch:normal;font-size:medium;line-height:normal;font-family:sans-serif;font-variant-ligatures:normal;font-variant-position:normal;font-variant-caps:normal;font-variant-numeric:normal;font-variant-alternates:normal;font-feature-settings:normal;text-indent:0;text-align:start;text-decoration:none;text-decoration-line:none;text-decoration-style:solid;text-decoration-color:#000000;letter-spacing:normal;word-spacing:normal;text-transform:none;writing-mode:lr-tb;direction:ltr;text-orientation:mixed;dominant-baseline:auto;baseline-shift:baseline;text-anchor:start;white-space:normal;shape-padding:0;clip-rule:nonzero;display:inline;overflow:visible;visibility:visible;opacity:1;isolation:auto;mix-blend-mode:normal;color-interpolation:sRGB;color-interpolation-filters:linearRGB;solid-color:#000000;solid-opacity:1;vector-effect:none;fill:#1d1d1b;fill-opacity:1;fill-rule:nonzero;stroke:none;stroke-width:13.21527767;stroke-linecap:round;stroke-linejoin:round;stroke-miterlimit:10;stroke-dasharray:none;stroke-dashoffset:0;stroke-opacity:1;color-rendering:auto;image-rendering:auto;shape-rendering:auto;text-rendering:auto;enable-background:accumulate"
     d="m 335.72124,5.8755934 a 6.6082996,6.6082996 0 0 0 -6.36373,6.1674596 l -3.84913,47.904531 a 6.6082996,6.6082996 0 1 0 13.17392,1.059801 l 3.84914,-47.90453 a 6.6082996,6.6082996 0 0 0 -6.8102,-7.2272616 z"
     id="line5046"
     inkscape:connector-curvature="0" /><path
     style="color:#000000;font-style:normal;font-variant:normal;font-weight:normal;font-stretch:normal;font-size:medium;line-height:normal;font-family:sans-serif;font-variant-ligatures:normal;font-variant-position:normal;font-variant-caps:normal;font-variant-numeric:normal;font-variant-alternates:normal;font-feature-settings:normal;text-indent:0;text-align:start;text-decoration:none;text-decoration-line:none;text-decoration-style:solid;text-decoration-color:#000000;letter-spacing:normal;word-spacing:normal;text-transform:none;writing-mode:lr-tb;direction:ltr;text-orientation:mixed;dominant-baseline:auto;baseline-shift:baseline;text-anchor:start;white-space:normal;shape-padding:0;clip-rule:nonzero;display:inline;overflow:visible;visibility:visible;opacity:1;isolation:auto;mix-blend-mode:normal;color-interpolation:sRGB;color-interpolation-filters:linearRGB;solid-color:#000000;solid-opacity:1;vector-effect:none;fill:#1d1d1b;fill-opacity:1;fill-rule:nonzero;stroke:none;stroke-width:13.21527767;stroke-linecap:round;stroke-linejoin:round;stroke-miterlimit:10;stroke-dasharray:none;stroke-dashoffset:0;stroke-opacity:1;color-rendering:auto;image-rendering:auto;shape-rendering:auto;text-rendering:auto;enable-background:accumulate"
     d="m 455.20656,42.210615 a 6.6082996,6.6082996 0 0 0 -5.299,3.142608 l -28.87715,45.608298 a 6.6082996,6.6082996 0 1 0 11.16472,7.070246 l 28.87715,-45.60829 a 6.6082996,6.6082996 0 0 0 -5.86572,-10.212862 z"
     id="line5048"
     inkscape:connector-curvature="0" /><path
     style="color:#000000;font-style:normal;font-variant:normal;font-weight:normal;font-stretch:normal;font-size:medium;line-height:normal;font-family:sans-serif;font-variant-ligatures:normal;font-variant-position:normal;font-variant-caps:normal;font-variant-numeric:normal;font-variant-alternates:normal;font-feature-settings:normal;text-indent:0;text-align:start;text-decoration:none;text-decoration-line:none;text-decoration-style:solid;text-decoration-color:#000000;letter-spacing:normal;word-spacing:normal;text-transform:none;writing-mode:lr-tb;direction:ltr;text-orientation:mixed;dominant-baseline:auto;baseline-shift:baseline;text-anchor:start;white-space:normal;shape-padding:0;clip-rule:nonzero;display:inline;overflow:visible;visibility:visible;opacity:1;isolation:auto;mix-blend-mode:normal;color-interpolation:sRGB;color-interpolation-filters:linearRGB;solid-color:#000000;solid-opacity:1;vector-effect:none;fill:#1d1d1b;fill-opacity:1;fill-rule:nonzero;stroke:none;stroke-width:13.21527767;stroke-linecap:round;stroke-linejoin:round;stroke-miterlimit:10;stroke-dasharray:none;stroke-dashoffset:0;stroke-opacity:1;color-rendering:auto;image-rendering:auto;shape-rendering:auto;text-rendering:auto;enable-background:accumulate"
     d="m 385.89502,485.26924 a 6.6082996,6.6082996 0 0 0 -6.1233,9.15306 l 9.8645,24.61587 a 6.6085316,6.6085316 0 1 0 12.26869,-4.9163 L 392.03795,489.506 a 6.6082996,6.6082996 0 0 0 -6.14293,-4.23676 z"
     id="line5050"
     inkscape:connector-curvature="0" /><path
     style="color:#000000;font-style:normal;font-variant:normal;font-weight:normal;font-stretch:normal;font-size:medium;line-height:normal;font-family:sans-serif;font-variant-ligatures:normal;font-variant-position:normal;font-variant-caps:normal;font-variant-numeric:normal;font-variant-alternates:normal;font-feature-settings:normal;text-indent:0;text-align:start;text-decoration:none;text-decoration-line:none;text-decoration-style:solid;text-decoration-color:#000000;letter-spacing:normal;word-spacing:normal;text-transform:none;writing-mode:lr-tb;direction:ltr;text-orientation:mixed;dominant-baseline:auto;baseline-shift:baseline;text-anchor:start;white-space:normal;shape-padding:0;clip-rule:nonzero;display:inline;overflow:visible;visibility:visible;opacity:1;isolation:auto;mix-blend-mode:normal;color-interpolation:sRGB;color-interpolation-filters:linearRGB;solid-color:#000000;solid-opacity:1;vector-effect:none;fill:#1d1d1b;fill-opacity:1;fill-rule:nonzero;stroke:none;stroke-width:13.21527767;stroke-linecap:round;stroke-linejoin:round;stroke-miterlimit:10;stroke-dasharray:none;stroke-dashoffset:0;stroke-opacity:1;color-rendering:auto;image-rendering:auto;shape-rendering:auto;text-rendering:auto;enable-background:accumulate"
     d="m 461.61691,434.73728 a 6.6082996,6.6082996 0 0 0 -5.37016,10.71088 l 29.31628,38.09891 a 6.6082996,6.6082996 0 1 0 10.4729,-8.05892 l -29.31628,-38.09891 a 6.6082996,6.6082996 0 0 0 -5.10274,-2.65196 z"
     id="line5052"
     inkscape:connector-curvature="0" /><path
     style="color:#000000;font-style:normal;font-variant:normal;font-weight:normal;font-stretch:normal;font-size:medium;line-height:normal;font-family:sans-serif;font-variant-ligatures:normal;font-variant-position:normal;font-variant-caps:normal;font-variant-numeric:normal;font-variant-alternates:normal;font-feature-settings:normal;text-indent:0;text-align:start;text-decoration:none;text-decoration-line:none;text-decoration-style:solid;text-decoration-color:#000000;letter-spacing:normal;word-spacing:normal;text-transform:none;writing-mode:lr-tb;direction:ltr;text-orientation:mixed;dominant-baseline:auto;baseline-shift:baseline;text-anchor:start;white-space:normal;shape-padding:0;clip-rule:nonzero;display:inline;overflow:visible;visibility:visible;opacity:1;isolation:auto;mix-blend-mode:normal;color-interpolation:sRGB;color-interpolation-filters:linearRGB;solid-color:#000000;solid-opacity:1;vector-effect:none;fill:#1d1d1b;fill-opacity:1;fill-rule:nonzero;stroke:none;stroke-width:13.21527767;stroke-linecap:round;stroke-linejoin:round;stroke-miterlimit:10;stroke-dasharray:none;stroke-dashoffset:0;stroke-opacity:1;color-rendering:auto;image-rendering:auto;shape-rendering:auto;text-rendering:auto;enable-background:accumulate"
     d="m 513.78026,354.48916 a 6.6082996,6.6082996 0 0 0 -2.07053,12.82313 l 40.92504,15.40638 a 6.6082996,6.6082996 0 1 0 4.65626,-12.36681 l -40.92504,-15.40884 a 6.6082996,6.6082996 0 0 0 -2.58573,-0.45386 z"
     id="line5054"
     inkscape:connector-curvature="0" /><path
     style="color:#000000;font-style:normal;font-variant:normal;font-weight:normal;font-stretch:normal;font-size:medium;line-height:normal;font-family:sans-serif;font-variant-ligatures:normal;font-variant-position:normal;font-variant-caps:normal;font-variant-numeric:normal;font-variant-alternates:normal;font-feature-settings:normal;text-indent:0;text-align:start;text-decoration:none;text-decoration-line:none;text-decoration-style:solid;text-decoration-color:#000000;letter-spacing:normal;word-spacing:normal;text-transform:none;writing-mode:lr-tb;direction:ltr;text-orientation:mixed;dominant-baseline:auto;baseline-shift:baseline;text-anchor:start;white-space:normal;shape-padding:0;clip-rule:nonzero;display:inline;overflow:visible;visibility:visible;opacity:1;isolation:auto;mix-blend-mode:normal;color-interpolation:sRGB;color-interpolation-filters:linearRGB;solid-color:#000000;solid-opacity:1;vector-effect:none;fill:#1d1d1b;fill-opacity:1;fill-rule:nonzero;stroke:none;stroke-width:13.21527767;stroke-linecap:round;stroke-linejoin:round;stroke-miterlimit:10;stroke-dasharray:none;stroke-dashoffset:0;stroke-opacity:1;color-rendering:auto;image-rendering:auto;shape-rendering:auto;text-rendering:auto;enable-background:accumulate"
     d="m 582.45887,249.89258 a 6.6082996,6.6082996 0 0 0 -1.11377,0.13247 l -55.21029,10.55877 a 6.6082996,6.6082996 0 1 0 2.48267,12.98013 l 55.2103,-10.55877 a 6.6082996,6.6082996 0 0 0 -1.36891,-13.1126 z"
     id="line5056"
     inkscape:connector-curvature="0" /><path
     style="color:#000000;font-style:normal;font-variant:normal;font-weight:normal;font-stretch:normal;font-size:medium;line-height:normal;font-family:sans-serif;font-variant-ligatures:normal;font-variant-position:normal;font-variant-caps:normal;font-variant-numeric:normal;font-variant-alternates:normal;font-feature-settings:normal;text-indent:0;text-align:start;text-decoration:none;text-decoration-line:none;text-decoration-style:solid;text-decoration-color:#000000;letter-spacing:normal;word-spacing:normal;text-transform:none;writing-mode:lr-tb;direction:ltr;text-orientation:mixed;dominant-baseline:auto;baseline-shift:baseline;text-anchor:start;white-space:normal;shape-padding:0;clip-rule:nonzero;display:inline;overflow:visible;visibility:visible;opacity:1;isolation:auto;mix-blend-mode:normal;color-interpolation:sRGB;color-interpolation-filters:linearRGB;solid-color:#000000;solid-opacity:1;vector-effect:none;fill:#1d1d1b;fill-opacity:1;fill-rule:nonzero;stroke:none;stroke-width:13.21527767;stroke-linecap:round;stroke-linejoin:round;stroke-miterlimit:10;stroke-dasharray:none;stroke-dashoffset:0;stroke-opacity:1;color-rendering:auto;image-rendering:auto;shape-rendering:auto;text-rendering:auto;enable-background:accumulate"
     d="m 532.04223,137.94117 a 6.6082996,6.6082996 0 0 0 -3.59892,0.92241 l -38.97717,22.41286 a 6.6082996,6.6082996 0 1 0 6.58943,11.4542 l 38.97471,-22.41039 a 6.6082996,6.6082996 0 0 0 -2.98805,-12.37908 z"
     id="line5058"
     inkscape:connector-curvature="0" /></svg>