<?xml version="1.0" encoding="UTF-8" standalone="no"?>
<!-- Generated by IcoMoon.io -->

<svg
   xmlns:dc="http://purl.org/dc/elements/1.1/"
   xmlns:cc="http://creativecommons.org/ns#"
   xmlns:rdf="http://www.w3.org/1999/02/22-rdf-syntax-ns#"
   xmlns:svg="http://www.w3.org/2000/svg"
   xmlns="http://www.w3.org/2000/svg"
   xmlns:sodipodi="http://sodipodi.sourceforge.net/DTD/sodipodi-0.dtd"
   xmlns:inkscape="http://www.inkscape.org/namespaces/inkscape"
   version="1.1"
   width="661.41302"
   height="608.67706"
   viewBox="0 0 661.41302 608.67706"
   id="svg4709"
   sodipodi:docname="talkable-storytime.svg"
   inkscape:version="0.92.2 (5c3e80d, 2017-08-06)">
  <metadata
     id="metadata4715">
    <rdf:RDF>
      <cc:Work
         rdf:about="">
        <dc:format>image/svg+xml</dc:format>
        <dc:type
           rdf:resource="http://purl.org/dc/dcmitype/StillImage" />
      </cc:Work>
    </rdf:RDF>
  </metadata>
  <defs
     id="defs4713" />
  <sodipodi:namedview
     pagecolor="#ffffff"
     bordercolor="#666666"
     borderopacity="1"
     objecttolerance="10"
     gridtolerance="10"
     guidetolerance="10"
     inkscape:pageopacity="0"
     inkscape:pageshadow="2"
     inkscape:window-width="640"
     inkscape:window-height="480"
     id="namedview4711"
     showgrid="false"
     inkscape:zoom="0.16296602"
     inkscape:cx="-648.84426"
     inkscape:cy="745.34371"
     inkscape:window-x="0"
     inkscape:window-y="0"
     inkscape:window-maximized="0"
     inkscape:current-layer="svg4709" />
  <title
     id="title4704" />
  <g
     id="icomoon-ignore"
     transform="translate(-0.001,-415.32192)" />
  <path
     d="m 472.667,126.23808 c -33.086,0.492 -57.698,12.437 -74.334,26.036 -2.727,2.154 -4.461,5.46 -4.461,9.172 0,6.439 5.22,11.659 11.659,11.659 2.892,0 5.537,-1.053 7.575,-2.795 l -0.016,0.013 c 13.23,-10.816 32.159,-20.361 59.927,-20.772 h 0.004 0.004 v 0 c 39.17,-0.605 78.974,12.274 107.466,24.709 1.427,0.671 3.1,1.063 4.864,1.063 6.439,0 11.659,-5.22 11.659,-11.659 0,-4.83 -2.937,-8.975 -7.123,-10.744 l -0.077,-0.029 c -30.3,-13.224 -72.718,-27.338 -117.139,-26.653 z m 0,55.747 c -33.086,0.492 -57.698,12.433 -74.334,26.033 -2.684,2.155 -4.387,5.435 -4.387,9.113 0,6.439 5.22,11.659 11.659,11.659 2.857,0 5.474,-1.028 7.502,-2.734 l -0.018,0.015 c 13.23,-10.815 32.159,-20.361 59.927,-20.772 h 0.004 0.004 v 0 c 39.175,-0.603 78.982,12.251 107.485,24.626 1.43,0.674 3.105,1.067 4.873,1.067 6.439,0 11.659,-5.22 11.659,-11.659 0,-4.849 -2.96,-9.006 -7.171,-10.764 l -0.077,-0.029 c -30.289,-13.151 -72.704,-27.237 -117.119,-26.555 z m 0.004,52.006 c -33.089,0.492 -57.7,12.431 -74.338,26.033 -2.684,2.155 -4.387,5.435 -4.387,9.113 0,6.439 5.22,11.659 11.659,11.659 2.857,0 5.474,-1.028 7.502,-2.734 l -0.018,0.015 c 13.227,-10.813 32.155,-20.355 59.915,-20.772 13.482,-0.183 26.975,1.113 39.996,3.54 0.698,0.148 1.5,0.233 2.322,0.233 6.439,0 11.659,-5.22 11.659,-11.659 0,-5.751 -4.163,-10.529 -9.641,-11.485 l -0.07,-0.01 c -14.397,-2.683 -29.398,-4.139 -44.585,-3.933 h -0.008 -0.008 v 0 z m 10.266,256.027 c -63.429,0.981 -92.656,42.878 -101.466,58.363 h -64.865 c -10.364,-9.538 -65.218,-55.363 -160.627,-40.648 -81.363,12.506 -145.47,81.158 -145.47,81.158 -2.041,2.098 -3.299,4.965 -3.299,8.127 0,6.439 5.22,11.659 11.659,11.659 3.352,0 6.374,-1.415 8.501,-3.68 l 0.006,-0.01 c 0,0 61.947,-63.427 132.151,-74.216 h 0.002 0.002 v 0 c 96.199,-14.837 144.472,37.304 144.472,37.304 2.128,2.231 5.123,3.618 8.443,3.618 v 0 h 75.776 c 4.81,-10e-4 8.94,-2.915 10.72,-7.075 l 0.029,-0.076 c 0,0 19.669,-50.212 84.321,-51.216 73.811,-1.107 148.526,45.783 148.526,45.783 1.797,1.188 4.001,1.895 6.371,1.895 6.439,0 11.659,-5.22 11.659,-11.659 0,-4.142 -2.16,-7.779 -5.415,-9.848 l -0.047,-0.028 c 0,0 -77.777,-50.711 -161.444,-49.456 h -0.002 -0.002 v 0 z M 467.666,8.4362482e-5 C 398.473,0.00808436 349.388,38.580084 325.222,62.712084 c -25.332,-20.705 -75.017,-52.103 -145.969,-52.509 h -0.02 C 71.184,9.5090844 19.406,74.404084 3.987,98.720084 1.716,102.25108 0.365,106.56008 0.361,111.18508 v 0.001 L 0,520.14008 v 0.013 c 0,12.878 10.44,23.318 23.318,23.318 5.845,0 11.187,-2.15 15.28,-5.703 l -0.029,0.024 c 0,0 69.145,-55.736 124.195,-58.473 55.654,-2.727 89.891,7.018 154.918,41.17 3.143,1.683 6.875,2.672 10.839,2.672 12.877,0 23.316,-10.438 23.318,-23.314 v 0 -334.27 c 0,-0.055 10e-4,-0.119 10e-4,-0.184 0,-12.878 -10.44,-23.318 -23.318,-23.318 -12.878,0 -23.318,10.44 -23.318,23.318 0,0.065 0,0.129 10e-4,0.193 v -0.01 296.978 c -51.195,-23.241 -92.944,-32.349 -144.723,-29.812 h -0.006 -0.006 v 0 c -44.394,2.201 -85.365,22.797 -113.799,41.084 l 0.314,-355.537 C 61.283,97.217084 96.252,56.297084 178.951,56.834084 h 0.01 0.011 -0.001 C 264.546,57.317084 309,110.69508 309,110.69508 c 4.305,5.058 10.676,8.245 17.791,8.245 7.657,0 14.452,-3.69 18.703,-9.389 l 0.044,-0.062 c 0,0 47.585,-62.857996 122.148,-62.857996 h 0.012 0.012 -10e-4 c 73.485,-0.066 128.602,38.833 145.528,52.179 l 1.387,352.260996 c -27.653,-13.086 -69.428,-28.328 -123.268,-33.71 -60.949,-6.177 -110.672,34.421 -110.672,34.421 -5.804,4.292 -9.526,11.113 -9.526,18.802 0,12.878 10.44,23.318 23.318,23.318 5.468,0 10.497,-1.882 14.473,-5.034 l -0.048,0.037 c 0,0 41.61,-28.816 77.752,-25.152 -0.098,-0.009 -0.085,-0.008 -0.073,-0.006 l 0.109,0.01 c 89.189,8.906 137.388,45.692 137.388,45.692 3.854,2.924 8.73,4.684 14.018,4.684 12.878,0 23.318,-10.44 23.318,-23.318 v -0.091 0.005 L 659.826,87.433084 c -0.027,-6.795 -2.956,-12.9 -7.611,-17.145 l -0.018,-0.017 c 0,0 -76.223,-70.35999964 -184.51,-70.270999637518 z"
     id="path4707"
     inkscape:connector-curvature="0"
     sodipodi:nodetypes="ccsscccccccssccccccsscccccccssccccccssccccssccccccccccccssccccccccccccccsscccccccccccccccssccccsccssssccccccccccccccsccscccccccssccccccssccccccc" />
</svg>
