<?xml version="1.0" encoding="UTF-8" standalone="no"?>
<svg
   xmlns:dc="http://purl.org/dc/elements/1.1/"
   xmlns:cc="http://creativecommons.org/ns#"
   xmlns:rdf="http://www.w3.org/1999/02/22-rdf-syntax-ns#"
   xmlns:svg="http://www.w3.org/2000/svg"
   xmlns="http://www.w3.org/2000/svg"
   xmlns:sodipodi="http://sodipodi.sourceforge.net/DTD/sodipodi-0.dtd"
   xmlns:inkscape="http://www.inkscape.org/namespaces/inkscape"
   width="600"
   height="600"
   version="1.1"
   id="svg3731"
   sodipodi:docname="talkable-key-word-signs.svg"
   inkscape:version="0.92.2 (5c3e80d, 2017-08-06)">
  <metadata
     id="metadata3737">
    <rdf:RDF>
      <cc:Work
         rdf:about="">
        <dc:format>image/svg+xml</dc:format>
        <dc:type
           rdf:resource="http://purl.org/dc/dcmitype/StillImage" />
        <dc:title></dc:title>
      </cc:Work>
    </rdf:RDF>
  </metadata>
  <defs
     id="defs3735" />
  <sodipodi:namedview
     pagecolor="#ffffff"
     bordercolor="#666666"
     borderopacity="1"
     objecttolerance="10"
     gridtolerance="10"
     guidetolerance="10"
     inkscape:pageopacity="0"
     inkscape:pageshadow="2"
     inkscape:window-width="1920"
     inkscape:window-height="1027"
     id="namedview3733"
     showgrid="false"
     inkscape:zoom="0.715"
     inkscape:cx="297.83852"
     inkscape:cy="386.90942"
     inkscape:window-x="-8"
     inkscape:window-y="-8"
     inkscape:window-maximized="1"
     inkscape:current-layer="svg_3" />
  <g
     id="g3722">
    <title
       id="title3719">background</title>
    <rect
       fill="none"
       id="canvas_background"
       height="402"
       width="582"
       y="-1"
       x="-1" />
  </g>
  <g
     id="g3729">
    <title
       id="title3724">Layer 1</title>
    <g
       id="svg_3">
      <path
         style="color:#000000;font-style:normal;font-variant:normal;font-weight:normal;font-stretch:normal;font-size:medium;line-height:normal;font-family:sans-serif;font-variant-ligatures:normal;font-variant-position:normal;font-variant-caps:normal;font-variant-numeric:normal;font-variant-alternates:normal;font-feature-settings:normal;text-indent:0;text-align:start;text-decoration:none;text-decoration-line:none;text-decoration-style:solid;text-decoration-color:#000000;letter-spacing:normal;word-spacing:normal;text-transform:none;writing-mode:lr-tb;direction:ltr;text-orientation:mixed;dominant-baseline:auto;baseline-shift:baseline;text-anchor:start;white-space:normal;shape-padding:0;clip-rule:nonzero;display:inline;overflow:visible;visibility:visible;opacity:1;isolation:auto;mix-blend-mode:normal;color-interpolation:sRGB;color-interpolation-filters:linearRGB;solid-color:#000000;solid-opacity:1;vector-effect:none;fill:#000000;fill-opacity:1;fill-rule:nonzero;stroke:none;stroke-width:27.07016945;stroke-linecap:round;stroke-linejoin:round;stroke-miterlimit:10;stroke-dasharray:none;stroke-dashoffset:0;stroke-opacity:1;color-rendering:auto;image-rendering:auto;shape-rendering:auto;text-rendering:auto;enable-background:accumulate"
         d="m 341.3049,4.5438103 c -5.56774,-0.070929 -11.21191,1.1109315 -16.14516,3.7481465 -6.57768,3.5162872 -11.50255,9.0241292 -15.42146,15.3432772 -4.52909,7.303047 -8.07205,16.177645 -11.37176,26.56091 -0.47488,-6.281289 -1.56967,-11.976916 -3.84196,-17.065458 -5.42901,-12.157662 -17.52049,-18.208977 -27.49013,-20.386968 a 13.536439,13.536439 0 0 0 -0.0223,-0.0045 c -6.09382,-1.320153 -12.85517,-1.097574 -18.83009,1.46084 -5.9749,2.558412 -10.59155,7.04818 -14.02316,12.019533 -6.86321,9.942704 -10.53864,22.364705 -14.57934,38.638519 a 13.536439,13.536439 0 0 0 0,0.0023 c -1.60698,6.477116 -3.51307,14.923215 -5.2425,22.160524 -0.56974,-1.539895 -1.08539,-3.093446 -1.85173,-4.581317 -4.65551,-9.038902 -14.78685,-16.106126 -25.74562,-16.915799 a 13.536439,13.536439 0 0 0 -0.005,0 c -7.83916,-0.576476 -15.87876,1.960497 -21.51723,6.500064 -5.63845,4.539565 -9.06317,10.275615 -11.70904,16.096035 -5.29176,11.640839 -7.91126,24.687003 -11.55269,37.088333 a 13.536439,13.536439 0 0 0 -0.005,0.0134 c -8.51945,29.11957 -18.47014,66.76306 -25.54457,94.09679 -4.96679,19.19042 -8.36617,32.72058 -8.96607,35.11151 -1.15419,2.77875 -20.493238,49.61418 -34.856858,105.07766 -7.40107,28.57838 -13.454674,59.26821 -14.746877,87.64362 -1.292203,28.37541 1.667024,54.93961 15.964237,74.79763 a 13.536439,13.536439 0 0 0 0.005,0.007 c 25.98261,36.04768 76.274908,59.05458 129.244028,68.34226 52.96912,9.28767 109.45279,4.77901 148.33546,-23.23494 20.58983,-14.83663 27.31633,-40.32746 37.21342,-64.36179 9.89709,-24.03434 21.39713,-46.78875 42.23031,-60.28083 a 13.536439,13.536439 0 0 0 0.0114,-0.007 c 33.23815,-21.5715 65.0162,-25.02053 90.0337,-29.95614 12.50873,-2.4678 24.23922,-4.67659 33.51664,-14.15271 4.63871,-4.73806 7.77094,-11.48159 8.57516,-18.41684 0.8041,-6.93394 -0.23209,-14.0155 -2.45706,-21.87238 -5.47407,-19.35198 -22.90107,-30.28697 -41.19611,-35.39519 -18.29504,-5.10822 -39.15687,-5.81545 -59.27342,-4.93424 -40.23312,1.76243 -77.80419,10.49392 -77.80419,10.49392 a 13.536439,13.536439 0 1 0 6.08236,26.37774 c 0,0 35.86727,-8.20354 72.90568,-9.82604 18.51922,-0.81124 37.25345,0.17743 50.80995,3.96259 13.55651,3.78515 20.23673,8.94159 22.42858,16.69019 a 13.536439,13.536439 0 0 0 0.002,0.005 c 1.61311,5.69535 1.83259,9.48479 1.61274,11.3807 -0.21987,1.89591 -0.3904,1.94252 -1.02975,2.59556 -1.27868,1.30607 -8.00444,4.2828 -19.41306,6.53357 -22.81727,4.50153 -60.72398,8.62253 -99.52915,33.80702 -28.50791,18.46768 -42.18264,47.543 -52.5366,72.6868 -10.3553,25.14706 -18.95696,46.18633 -28.00834,52.70858 -29.47238,21.23407 -79.81022,26.95366 -127.83458,18.53299 -48.0214,-8.42014 -92.88958,-31.05577 -111.955198,-57.50209 l -0.005,-0.005 c -8.19895,-11.39224 -12.04235,-32.37414 -10.88704,-57.74334 1.15545,-25.37274 6.79972,-54.62945 13.91147,-82.09066 C 113.01249,311.3712 132.82609,263.84951 132.82609,263.84951 a 13.536439,13.536439 0 0 0 0.63884,-1.92546 c 0,0 0.0204,-0.0751 0.0581,-0.22559 0.4823,-1.92307 4.04902,-16.12553 9.08893,-35.59847 7.04065,-27.20321 16.96906,-64.73253 25.31674,-93.26585 l 0.005,-0.0114 c 3.9975,-13.61557 6.94052,-26.2886 10.21918,-33.501024 1.63983,-3.607287 3.25377,-5.580536 4.04076,-6.214143 0.78699,-0.633618 0.55795,-0.732121 2.55535,-0.58523 l -0.005,-0.0023 c 3.04985,0.225334 2.5136,0.06027 3.67443,2.314114 1.16085,2.253819 2.36343,7.919523 1.89418,15.792263 a 13.536439,13.536439 0 0 0 0,0.0178 c -2.88723,49.51883 -16.545,157.7907 -16.545,157.7907 a 13.536439,13.536439 0 0 0 26.66589,4.51431 c 0,0 27.57181,-129.63859 45.41779,-201.56897 v -0.0023 c 3.78629,-15.248516 7.73584,-25.653603 10.5855,-29.781905 1.42491,-2.064261 2.18688,-2.422085 2.399,-2.512911 0.21133,-0.0905 0.45841,-0.314424 2.43473,0.111689 6.40119,1.398526 7.02053,1.583046 8.53497,4.974447 1.5161,3.39517 2.88563,13.63463 -0.25242,32.958223 C 257.709,149.94075 239.84264,269.30378 239.84264,269.30378 a 13.536439,13.536439 0 0 0 -0.14966,2.00363 c 0,5e-5 26.56161,3.67568 26.56761,3.65432 0.006,-0.0214 0.008,-0.0311 0.0114,-0.0424 0.007,-0.0227 0.0141,-0.044 0.0223,-0.0738 0.0165,-0.0595 0.0389,-0.14258 0.0693,-0.25241 0.0608,-0.21966 0.15042,-0.54583 0.26805,-0.97166 0.23524,-0.85165 0.5835,-2.10892 1.03196,-3.73698 0.89691,-3.2561 2.19888,-7.99409 3.82409,-13.9271 3.25043,-11.86604 7.78926,-28.51006 12.95099,-47.63362 10.32347,-38.24714 23.13177,-86.39135 33.09671,-126.119118 a 13.536439,13.536439 0 0 0 0.002,-0.01338 c 5.44823,-21.810845 10.66679,-36.968737 15.20702,-44.289773 2.27012,-3.660518 4.08163,-5.15139 5.17548,-5.736138 1.09385,-0.584748 1.85917,-0.859929 4.55005,-0.422168 a 13.536439,13.536439 0 0 0 0.009,0.0023 c 2.67728,0.433898 3.4352,0.990148 4.49421,2.202426 1.05898,1.212279 2.43085,3.723178 3.30363,8.354034 1.74556,9.26171 0.84904,25.973827 -3.38181,48.017824 a 13.536439,13.536439 0 0 0 -0.002,0.0092 c -15.36612,80.360783 -42.1262,194.376423 -42.1262,194.376423 l 0.19656,0.0223 c -0.25216,1.39826 -0.55395,3.07353 -0.55395,3.07357 a 13.536439,13.536439 0 0 0 26.23031,4.67066 c -1.9e-4,9.7e-4 -0.009,0.0422 -0.009,0.0424 0.003,-0.009 0.007,-0.0148 0.0134,-0.0312 0.0193,-0.0514 0.0502,-0.13363 0.0916,-0.24348 0.0828,-0.2197 0.20714,-0.55138 0.3708,-0.98506 0.32729,-0.86738 0.81196,-2.14889 1.4385,-3.80846 1.25305,-3.31915 3.07426,-8.14541 5.3497,-14.17059 4.55089,-12.05034 10.9159,-28.8996 18.16891,-48.09599 14.50601,-38.39278 32.56604,-86.1759 46.78481,-123.73798 a 13.536439,13.536439 0 0 0 0.005,-0.007 c 7.15991,-18.948639 13.12822,-31.270877 17.22852,-35.864271 2.05016,-2.296698 3.04962,-2.733783 4.3021,-3.03113 1.25249,-0.297347 3.50883,-0.388699 7.73307,0.880077 3.67312,1.10671 4.04819,1.820905 4.83596,3.384054 0.78849,1.564588 1.51731,5.033468 1.12355,10.317454 -0.78752,10.567966 -5.9326,26.810746 -11.28242,43.438736 a 13.536439,13.536439 0 0 0 -0.002,0.009 c -17.06392,53.15077 -37.83615,124.22684 -47.68053,171.48105 a 13.536439,13.536439 0 1 0 26.5006,5.51947 c 9.39187,-45.08211 30.08858,-116.19262 46.95457,-168.7269 l -0.005,0.009 c 5.27817,-16.40529 11.29308,-33.376833 12.51095,-49.719893 0.60894,-8.17153 0.0512,-16.581387 -3.94471,-24.510375 -3.99591,-7.928988 -11.90578,-14.323499 -21.21567,-17.125768 a 13.536439,13.536439 0 0 0 -0.009,-0.0023 c -7.19684,-2.161611 -14.56245,-3.002629 -21.77185,-1.291077 -7.20941,1.711552 -13.51199,6.040698 -18.24485,11.342722 -9.46572,10.604047 -14.98459,24.809748 -22.35709,44.321051 -2.18474,5.771446 -4.84896,12.82648 -7.18804,19.00878 0.99846,-5.04749 2.21367,-10.60575 3.14058,-15.452738 l 0.002,-0.0091 c 4.52363,-23.571903 6.35855,-42.400067 3.39523,-58.123072 -1.48217,-7.86225 -4.32492,-15.205696 -9.5181,-21.150582 C 362.1681,10.193863 354.63562,6.2922938 346.80901,5.0238631 345.00209,4.7303466 343.15812,4.567225 341.30518,4.5436177 Z"
         id="svg_1"
         inkscape:connector-curvature="0" />
      <path
         id="svg_2"
         d="m 177.99547,436.37367 c 0.47347,-16.44231 -54.48367,-101.74287 -29.84593,-114.59296 6.0808,-3.16792 12.68655,-0.199 18.95491,6.41246 14.80117,15.59372 38.96543,75.22154 38.96543,75.22154 0,0 -19.51073,-60.05326 -19.69829,-85.00321 -0.0743,-9.38024 3.41152,-16.16668 10.02298,-17.77581 5.86237,-1.43414 12.47497,2.75735 16.7042,11.31646 9.88575,20.05854 28.02409,82.90574 28.02409,82.90574 0,0.024 -9.75422,-57.48461 -9.51863,-79.09051 0.0812,-8.03303 3.75576,-13.54658 8.7764,-14.64449 5.44494,-1.20998 10.6783,3.36806 14.67079,11.32789 10.60282,21.20677 20.30214,74.04929 20.30214,74.04929 0,0 -1.92705,-36.67697 0.52951,-50.72333 0.97897,-5.56273 4.67869,-9.15609 9.1195,-9.95322 19.03726,-3.4687 29.92599,62.32227 29.92599,62.32227 0,0 45.5826,81.48533 23.62788,116.68813 -21.90554,35.23025 -99.54819,56.98598 -138.61998,33.90705 -16.94666,-10.05615 -26.49045,-46.70682 -45.52656,-57.90891 -18.21269,-10.70345 -47.74068,-13.24808 -43.74819,-34.68015 5.4964,-29.58861 67.33376,-9.77824 67.33376,-9.77824 z"
         inkscape:connector-curvature="0"
         style="stroke-width:1.14365375" />
    </g>
  </g>
</svg>
