<!-- Generated by IcoMoon.io -->
<svg version="1.1" xmlns="http://www.w3.org/2000/svg" width="1600" height="1024" viewBox="0 0 1600 1024">
<title></title>
<g id="icomoon-ignore">
</g>
<path fill="#000" d="M991.623 0c-147.67 0-276.147 78.226-349.741 194.209-10.906-1.349-22.12-2.359-33.958-2.359-130.832 0-242.636 79.315-292.019 192.066-174.424 2.309-315.906 144.977-315.906 319.934 0 176.39 143.761 320.151 320.151 320.151h959.246c176.39 0 320.151-143.761 320.151-320.151 0-130.833-79.305-242.706-192.072-292.101-2.356-227.393-187.917-411.749-415.853-411.749zM991.623 64.754c194.398 0 351.322 156.92 351.322 351.322 0 0.016-1.332 5.483-1.669 16.013v0.006l-0.755 23.776 22.465 7.828c99.867 34.786 171.808 128.365 171.808 240.151 0 141.368-114.029 255.397-255.397 255.397h-959.246c-141.368 0-255.397-114.029-255.397-255.397s114.029-255.397 255.397-255.397c0.967 0 5.871 1.016 15.023 1.616l0.065 0.006 24.567 1.511 8.068-23.192c34.796-99.874 128.269-171.791 240.052-171.791 14.646 0 29.476 1.838 44.842 4.561l22.576 4.034 11.288-20.029v-0.013c60.346-107.285 173.306-180.403 304.993-180.403z"></path>
<path fill="#000" d="M556.039 306.228l664.307 309.575-664.307 309.627z"></path>
</svg>
