<!-- Generated by IcoMoon.io -->
<svg version="1.1" xmlns="http://www.w3.org/2000/svg" width="1024" height="1024" viewBox="0 0 1024 1024">
<title></title>
<g id="icomoon-ignore">
</g>
<path d="M330.25 749.329c0.821-28.527-94.536-176.538-51.788-198.829 10.549-5.495 22.012-0.345 32.888 11.125 25.685 27.055 67.613 130.521 67.613 130.521s-33.853-104.2-34.18-147.487c-0.128-16.278 5.92-28.054 17.388-30.842 10.171-2.485 21.648 4.782 28.982 19.633 17.153 34.802 48.623 143.847 48.623 143.847 0 0.038-16.928-99.743-16.517-137.234 0.128-13.936 6.515-23.508 15.227-25.41 9.443-2.097 18.528 5.847 25.453 19.657 18.4 36.795 35.232 128.48 35.232 128.48s-3.348-63.642 0.921-88.013c1.696-9.649 8.116-15.89 15.826-17.268 33.032-6.019 51.929 108.133 51.929 108.133s79.088 141.388 40.992 202.463c-38.008 61.13-172.725 98.877-240.523 58.835-29.408-17.445-45.967-81.044-78.996-100.478-31.599-18.574-82.839-22.989-75.909-60.176 9.538-51.342 116.831-16.967 116.831-16.967zM613.604 0.057c-9.66-0.128-19.454 1.93-28.010 6.499-11.417 6.104-19.956 15.654-26.76 26.622-7.856 12.671-14.004 28.066-19.734 46.087-0.821-10.903-2.72-20.779-6.668-29.607-9.423-21.090-30.4-31.59-47.701-35.371 0.14 0.027 0.124 0.023 0.109 0.021l-0.155-0.031c-10.576-2.289-22.304-1.9-32.672 2.529-10.367 4.443-18.38 12.23-24.334 20.854-11.909 17.248-18.283 38.808-25.299 67.040 0 0.001 0 0.001 0 0.002s0 0.001 0 0.002v0c-2.785 11.234-6.098 25.889-9.098 38.448-0.992-2.668-1.886-5.366-3.215-7.952-8.080-15.684-25.655-27.943-44.671-29.347-0.001 0-0.002 0-0.005 0s-0.004 0-0.005 0v0c-13.6-0.993-27.552 3.402-37.339 11.281-9.782 7.877-15.723 17.824-20.32 27.933-9.184 20.193-13.728 42.838-20.048 64.352 0.046-0.16 0.043-0.151 0.039-0.143l-0.049 0.16c-25.916 88.584-59.183 221.445-59.872 224.164-1.973 4.763-35.555 86.067-60.495 182.346-12.837 49.585-23.347 102.835-25.59 152.072-2.24 49.237 2.9 95.327 27.702 129.781 0.053 0.087 0.056 0.092 0.059 0.096l-0.050-0.083c45.087 62.55 132.344 102.466 224.253 118.579s189.914 8.288 257.375-40.314c35.728-25.746 47.392-69.977 64.568-111.674s37.128-81.183 73.273-104.597c0.109-0.063 0.117-0.068 0.124-0.072l-0.101 0.058c57.673-37.427 112.807-43.417 156.217-51.979 21.705-4.281 42.059-8.112 58.152-24.553 8.046-8.224 13.48-19.925 14.88-31.958 1.393-12.031-0.384-24.318-4.256-37.951l-0.005-0.009c-9.504-33.568-39.738-52.544-71.478-61.408-31.744-8.864-67.936-10.087-102.846-8.559-69.806 3.057-135.003 18.208-135.003 18.208-10.679 2.353-18.552 11.744-18.552 22.96 0 12.968 10.519 23.488 23.488 23.488 1.997 0 3.936-0.248 5.784-0.719l-0.16 0.032c0 0 62.24-14.239 126.499-17.053 32.133-1.408 64.634 0.295 88.16 6.88 23.52 6.563 35.109 15.52 38.916 28.96 0.063 0.129 0.064 0.132 0.066 0.135l-0.062-0.126c2.796 9.887 3.175 16.459 2.796 19.744-0.384 3.294-0.673 3.367-1.787 4.508-2.215 2.27-13.889 7.433-33.688 11.338-39.586 7.811-105.366 14.957-172.698 58.656-49.463 32.041-73.191 82.492-91.165 126.115-17.965 43.631-32.887 80.14-48.596 91.456-51.138 36.84-138.477 46.764-221.804 32.16-83.321-14.613-161.177-53.884-194.257-99.772l-0.009-0.009c-14.229-19.765-20.896-56.169-18.893-100.191 2.009-44.023 11.802-94.788 24.14-142.431 24.675-95.297 59.055-177.755 59.055-177.755 0.403-0.924 0.783-2.031 1.076-3.179l0.032-0.16c0 0 34.143-136.286 59.798-223.978l0.009-0.023c6.94-23.626 12.044-45.61 17.731-58.13 2.848-6.256 5.648-9.686 7.008-10.784 1.369-1.103 0.971-1.269 4.437-1.013 5.28 0.384 4.355 0.089 6.368 4.007 2.016 3.914 4.1 13.738 3.288 27.403 0 0.006 0 0.012 0 0.019s0 0.013 0 0.019v-0.001c-5.013 85.92-28.704 273.783-28.704 273.783-0.109 0.864-0.173 1.857-0.173 2.866 0 12.968 10.519 23.488 23.488 23.488 11.215 0 20.587-7.854 22.93-18.366l0.032-0.16c0 0 47.84-224.934 78.809-349.742v-0.005c6.566-26.462 13.419-44.512 18.367-51.68 2.471-3.579 3.796-4.193 4.164-4.358 0.384-0.167 0.798-0.545 4.224 0.167 11.104 2.427 12.185 2.747 14.814 8.63 2.634 5.891 5.009 23.654-0.437 57.184 0.032-0.156 0.032-0.139 0.032-0.122l-0.037 0.161c-20.192 126.064-19.711 125.672-51.529 333.316-0.166 1.056-0.269 2.282-0.269 3.533 0 12.968 10.519 23.488 23.488 23.488 10.777 0 19.855-7.257 22.624-17.143l0.035-0.16c53.84-198.448 53.792-198.965 88.864-334.079-0.014 0.084 0.004 0.011 0.020-0.063l0.029-0.154c9.45-37.847 18.51-64.147 26.39-76.845 3.936-6.354 7.078-8.935 8.983-9.952s3.23-1.497 7.898-0.736c-0.16-0.032-0.155-0.032-0.149-0.032l0.16 0.032c4.641 0.753 5.962 1.717 7.796 3.82 1.836 2.101 4.219 6.46 5.728 14.496 3.032 16.071 1.472 45.069-5.864 83.314 0.032-0.16 0.032-0.155 0.032-0.149l-0.032 0.16c-26.66 139.431-73.097 337.262-73.097 337.262l0.345 0.035c-0.437 2.427-0.96 5.336-0.96 5.336 0.032 12.952 10.53 23.435 23.488 23.435 10.041 0 18.611-6.304 21.975-15.168l0.052-0.16c0 0.002-0.019 0.089-0.019 0.089 0.007-0.019 0.014-0.031 0.027-0.039 0.032-0.089 0.089-0.217 0.167-0.423 0.128-0.384 0.345-0.955 0.645-1.708 0.565-1.504 1.408-3.732 2.496-6.61 2.176-5.76 5.339-14.131 9.283-24.59 7.901-20.905 18.939-50.144 31.521-83.45 25.173-66.615 56.505-149.528 81.181-214.696-0.043 0.070-0.041 0.065-0.037 0.060l0.046-0.075c12.425-32.875 22.778-54.257 29.894-62.232 3.553-3.988 5.288-4.745 7.46-5.262s6.090-0.672 13.413 1.525c6.369 1.92 7.022 3.16 8.393 5.869 1.374 2.718 2.634 8.736 1.952 17.899-1.369 18.336-10.292 46.518-19.574 75.367 0.033-0.16 0.032-0.16 0.032-0.153l-0.035 0.16c-29.603 92.222-65.648 215.547-82.728 297.539-0.362 1.554-0.574 3.332-0.574 5.157 0 12.968 10.519 23.488 23.488 23.488 11.412 0 20.918-8.137 23.044-18.919l0.028-0.153c16.292-78.225 52.204-201.609 81.471-292.76l-0.009 0.019c9.158-28.463 19.597-57.911 21.71-86.27 1.056-14.176 0.089-28.768-6.844-42.528-6.937-13.758-20.655-24.856-36.814-29.719 0.16 0.032 0.154 0.032 0.147 0.032l-0.16-0.032c-12.489-3.745-25.265-5.214-37.78-2.24s-23.448 10.479-31.653 19.68c-16.42 18.4-26.002 43.043-38.793 76.897-3.796 10.016-8.416 22.253-12.471 32.986 1.733-8.757 3.84-18.4 5.451-26.812l0.005-0.019c7.844-40.9 11.038-73.568 5.891-100.848-2.575-13.644-7.506-26.386-16.514-36.704s-22.081-17.084-35.663-19.29c-3.136-0.507-6.334-0.798-9.552-0.832z"></path>
</svg>
