<svg width="818" height="999" xmlns="http://www.w3.org/2000/svg">
 <title/>

 <g>
  <title>background</title>
  <rect fill="none" id="canvas_background" height="1001" width="820" y="-1" x="-1"/>
 </g>
 <g>
  <title>Layer 1</title>
  <g id="icomoon-ignore"/>
  <path stroke="null" id="svg_1" d="m723.688183,3.8157l-630.844231,0c-49.566008,0 -89.670403,40.554295 -89.670403,90.120303l-0.450955,582.630033c0,31.091626 15.770763,58.578778 39.65344,74.800495l365.889506,243.776723l365.439607,-243.776723c23.881621,-16.221718 39.65344,-43.70887 39.65344,-74.800495l0.450955,-582.630033c0,-49.566008 -40.554295,-90.120303 -90.120303,-90.120303l-0.001056,0zm-405.542946,675.90491l-225.301285,-225.301285l63.535062,-63.535062l161.766223,161.316324l342.007885,-342.007885l63.535062,63.986017l-405.542946,405.542946l0,-0.001056z"/>
 </g>
</svg>