<!-- Generated by IcoMoon.io -->
<svg version="1.1" xmlns="http://www.w3.org/2000/svg" width="961" height="1024" viewBox="0 0 961 1024">
<title></title>
<g id="icomoon-ignore">
</g>
<path d="M522.242 0.007c-5.887 0.211-10.63 4.836-11.027 10.654l-0.002 0.035-6.671 83.025c-0.036 0.341-0.057 0.737-0.057 1.138 0 6.325 5.128 11.453 11.453 11.453 6.081 0 11.055-4.739 11.43-10.726l0.002-0.033 6.671-83.021c0.032-0.324 0.051-0.7 0.051-1.080 0-6.325-5.128-11.453-11.453-11.453-0.14 0-0.279 0.002-0.417 0.007l0.020-0.001zM307.13 3.77c-0.107-0.004-0.233-0.006-0.359-0.006-6.325 0-11.453 5.128-11.453 11.453 0 1.078 0.149 2.122 0.428 3.111l-0.019-0.081 24.431 94.297c1.292 5.014 5.774 8.659 11.107 8.659 6.325 0 11.453-5.128 11.453-11.453 0-1.049-0.141-2.066-0.405-3.031l0.019 0.080-24.431-94.297c-1.234-4.938-5.556-8.566-10.752-8.733h-0.018zM729.323 62.976c-3.884 0.202-7.234 2.309-9.156 5.398l-0.028 0.049-50.044 79.046c-1.167 1.765-1.861 3.931-1.861 6.259 0 6.325 5.128 11.453 11.453 11.453 4.107 0 7.709-2.162 9.73-5.409l0.028-0.049 50.048-79.046c1.168-1.766 1.864-3.933 1.864-6.262 0-6.325-5.128-11.453-11.453-11.453-0.204 0-0.408 0.005-0.609 0.016l0.028-0.001zM120.16 139.624c-6.324 0.002-11.45 5.129-11.45 11.453 0 3.219 1.328 6.129 3.467 8.209l57.662 57.696c2.084 2.143 4.994 3.473 8.215 3.473 6.325 0 11.453-5.128 11.453-11.453 0-3.219-1.328-6.128-3.466-8.209l-57.662-57.696c-2.084-2.144-4.994-3.474-8.216-3.474-0.001 0-0.002 0-0.003 0v0zM862.494 228.895c-0.116-0.004-0.253-0.007-0.39-0.007-2.158 0-4.176 0.597-5.899 1.634l0.052-0.029-67.544 38.845c-3.58 1.983-5.964 5.739-5.964 10.052 0 6.325 5.128 11.453 11.453 11.453 2.19 0 4.237-0.615 5.977-1.681l-0.050 0.028 67.549-38.84c3.536-1.995 5.885-5.727 5.885-10.008 0-6.19-4.91-11.233-11.048-11.446l-0.019-0.001zM11.777 321.313c-0.097-0.003-0.21-0.005-0.324-0.005-6.325 0-11.453 5.128-11.453 11.453 0 5.524 3.91 10.134 9.114 11.214l0.074 0.013 81.461 17.671c0.789 0.194 1.694 0.305 2.625 0.305 6.325 0 11.453-5.128 11.453-11.453 0-5.536-3.928-10.155-9.149-11.221l-0.074-0.013-81.461-17.671c-0.672-0.164-1.45-0.269-2.249-0.293h-0.017zM376.345 421.855c-3.475 0.348-6.847 1.085-10.056 2.181-12.832 4.385-22.966 13.752-29.673 24.95s-10.176 24.475-8.538 37.769c1.639 13.294 9.053 26.562 22.403 35.022 0.001 0 0.001 0 0.002 0s0.002 0 0.002 0v0c16.35 10.355 22.319 14.133 35.452 22.445-41.54 65.662-111.568 176.293-111.568 176.293-1.146 1.753-1.827 3.9-1.827 6.206 0 6.325 5.128 11.453 11.453 11.453 4.087 0 7.674-2.141 9.701-5.362l0.028-0.048c0 0 70.019-110.625 111.563-176.293 2.12 1.342 12.118 7.675 12.118 7.675v-0.004c0 0 9.875 6.242 11.931 7.543-41.412 64.339-118.86 168.568-118.86 168.568-1.472 1.907-2.359 4.331-2.359 6.962 0 6.325 5.128 11.453 11.453 11.453 3.8 0 7.168-1.851 9.251-4.7l0.023-0.032c0 0 77.441-104.078 119.855-170.013 13.141 8.311 19.166 12.136 35.626 22.522 0.002 0.001 0.002 0.002 0.004 0.004 0.007 0.004 0.009 0.004 0.017 0.009 13.339 8.449 28.492 9.484 41.2 5.285 12.715-4.201 23.229-13.015 30.481-23.865s11.387-24.013 9.864-37.488c-1.523-13.473-9.389-26.874-23.415-35.758l-0.004-0.004c-20.137-12.76-41.217-15.254-59.168-5.357-14.919 8.225-27.584 23.086-41.277 43.343-2.202-1.394-12.373-7.819-12.373-7.819s-10.182-6.445-12.394-7.845c12.455-21.042 20.464-38.847 21.514-55.848 1.264-20.461-10.008-38.444-30.145-51.183l-0.004-0.004c-10.521-6.66-21.857-9.102-32.28-8.057zM949.881 422.923c-0.698 0.024-1.362 0.106-2.005 0.243l0.075-0.013-95.691 18.3c-5.398 0.993-9.434 5.662-9.434 11.274 0 6.325 5.128 11.453 11.453 11.453 0.809 0 1.598-0.084 2.359-0.243l-0.074 0.013 95.691-18.3c5.415-0.978 9.469-5.656 9.469-11.28 0-6.325-5.128-11.453-11.453-11.453-0.136 0-0.272 0.002-0.408 0.007l0.020-0.001zM378.807 444.505c5.226-0.649 10.862 0.516 17.569 4.762 0.001 0.001 0.003 0.003 0.004 0.004v0c16.135 10.206 20.319 17.76 19.537 30.413-0.641 10.383-6.847 25.544-18.074 44.967-13.092-8.287-18.913-11.969-35.099-22.22h-0.004c-7.833-4.965-11.019-11.115-11.926-18.478s1.132-15.988 5.451-23.198c4.319-7.21 10.729-12.754 17.428-15.043 1.675-0.572 3.373-0.991 5.115-1.208zM79.738 503.006c-0.291 0.005-0.569 0.021-0.844 0.046l0.045-0.003-54.797 4.269c-6.033 0.361-10.789 5.342-10.789 11.434 0 6.325 5.128 11.453 11.453 11.453 0.392 0 0.78-0.020 1.162-0.058l-0.048 0.004 54.797-4.265c5.995-0.404 10.705-5.366 10.705-11.428 0-6.325-5.128-11.453-11.453-11.453-0.081 0-0.162 0.001-0.242 0.003h0.012zM510.401 525.519c5.559 0.649 11.75 3.344 19.818 8.457 0.001 0 0.001 0 0.002 0s0.002 0 0.002 0v0c8.94 5.661 12.113 11.949 12.909 18.984s-1.474 15.203-6.144 22.19c-4.67 6.987-11.59 12.518-18.627 14.843s-13.943 2.072-21.769-2.891c0.015 0.011 0.008 0.006 0.001 0l-0.022-0.017c-16.214-10.231-22.024-13.913-35.112-22.19 12.753-18.452 23.796-30.549 32.905-35.571 5.551-3.060 10.479-4.454 16.038-3.805zM830.843 604.203c-6.196 0.166-11.156 5.228-11.156 11.449 0 4.933 3.119 9.138 7.492 10.75l0.079 0.026 70.933 26.701c1.26 0.519 2.723 0.82 4.256 0.82 6.325 0 11.453-5.128 11.453-11.453 0-4.96-3.153-9.183-7.564-10.776l-0.080-0.025-70.933-26.706c-1.239-0.5-2.676-0.791-4.181-0.791-0.106 0-0.211 0.001-0.316 0.004h0.015zM740.441 743.289c-0.098-0.003-0.214-0.005-0.329-0.005-6.325 0-11.453 5.128-11.453 11.453 0 2.697 0.933 5.177 2.493 7.134l50.791 66.008c2.111 2.813 5.438 4.613 9.186 4.613 6.325 0 11.453-5.128 11.453-11.453 0-2.705-0.938-5.191-2.506-7.15l0.018 0.023-50.809-66.031c-2.046-2.717-5.228-4.484-8.827-4.592h-0.017zM609.204 830.863c-0.012 0-0.027 0-0.041 0-6.325 0-11.453 5.128-11.453 11.453 0 1.59 0.324 3.105 0.91 4.481l-0.028-0.075 17.097 42.671c1.695 4.339 5.843 7.356 10.695 7.356 6.325 0 11.453-5.128 11.453-11.453 0-1.597-0.327-3.117-0.917-4.499l0.028 0.075-17.097-42.667c-1.694-4.318-5.817-7.324-10.644-7.343h-0.002zM458.962 175.467c-99.239 3.010-195.352 53.593-252.328 143.605-60.297 95.244-62.098 211.243-14.55 305.145 6.287 12.43 15.171 22.84 23.257 33.789 8.088 10.952 14.954 22.17 16.595 27.343 2.917 9.529 11.635 16.34 21.944 16.34 12.651 0 22.906-10.255 22.906-22.906 0-2.606-0.435-5.109-1.236-7.443l0.048 0.161c-5.114-16.126-14.666-28.866-23.411-40.707s-17.107-23.058-19.231-27.258c-0.062-0.133-0.063-0.136-0.064-0.139l0.060 0.13c-40.487-79.957-39.15-178.551 12.386-259.956 77.924-123.104 240.237-159.644 363.343-81.686 0.001 0.001 0.003 0.003 0.004 0.004v0c123.116 77.922 159.581 240.231 81.656 363.356h0.004c-51.541 81.425-140.053 124.814-229.662 122.431-0.001 0-0.001 0-0.002 0s-0.002 0-0.002 0v0c-6.327-0.167-27.393-5.287-47.816-8.338-10.211-1.526-20.699-2.612-31.867-1.093-11.167 1.519-24.989 6.873-32.977 19.52-0.001 0.002-0.002 0.002-0.004 0.004-19.963 31.477-14.244 22.491-20.005 31.544l-110.985-70.249c0.075 0.045 0.059 0.035 0.044 0.025l-0.091-0.055c-24.169-15.221-56.382-7.192-71.567 16.705 0.037-0.053 0.030-0.043 0.023-0.034l-0.045 0.064c-15.166 23.948-8.566 56.592 15.523 71.903-0.087-0.049-0.073-0.040-0.059-0.032l0.102 0.057 135.977 86.074c-0.072-0.041-0.047-0.025-0.022-0.010l0.099 0.057c-0.959-0.605 1.154 1.555-1.981 6.535-3.172 4.99-6.077 4.026-5.111 4.639-0.001-0.001-0.003-0.003-0.004-0.004v0l-8.193-5.196c0.127 0.059 0.124 0.057 0.121 0.056l-0.13-0.060-109.646-69.432c0.090 0.047 0.070 0.036 0.051 0.025l-0.11-0.059c-12.185-7.663-26.813-7.223-38.13-2.759s-20.675 12.613-27.454 23.317c0.046-0.157 0.045-0.153 0.043-0.148l-0.048 0.161c-6.785 10.726-10.13 22.688-9.307 34.827 0.822 12.134 6.68 25.556 18.878 33.27l69.407 43.913c-0.892 1.875-1.85 3.846-3.155 5.91 0.052-0.098 0.044-0.085 0.037-0.073l-0.059 0.111c-1.274 2.023-2.613 3.691-3.899 5.272l-40.38-25.57c-3.494-2.269-7.767-3.618-12.356-3.618-12.651 0-22.906 10.255-22.906 22.906 0 8.147 4.253 15.3 10.66 19.361l0.094 0.055 51.57 32.654c-0.096-0.052-0.086-0.047-0.077-0.041l0.106 0.058c8.773 5.536 18.378 4.416 24.078 2.509s9.551-4.569 13.159-7.458c7.206-5.769 13.208-12.989 18.687-21.684l0.009-0.013c5.48-8.668 9.437-17.169 11.582-26.14 1.073-4.488 1.839-9.095 1.144-15.060s-3.755-15.134-12.483-20.728c0.060 0.033 0.024 0.011-0.012-0.011l-0.098-0.057-14.142-8.954c-0.001 0-0.001 0-0.002 0s-0.002 0-0.002 0v0l-64.028-40.507c0.079-1.376 0.54-3.804 2.198-6.433l0.004-0.009c0.001-0.002 0.002-0.002 0.004-0.004 1.682-2.65 3.687-4.106 4.89-4.762l115.365 73.059c24.059 15.26 54.053 3.723 68.335-18.793-0.044 0.068-0.038 0.060-0.033 0.051l0.050-0.077c14.267-22.562 11.765-54.59-12.275-69.768l-0.013-0.013-16.739-10.651c0.064 0.040 0.048 0.029 0.031 0.018l-119.255-75.432c-2.677-1.701-3.674-5.1-1.399-8.712 2.254-3.532 5.914-4.118 8.482-2.5l130.267 82.447c3.47 2.227 7.705 3.55 12.248 3.55 8.090 0 15.2-4.194 19.275-10.526l0.055-0.091 8.415-13.236c13.806-21.69 2.862-4.509 22.939-36.17 0.169 0.007 0.149 0.030 1.403-0.14 3.594-0.489 10.772-0.211 18.929 1.008 16.315 2.437 34.818 8.337 53.373 8.827 105.229 2.797 209.283-48.47 269.578-143.724 91.161-144.039 48.172-335.394-95.862-426.559l-0.004-0.004c-54.012-34.202-114.681-49.52-174.223-47.714z"></path>
</svg>
